{
copyright = "\U00A9 Centre for Internet and Society, 2014";
customParameters = (
{
name = glyphOrder;
value = (
    ".notdef",
    space,
    "la-olchiki",
    "at-olchiki",
    "ag-olchiki",
    "ang-olchiki",
    "al-olchiki",
    "laa-olchiki",
    "aak-olchiki",
    "aaj-olchiki",
    "aam-olchiki",
    "aaw-olchiki",
    "li-olchiki",
    "is-olchiki",
    "ih-olchiki",
    "iny-olchiki",
    "ir-olchiki",
    "lu-olchiki",
    "uc-olchiki",
    "ud-olchiki",
    "unn-olchiki",
    "uy-olchiki",
    "le-olchiki",
    "ep-olchiki",
    "edd-olchiki",
    "en-olchiki",
    "err-olchiki",
    "lo-olchiki",
    "ott-olchiki",
    "ob-olchiki",
    "ov-olchiki",
    "oh-olchiki",
    "mu_ttuddag-olchiki",
    "gaahlaa_ttuddag-olchiki",
    "mu_gaahlaa_ttuddag-olchiki",
    "relaa-olchiki",
    "phaarkaa-olchiki"
);
},
{
name = license;
value = "This Font Software is licensed under the SIL Open Font License Version 1.1. This license is available with a FAQ at http://scripts.sil.org/OFL";
},
{
name = licenseURL;
value = "http://scripts.sil.org/OFL";
}
);
date = "2015-11-18 10:20:32 +0000";
designer = "Pooja Saxena";
designerURL = "http://www.poojasaxena.in/";
familyName = "Ol Chiki";
featurePrefixes = (
{
code = "languagesystem DFLT dflt;";
name = Languagesystems;
}
);
fontMaster = (
{
ascender = 750;
capHeight = 750;
descender = "-250";
guideLines = (
{
position = "{216, 636}";
}
);
id = "A591124E-510C-4EE7-8335-8E9FAE8FCE08";
xHeight = 500;
}
);
glyphs = (
{
glyphname = .notdef;
lastChange = "2015-11-18 10:20:00 +0000";
layers = (
{
background = {
paths = (
{
closed = 1;
nodes = (
"89 0 LINE",
"565 0 LINE",
"565 660 LINE",
"89 660 LINE"
);
},
{
closed = 1;
nodes = (
"197 58 LINE",
"271 190 LINE",
"325 293 LINE",
"329 293 LINE",
"381 190 LINE",
"454 58 LINE"
);
},
{
closed = 1;
nodes = (
"325 387 LINE",
"275 481 LINE",
"209 600 LINE",
"444 600 LINE",
"378 481 LINE",
"329 387 LINE"
);
},
{
closed = 1;
nodes = (
"154 110 LINE",
"154 572 LINE",
"281 340 LINE"
);
},
{
closed = 1;
nodes = (
"498 110 LINE",
"372 340 LINE",
"498 572 LINE"
);
}
);
};
layerId = "A591124E-510C-4EE7-8335-8E9FAE8FCE08";
name = Regular;
paths = (
{
closed = 1;
nodes = (
"90 0 LINE",
"513 0 LINE",
"513 636 LINE",
"90 636 LINE"
);
},
{
closed = 1;
nodes = (
"449 574 LINE",
"449 61 LINE",
"155 61 LINE",
"155 574 LINE"
);
}
);
width = 603;
}
);
},
{
glyphname = "la-olchiki";
lastChange = "2015-11-18 10:20:00 +0000";
layers = (
{
background = {
paths = (
{
closed = 1;
nodes = (
"157 538 OFFCURVE",
"216 576 OFFCURVE",
"288 576 CURVE SMOOTH",
"404 576 OFFCURVE",
"486 478 OFFCURVE",
"486 316 CURVE SMOOTH",
"486 155 OFFCURVE",
"404 59 OFFCURVE",
"288 59 CURVE SMOOTH",
"202 59 OFFCURVE",
"136 110 OFFCURVE",
"107 201 CURVE",
"45 151 LINE",
"91 45 OFFCURVE",
"182 -15 OFFCURVE",
"288 -15 CURVE SMOOTH",
"439 -15 OFFCURVE",
"563 109 OFFCURVE",
"563 316 CURVE SMOOTH",
"563 525 OFFCURVE",
"439 650 OFFCURVE",
"288 650 CURVE SMOOTH",
"208 650 OFFCURVE",
"135 614 OFFCURVE",
"85 551 CURVE",
"123 472 LINE"
);
},
{
closed = 1;
nodes = (
"105 103 LINE",
"513 436 LINE",
"458 486 LINE",
"45 151 LINE"
);
},
{
closed = 1;
nodes = (
"154 407 LINE",
"17 407 LINE",
"17 338 LINE",
"217 338 LINE",
"241 395 LINE",
"142 591 LINE",
"85 551 LINE"
);
}
);
};
layerId = "A591124E-510C-4EE7-8335-8E9FAE8FCE08";
name = Regular;
paths = (
{
closed = 1;
nodes = (
"115 93 LINE",
"523 426 LINE",
"468 476 LINE",
"55 141 LINE"
);
},
{
closed = 1;
nodes = (
"218 650 OFFCURVE",
"145 614 OFFCURVE",
"95 551 CURVE",
"164 407 LINE",
"37 407 LINE",
"37 338 LINE",
"227 338 LINE",
"251 395 LINE",
"183 536 LINE",
"215 563 OFFCURVE",
"253 576 OFFCURVE",
"298 576 CURVE SMOOTH",
"404 576 OFFCURVE",
"486 478 OFFCURVE",
"486 316 CURVE SMOOTH",
"486 155 OFFCURVE",
"404 59 OFFCURVE",
"288 59 CURVE SMOOTH",
"202 59 OFFCURVE",
"146 100 OFFCURVE",
"117 191 CURVE",
"55 141 LINE",
"101 35 OFFCURVE",
"182 -15 OFFCURVE",
"288 -15 CURVE SMOOTH",
"439 -15 OFFCURVE",
"563 109 OFFCURVE",
"563 316 CURVE SMOOTH",
"563 525 OFFCURVE",
"439 650 OFFCURVE",
"298 650 CURVE SMOOTH"
);
}
);
width = 608;
}
);
leftKerningGroup = "la-olchiki";
rightKerningGroup = "at-olchiki";
unicode = 1C5A;
},
{
glyphname = "at-olchiki";
lastChange = "2015-11-18 10:20:00 +0000";
layers = (
{
background = {
paths = (
{
closed = 1;
nodes = (
"25 114 OFFCURVE",
"158 -15 OFFCURVE",
"320 -15 CURVE SMOOTH",
"481 -15 OFFCURVE",
"615 114 OFFCURVE",
"615 316 CURVE SMOOTH",
"615 520 OFFCURVE",
"481 650 OFFCURVE",
"320 650 CURVE SMOOTH",
"158 650 OFFCURVE",
"25 520 OFFCURVE",
"25 316 CURVE SMOOTH"
);
},
{
closed = 1;
nodes = (
"525 168 OFFCURVE",
"437 84 OFFCURVE",
"320 84 CURVE SMOOTH",
"202 84 OFFCURVE",
"115 168 OFFCURVE",
"115 316 CURVE SMOOTH",
"115 465 OFFCURVE",
"202 551 OFFCURVE",
"320 551 CURVE SMOOTH",
"437 551 OFFCURVE",
"525 465 OFFCURVE",
"525 316 CURVE SMOOTH"
);
},
{
closed = 1;
nodes = (
"25 114 OFFCURVE",
"158 -15 OFFCURVE",
"320 -15 CURVE SMOOTH",
"481 -15 OFFCURVE",
"615 114 OFFCURVE",
"615 316 CURVE SMOOTH",
"615 520 OFFCURVE",
"481 650 OFFCURVE",
"320 650 CURVE SMOOTH",
"158 650 OFFCURVE",
"25 520 OFFCURVE",
"25 316 CURVE SMOOTH"
);
},
{
closed = 1;
nodes = (
"532 158 OFFCURVE",
"444 70 OFFCURVE",
"320 70 CURVE SMOOTH",
"195 70 OFFCURVE",
"108 158 OFFCURVE",
"108 316 CURVE SMOOTH",
"108 475 OFFCURVE",
"195 565 OFFCURVE",
"320 565 CURVE SMOOTH",
"444 565 OFFCURVE",
"532 475 OFFCURVE",
"532 316 CURVE SMOOTH"
);
},
{
closed = 1;
nodes = (
"25 109 OFFCURVE",
"158 -15 OFFCURVE",
"320 -15 CURVE SMOOTH",
"481 -15 OFFCURVE",
"615 109 OFFCURVE",
"615 316 CURVE SMOOTH",
"615 525 OFFCURVE",
"481 650 OFFCURVE",
"320 650 CURVE SMOOTH",
"158 650 OFFCURVE",
"25 525 OFFCURVE",
"25 316 CURVE SMOOTH"
);
},
{
closed = 1;
nodes = (
"532 161 OFFCURVE",
"444 65 OFFCURVE",
"320 65 CURVE SMOOTH",
"195 65 OFFCURVE",
"108 161 OFFCURVE",
"108 316 CURVE SMOOTH",
"108 472 OFFCURVE",
"195 570 OFFCURVE",
"320 570 CURVE SMOOTH",
"444 570 OFFCURVE",
"532 472 OFFCURVE",
"532 316 CURVE SMOOTH"
);
}
);
};
layerId = "A591124E-510C-4EE7-8335-8E9FAE8FCE08";
name = Regular;
paths = (
{
closed = 1;
nodes = (
"45 109 OFFCURVE",
"168 -15 OFFCURVE",
"320 -15 CURVE SMOOTH",
"471 -15 OFFCURVE",
"595 109 OFFCURVE",
"595 316 CURVE SMOOTH",
"595 525 OFFCURVE",
"471 650 OFFCURVE",
"320 650 CURVE SMOOTH",
"168 650 OFFCURVE",
"45 525 OFFCURVE",
"45 316 CURVE SMOOTH"
);
},
{
closed = 1;
nodes = (
"518 155 OFFCURVE",
"436 59 OFFCURVE",
"320 59 CURVE SMOOTH",
"203 59 OFFCURVE",
"122 155 OFFCURVE",
"122 316 CURVE SMOOTH",
"122 478 OFFCURVE",
"203 576 OFFCURVE",
"320 576 CURVE SMOOTH",
"436 576 OFFCURVE",
"518 478 OFFCURVE",
"518 316 CURVE SMOOTH"
);
}
);
width = 640;
}
);
leftKerningGroup = "at-olchiki";
rightKerningGroup = "at-olchiki";
unicode = 1C5B;
},
{
glyphname = "ag-olchiki";
lastChange = "2015-11-18 10:20:00 +0000";
layers = (
{
background = {
paths = (
{
closed = 1;
nodes = (
"632 264 LINE",
"611 88 OFFCURVE",
"487 -15 OFFCURVE",
"340 -15 CURVE SMOOTH",
"178 -15 OFFCURVE",
"45 109 OFFCURVE",
"45 316 CURVE SMOOTH",
"45 525 OFFCURVE",
"178 650 OFFCURVE",
"340 650 CURVE SMOOTH",
"422 650 OFFCURVE",
"497 617 OFFCURVE",
"550 559 CURVE",
"495 509 LINE",
"456 552 OFFCURVE",
"402 576 OFFCURVE",
"340 576 CURVE SMOOTH",
"213 576 OFFCURVE",
"122 478 OFFCURVE",
"122 316 CURVE SMOOTH",
"122 155 OFFCURVE",
"213 59 OFFCURVE",
"340 59 CURVE SMOOTH",
"447 59 OFFCURVE",
"530 128 OFFCURVE",
"552 248 CURVE"
);
},
{
closed = 1;
nodes = (
"268 370 OFFCURVE",
"308 451 OFFCURVE",
"429 451 CURVE",
"485 451 OFFCURVE",
"528 442 OFFCURVE",
"602 431 CURVE",
"602 355 LINE",
"536 366 OFFCURVE",
"482 375 OFFCURVE",
"443 375 CURVE",
"379 375 OFFCURVE",
"348 350 OFFCURVE",
"348 307 CURVE",
"348 264 OFFCURVE",
"379 239 OFFCURVE",
"443 239 CURVE",
"482 239 OFFCURVE",
"536 248 OFFCURVE",
"632 264 CURVE",
"602 183 LINE",
"528 172 OFFCURVE",
"485 163 OFFCURVE",
"429 163 CURVE",
"308 163 OFFCURVE",
"268 244 OFFCURVE",
"267 307 CURVE"
);
},
{
closed = 1;
nodes = (
"379 239 OFFCURVE",
"348 264 OFFCURVE",
"348 307 CURVE SMOOTH",
"348 350 OFFCURVE",
"379 375 OFFCURVE",
"443 375 CURVE SMOOTH",
"478 375 OFFCURVE",
"526 368 OFFCURVE",
"585 358 CURVE",
"602 431 LINE",
"528 442 OFFCURVE",
"485 451 OFFCURVE",
"429 451 CURVE SMOOTH",
"308 451 OFFCURVE",
"268 370 OFFCURVE",
"267 307 CURVE SMOOTH",
"268 244 OFFCURVE",
"308 163 OFFCURVE",
"429 163 CURVE SMOOTH",
"463.012 163 OFFCURVE",
"482 166 OFFCURVE",
"517 171 CURVE",
"479 99 OFFCURVE",
"412 59 OFFCURVE",
"330 59 CURVE SMOOTH",
"203 59 OFFCURVE",
"122 155 OFFCURVE",
"122 316 CURVE SMOOTH",
"122 478 OFFCURVE",
"213 576 OFFCURVE",
"340 576 CURVE SMOOTH",
"402 576 OFFCURVE",
"456 552 OFFCURVE",
"495 509 CURVE",
"550 559 LINE",
"497 617 OFFCURVE",
"422 650 OFFCURVE",
"340 650 CURVE SMOOTH",
"178 650 OFFCURVE",
"45 525 OFFCURVE",
"45 316 CURVE SMOOTH",
"45 109 OFFCURVE",
"168 -15 OFFCURVE",
"330 -15 CURVE SMOOTH",
"472 -15 OFFCURVE",
"586 78 OFFCURVE",
"612 244 CURVE",
"594 258 LINE",
"520 244 OFFCURVE",
"479 239 OFFCURVE",
"443 239 CURVE SMOOTH"
);
}
);
};
guideLines = (
{
position = "{335, 237}";
},
{
position = "{335, 270}";
},
{
position = "{335, 202}";
},
{
position = "{-88, 316}";
}
);
layerId = "A591124E-510C-4EE7-8335-8E9FAE8FCE08";
name = Regular;
paths = (
{
closed = 1;
nodes = (
"379 239 OFFCURVE",
"348 264 OFFCURVE",
"348 307 CURVE SMOOTH",
"348 350 OFFCURVE",
"379 375 OFFCURVE",
"443 375 CURVE SMOOTH",
"478 375 OFFCURVE",
"526 367 OFFCURVE",
"585 354 CURVE",
"602 428 LINE",
"528 444 OFFCURVE",
"492 452 OFFCURVE",
"431 452 CURVE SMOOTH",
"310 452 OFFCURVE",
"267 370 OFFCURVE",
"267 307 CURVE SMOOTH",
"267 244 OFFCURVE",
"308 163 OFFCURVE",
"429 163 CURVE SMOOTH",
"463.012 163 OFFCURVE",
"482 166 OFFCURVE",
"517 171 CURVE",
"479 99 OFFCURVE",
"412 59 OFFCURVE",
"330 59 CURVE SMOOTH",
"203 59 OFFCURVE",
"122 155 OFFCURVE",
"122 316 CURVE SMOOTH",
"122 478 OFFCURVE",
"213 576 OFFCURVE",
"340 576 CURVE SMOOTH",
"402 576 OFFCURVE",
"450 550 OFFCURVE",
"492 512 CURVE",
"542 569 LINE",
"490 621 OFFCURVE",
"418 650 OFFCURVE",
"340 650 CURVE SMOOTH",
"178 650 OFFCURVE",
"45 525 OFFCURVE",
"45 316 CURVE SMOOTH",
"45 109 OFFCURVE",
"164 -15 OFFCURVE",
"330 -15 CURVE SMOOTH",
"472 -15 OFFCURVE",
"586 78 OFFCURVE",
"612 244 CURVE",
"594 258 LINE",
"520 244 OFFCURVE",
"479 239 OFFCURVE",
"443 239 CURVE SMOOTH"
);
}
);
width = 657;
}
);
leftKerningGroup = "at-olchiki";
rightKerningGroup = "at-olchiki";
unicode = 1C5C;
},
{
glyphname = "ang-olchiki";
lastChange = "2015-11-18 10:20:00 +0000";
layers = (
{
background = {
paths = (
{
closed = 1;
nodes = (
"26 109 OFFCURVE",
"159 -15 OFFCURVE",
"321 -15 CURVE SMOOTH",
"482 -15 OFFCURVE",
"616 109 OFFCURVE",
"616 316 CURVE SMOOTH",
"616 525 OFFCURVE",
"482 650 OFFCURVE",
"321 650 CURVE SMOOTH",
"159 650 OFFCURVE",
"26 525 OFFCURVE",
"26 316 CURVE SMOOTH"
);
},
{
closed = 1;
nodes = (
"539 155 OFFCURVE",
"447 59 OFFCURVE",
"321 59 CURVE SMOOTH",
"194 59 OFFCURVE",
"103 155 OFFCURVE",
"103 316 CURVE SMOOTH",
"103 478 OFFCURVE",
"194 576 OFFCURVE",
"321 576 CURVE SMOOTH",
"447 576 OFFCURVE",
"539 478 OFFCURVE",
"539 316 CURVE SMOOTH"
);
},
{
closed = 1;
nodes = (
"486 77 LINE",
"557 108 LINE",
"328 318 LINE",
"556 528 LINE",
"486 559 LINE",
"248 342 LINE",
"248 295 LINE"
);
},
{
closed = 1;
nodes = (
"328 318 LINE",
"556 528 LINE",
"501 607 OFFCURVE",
"416 650 OFFCURVE",
"321 650 CURVE SMOOTH",
"191 650 OFFCURVE",
"79 569 OFFCURVE",
"40 428 CURVE",
"113 402 LINE",
"139 512 OFFCURVE",
"218 576 OFFCURVE",
"321 576 CURVE SMOOTH",
"372 576 OFFCURVE",
"418 560 OFFCURVE",
"454 530 CURVE",
"248 342 LINE",
"248 295 LINE",
"455 105 LINE",
"419 75 OFFCURVE",
"373 59 OFFCURVE",
"322 59 CURVE SMOOTH",
"219 59 OFFCURVE",
"140 123 OFFCURVE",
"114 233 CURVE",
"41 207 LINE",
"80 66 OFFCURVE",
"192 -15 OFFCURVE",
"322 -15 CURVE SMOOTH",
"417 -15 OFFCURVE",
"502 28 OFFCURVE",
"557 107 CURVE"
);
},
{
closed = 0;
nodes = (
"113 402 LINE"
);
},
{
closed = 0;
nodes = (
"114 233 LINE"
);
},
{
closed = 1;
nodes = (
"425 281 LINE",
"607 281 LINE",
"607 353 LINE",
"425 353 LINE"
);
}
);
};
guideLines = (
{
position = "{250, 317}";
},
{
position = "{-142, 437}";
},
{
position = "{-142, 197}";
}
);
layerId = "A591124E-510C-4EE7-8335-8E9FAE8FCE08";
name = Regular;
paths = (
{
closed = 1;
nodes = (
"328 318 LINE",
"556 528 LINE",
"501 607 OFFCURVE",
"416 650 OFFCURVE",
"321 650 CURVE SMOOTH",
"191 650 OFFCURVE",
"79 569 OFFCURVE",
"40 428 CURVE",
"113 402 LINE",
"139 512 OFFCURVE",
"218 576 OFFCURVE",
"321 576 CURVE SMOOTH",
"372 576 OFFCURVE",
"418 560 OFFCURVE",
"454 530 CURVE",
"248 342 LINE",
"248 295 LINE",
"455 105 LINE",
"419 75 OFFCURVE",
"373 59 OFFCURVE",
"322 59 CURVE SMOOTH",
"219 59 OFFCURVE",
"146 127 OFFCURVE",
"112 233 CURVE",
"42 207 LINE",
"81 66 OFFCURVE",
"192 -15 OFFCURVE",
"322 -15 CURVE SMOOTH",
"417 -15 OFFCURVE",
"502 28 OFFCURVE",
"557 107 CURVE"
);
},
{
closed = 0;
nodes = (
"113 402 LINE"
);
},
{
closed = 1;
nodes = (
"425 281 LINE",
"607 281 LINE",
"607 353 LINE",
"425 353 LINE"
);
}
);
width = 652;
}
);
rightKerningGroup = "at-olchiki";
unicode = 1C5D;
},
{
glyphname = "al-olchiki";
lastChange = "2015-11-18 10:20:00 +0000";
layers = (
{
background = {
paths = (
{
closed = 1;
nodes = (
"639 0 LINE",
"639 636 LINE",
"567 636 LINE",
"567 0 LINE"
);
},
{
closed = 1;
nodes = (
"974 36 OFFCURVE",
"1076 131 OFFCURVE",
"1076 318 CURVE SMOOTH",
"1076 521 OFFCURVE",
"954 626 OFFCURVE",
"832 639 CURVE",
"581 349 LINE",
"639 312 LINE",
"852 560 LINE",
"925 540 OFFCURVE",
"1003 468 OFFCURVE",
"1003 318 CURVE SMOOTH",
"1003 167 OFFCURVE",
"926 96 OFFCURVE",
"815 67 CURVE",
"841 -1 LINE"
);
},
{
closed = 1;
nodes = (
"639 0 LINE",
"639 636 LINE",
"567 636 LINE",
"567 0 LINE"
);
},
{
closed = 1;
nodes = (
"933 288 OFFCURVE",
"876 206 OFFCURVE",
"758 194 CURVE",
"639 298 LINE",
"581 257 LINE",
"744 117 LINE",
"906 130 OFFCURVE",
"1006 235 OFFCURVE",
"1006 378 CURVE",
"1006 521 OFFCURVE",
"906 626 OFFCURVE",
"744 639 CURVE",
"581 499 LINE",
"639 458 LINE",
"758 562 LINE",
"876 550 OFFCURVE",
"933 468 OFFCURVE",
"933 378 CURVE"
);
},
{
closed = 1;
nodes = (
"139 0 LINE",
"139 636 LINE",
"67 636 LINE",
"67 0 LINE"
);
},
{
closed = 1;
nodes = (
"431 288 OFFCURVE",
"376 206 OFFCURVE",
"258 194 CURVE",
"139 298 LINE",
"81 257 LINE",
"244 117 LINE",
"406 130 OFFCURVE",
"506 235 OFFCURVE",
"506 378 CURVE",
"506 521 OFFCURVE",
"406 626 OFFCURVE",
"244 639 CURVE",
"81 499 LINE",
"139 458 LINE",
"258 562 LINE",
"376 550 OFFCURVE",
"431 468 OFFCURVE",
"431 378 CURVE"
);
}
);
};
layerId = "A591124E-510C-4EE7-8335-8E9FAE8FCE08";
name = Regular;
paths = (
{
closed = 1;
nodes = (
"431 288 OFFCURVE",
"377 207 OFFCURVE",
"259 195 CURVE",
"139 299 LINE",
"81 257 LINE",
"244 117 LINE",
"406 130 OFFCURVE",
"509 235 OFFCURVE",
"509 378 CURVE",
"509 521 OFFCURVE",
"406 626 OFFCURVE",
"244 639 CURVE",
"81 499 LINE",
"139 457 LINE",
"258 560 LINE",
"376 548 OFFCURVE",
"431 468 OFFCURVE",
"431 378 CURVE"
);
},
{
closed = 1;
nodes = (
"67 0 LINE",
"142 0 LINE",
"142 636 LINE",
"67 636 LINE"
);
}
);
width = 544;
}
);
leftKerningGroup = "al-olchiki";
unicode = 1C5E;
},
{
glyphname = "laa-olchiki";
lastChange = "2015-11-18 10:20:00 +0000";
layers = (
{
background = {
paths = (
{
closed = 1;
nodes = (
"208 650 OFFCURVE",
"145 614 OFFCURVE",
"95 551 CURVE",
"164 407 LINE",
"37 407 LINE",
"37 338 LINE",
"227 338 LINE",
"251 395 LINE",
"183 536 LINE",
"215 563 OFFCURVE",
"243 576 OFFCURVE",
"288 576 CURVE SMOOTH",
"384 576 OFFCURVE",
"456 478 OFFCURVE",
"456 316 CURVE SMOOTH",
"456 155 OFFCURVE",
"384 59 OFFCURVE",
"278 59 CURVE SMOOTH",
"192 59 OFFCURVE",
"146 100 OFFCURVE",
"117 191 CURVE",
"55 141 LINE",
"101 35 OFFCURVE",
"172 -15 OFFCURVE",
"278 -15 CURVE SMOOTH",
"426 -15 OFFCURVE",
"533 109 OFFCURVE",
"533 316 CURVE SMOOTH",
"533 525 OFFCURVE",
"426 650 OFFCURVE",
"288 650 CURVE SMOOTH"
);
},
{
closed = 1;
nodes = (
"654 51 OFFCURVE",
"695 160 OFFCURVE",
"695 312 CURVE SMOOTH",
"695 459 OFFCURVE",
"647 587 OFFCURVE",
"571 637 CURVE",
"528 571 LINE",
"584 533 OFFCURVE",
"618 432 OFFCURVE",
"618 312 CURVE SMOOTH",
"618 196 OFFCURVE",
"587 90 OFFCURVE",
"538 28 CURVE",
"603 -15 LINE"
);
},
{
closed = 1;
nodes = (
"112 97 LINE",
"616 578 LINE",
"571 637 LINE",
"55 141 LINE"
);
}
);
};
layerId = "A591124E-510C-4EE7-8335-8E9FAE8FCE08";
name = Regular;
paths = (
{
closed = 1;
nodes = (
"208 650 OFFCURVE",
"145 614 OFFCURVE",
"95 551 CURVE",
"166 407 LINE",
"37 407 LINE",
"37 338 LINE",
"227 338 LINE",
"251 395 LINE",
"183 536 LINE",
"215 563 OFFCURVE",
"243 576 OFFCURVE",
"288 576 CURVE SMOOTH",
"384 576 OFFCURVE",
"458 478 OFFCURVE",
"458 316 CURVE SMOOTH",
"458 155 OFFCURVE",
"384 59 OFFCURVE",
"278 59 CURVE SMOOTH",
"192 59 OFFCURVE",
"146 100 OFFCURVE",
"117 191 CURVE",
"55 141 LINE",
"101 35 OFFCURVE",
"172 -15 OFFCURVE",
"278 -15 CURVE SMOOTH",
"426 -15 OFFCURVE",
"533 109 OFFCURVE",
"533 316 CURVE SMOOTH",
"533 525 OFFCURVE",
"426 650 OFFCURVE",
"288 650 CURVE SMOOTH"
);
},
{
closed = 1;
nodes = (
"571 637 LINE",
"55 141 LINE",
"112 97 LINE",
"572 541 LINE",
"599 483 OFFCURVE",
"621 409 OFFCURVE",
"621 312 CURVE SMOOTH",
"621 176 OFFCURVE",
"580 89 OFFCURVE",
"537 21 CURVE",
"603 -15 LINE",
"648 57 OFFCURVE",
"695 170 OFFCURVE",
"695 312 CURVE SMOOTH",
"695 454 OFFCURVE",
"648 565 OFFCURVE",
"603 637 CURVE"
);
}
);
width = 740;
}
);
leftKerningGroup = "laa-olchiki";
rightKerningGroup = "at-olchiki";
unicode = 1C5F;
},
{
glyphname = "aak-olchiki";
lastChange = "2015-11-18 10:20:00 +0000";
layers = (
{
background = {
paths = (
{
closed = 1;
nodes = (
"62 3 LINE",
"134 3 LINE",
"134 639 LINE",
"62 639 LINE"
);
},
{
closed = 1;
nodes = (
"408 171 OFFCURVE",
"349 91 OFFCURVE",
"251 79 CURVE",
"134 181 LINE",
"76 140 LINE",
"237 0 LINE",
"379 13 OFFCURVE",
"481 118 OFFCURVE",
"481 261 CURVE",
"481 404 OFFCURVE",
"379 509 OFFCURVE",
"237 522 CURVE",
"76 382 LINE",
"134 341 LINE",
"251 443 LINE",
"349 431 OFFCURVE",
"408 351 OFFCURVE",
"408 261 CURVE"
);
}
);
};
layerId = "A591124E-510C-4EE7-8335-8E9FAE8FCE08";
name = Regular;
paths = (
{
closed = 1;
nodes = (
"62 144 LINE",
"137 149 LINE",
"137 636 LINE",
"62 636 LINE"
);
},
{
closed = 1;
nodes = (
"408 168 OFFCURVE",
"349 88 OFFCURVE",
"256 76 CURVE",
"134 178 LINE",
"62 144 LINE",
"237 -3 LINE",
"379 10 OFFCURVE",
"485 115 OFFCURVE",
"485 258 CURVE",
"485 401 OFFCURVE",
"379 506 OFFCURVE",
"237 519 CURVE",
"76 379 LINE",
"134 337 LINE",
"251 440 LINE",
"349 428 OFFCURVE",
"408 348 OFFCURVE",
"408 258 CURVE"
);
}
);
width = 516;
}
);
leftKerningGroup = "al-olchiki";
rightKerningGroup = "aak-olchiki";
unicode = 1C60;
},
{
glyphname = "aaj-olchiki";
lastChange = "2015-11-18 10:20:00 +0000";
layers = (
{
background = {
paths = (
{
closed = 1;
nodes = (
"1267 0 LINE",
"1345 0 LINE",
"1345 636 LINE",
"1267 636 LINE"
);
},
{
closed = 1;
nodes = (
"1515 571 LINE",
"1626 555 OFFCURVE",
"1703 464 OFFCURVE",
"1703 318 CURVE SMOOTH",
"1703 163 OFFCURVE",
"1627 101 OFFCURVE",
"1559 81 CURVE",
"1339 335 LINE",
"1281 287 LINE",
"1528 -3 LINE",
"1652 -3 OFFCURVE",
"1786 111 OFFCURVE",
"1786 318 CURVE SMOOTH",
"1786 505 OFFCURVE",
"1674 623 OFFCURVE",
"1541 646 CURVE"
);
},
{
closed = 1;
nodes = (
"1339 0 LINE",
"1339 636 LINE",
"1267 636 LINE",
"1267 0 LINE"
);
},
{
closed = 1;
nodes = (
"1515 571 LINE",
"1626 542 OFFCURVE",
"1703 471 OFFCURVE",
"1703 320 CURVE SMOOTH",
"1703 170 OFFCURVE",
"1625 98 OFFCURVE",
"1552 78 CURVE",
"1339 326 LINE",
"1281 289 LINE",
"1532 -1 LINE",
"1654 12 OFFCURVE",
"1776 117 OFFCURVE",
"1776 320 CURVE SMOOTH",
"1776 507 OFFCURVE",
"1674 602 OFFCURVE",
"1541 639 CURVE"
);
},
{
closed = 1;
nodes = (
"667 0 LINE",
"739 0 LINE",
"739 636 LINE",
"667 636 LINE"
);
},
{
closed = 1;
nodes = (
"895 571 LINE",
"1006 542 OFFCURVE",
"1083 471 OFFCURVE",
"1083 320 CURVE SMOOTH",
"1083 170 OFFCURVE",
"1005 98 OFFCURVE",
"932 78 CURVE",
"739 326 LINE",
"681 289 LINE",
"902 -1 LINE",
"1034 12 OFFCURVE",
"1156 117 OFFCURVE",
"1156 320 CURVE SMOOTH",
"1156 507 OFFCURVE",
"1054 602 OFFCURVE",
"921 639 CURVE"
);
},
{
closed = 1;
nodes = (
"295 570 LINE",
"406 541 OFFCURVE",
"483 471 OFFCURVE",
"483 320 CURVE SMOOTH",
"483 170 OFFCURVE",
"405 98 OFFCURVE",
"332 78 CURVE",
"139 328 LINE",
"90 289 LINE",
"186 151 LINE",
"302 -1 LINE",
"434 12 OFFCURVE",
"560 117 OFFCURVE",
"560 320 CURVE SMOOTH",
"560 507 OFFCURVE",
"454 602 OFFCURVE",
"321 639 CURVE"
);
},
{
closed = 1;
nodes = (
"67 0 LINE",
"142 0 LINE",
"142 636 LINE",
"67 636 LINE"
);
}
);
};
layerId = "A591124E-510C-4EE7-8335-8E9FAE8FCE08";
name = Regular;
paths = (
{
closed = 1;
nodes = (
"296 568 LINE",
"407 536 OFFCURVE",
"483 477 OFFCURVE",
"483 320 CURVE SMOOTH",
"483 170 OFFCURVE",
"405 98 OFFCURVE",
"332 78 CURVE",
"139 328 LINE",
"90 289 LINE",
"186 151 LINE",
"302 -1 LINE",
"434 12 OFFCURVE",
"560 117 OFFCURVE",
"560 320 CURVE SMOOTH",
"560 517 OFFCURVE",
"454 602 OFFCURVE",
"321 639 CURVE"
);
},
{
closed = 1;
nodes = (
"67 0 LINE",
"142 0 LINE",
"142 636 LINE",
"67 636 LINE"
);
}
);
width = 605;
}
);
rightKerningGroup = "at-olchiki";
unicode = 1C61;
},
{
glyphname = "aam-olchiki";
lastChange = "2015-11-18 10:20:00 +0000";
layers = (
{
background = {
paths = (
{
closed = 1;
nodes = (
"622 602 OFFCURVE",
"516 507 OFFCURVE",
"516 320 CURVE SMOOTH",
"516 117 OFFCURVE",
"642 12 OFFCURVE",
"774 -1 CURVE",
"890 151 LINE",
"986 289 LINE",
"937 328 LINE",
"744 78 LINE",
"671 98 OFFCURVE",
"593 170 OFFCURVE",
"593 320 CURVE SMOOTH",
"593 471 OFFCURVE",
"670 541 OFFCURVE",
"781 570 CURVE",
"755 639 LINE"
);
},
{
closed = 1;
nodes = (
"934 636 LINE",
"934 0 LINE",
"1009 0 LINE",
"1009 636 LINE"
);
}
);
};
layerId = "A591124E-510C-4EE7-8335-8E9FAE8FCE08";
name = Regular;
paths = (
{
closed = 1;
nodes = (
"151 602 OFFCURVE",
"45 517 OFFCURVE",
"45 320 CURVE SMOOTH",
"45 117 OFFCURVE",
"171 12 OFFCURVE",
"303 -1 CURVE",
"419 151 LINE",
"515 289 LINE",
"466 328 LINE",
"273 78 LINE",
"200 98 OFFCURVE",
"122 170 OFFCURVE",
"122 320 CURVE SMOOTH",
"122 477 OFFCURVE",
"198 536 OFFCURVE",
"309 568 CURVE",
"284 639 LINE"
);
},
{
closed = 1;
nodes = (
"463 636 LINE",
"463 0 LINE",
"538 0 LINE",
"538 636 LINE"
);
}
);
width = 605;
}
);
leftKerningGroup = "at-olchiki";
unicode = 1C62;
},
{
glyphname = "aaw-olchiki";
lastChange = "2015-11-18 10:20:00 +0000";
layers = (
{
background = {
paths = (
{
closed = 1;
nodes = (
"412 592 LINE",
"450 552 OFFCURVE",
"516 452 OFFCURVE",
"516 323 CURVE SMOOTH",
"516 182 OFFCURVE",
"444 54 OFFCURVE",
"305 59 CURVE",
"206 59 OFFCURVE",
"142 122 OFFCURVE",
"122 221 CURVE",
"142 217 OFFCURVE",
"166 214 OFFCURVE",
"188 214 CURVE SMOOTH",
"314 214 OFFCURVE",
"378 318 OFFCURVE",
"378 417 CURVE SMOOTH",
"378 537 OFFCURVE",
"330 642 OFFCURVE",
"201 642 CURVE SMOOTH",
"139 642 OFFCURVE",
"74 601 OFFCURVE",
"42 513 CURVE",
"105 481 LINE",
"131 536 OFFCURVE",
"156 568 OFFCURVE",
"204 568 CURVE SMOOTH",
"266 568 OFFCURVE",
"304 524 OFFCURVE",
"304 418 CURVE SMOOTH",
"304 359 OFFCURVE",
"268 287 OFFCURVE",
"186 287 CURVE SMOOTH",
"127 287 OFFCURVE",
"98 302 OFFCURVE",
"56 312 CURVE",
"40 297 LINE",
"47 101 OFFCURVE",
"150 -15 OFFCURVE",
"307 -15 CURVE SMOOTH",
"485 -15 OFFCURVE",
"590 124 OFFCURVE",
"590 329 CURVE SMOOTH",
"590 457 OFFCURVE",
"529 574 OFFCURVE",
"471 640 CURVE"
);
}
);
};
layerId = "A591124E-510C-4EE7-8335-8E9FAE8FCE08";
name = Regular;
paths = (
{
closed = 1;
nodes = (
"432 607 LINE",
"468 547 OFFCURVE",
"506 462 OFFCURVE",
"506 323 CURVE SMOOTH",
"506 182 OFFCURVE",
"444 54 OFFCURVE",
"305 59 CURVE",
"206 59 OFFCURVE",
"142 122 OFFCURVE",
"122 221 CURVE",
"142 217 OFFCURVE",
"166 214 OFFCURVE",
"188 214 CURVE SMOOTH",
"314 214 OFFCURVE",
"378 318 OFFCURVE",
"378 417 CURVE SMOOTH",
"378 537 OFFCURVE",
"335 642 OFFCURVE",
"206 642 CURVE SMOOTH",
"144 642 OFFCURVE",
"73 602 OFFCURVE",
"41 514 CURVE",
"105 481 LINE",
"131 536 OFFCURVE",
"161 568 OFFCURVE",
"209 568 CURVE SMOOTH",
"271 568 OFFCURVE",
"304 524 OFFCURVE",
"304 418 CURVE SMOOTH",
"304 359 OFFCURVE",
"268 287 OFFCURVE",
"186 287 CURVE SMOOTH",
"127 287 OFFCURVE",
"98 302 OFFCURVE",
"56 312 CURVE",
"40 297 LINE",
"47 101 OFFCURVE",
"150 -15 OFFCURVE",
"307 -15 CURVE SMOOTH",
"485 -15 OFFCURVE",
"580 124 OFFCURVE",
"580 329 CURVE SMOOTH",
"580 457 OFFCURVE",
"549 554 OFFCURVE",
"501 640 CURVE"
);
}
);
width = 625;
}
);
rightKerningGroup = "at-olchiki";
unicode = 1C63;
},
{
glyphname = "li-olchiki";
lastChange = "2015-11-18 10:20:00 +0000";
layers = (
{
background = {
paths = (
{
closed = 1;
nodes = (
"1100 506 LINE",
"1027 506 LINE",
"1017 347 LINE",
"1017 0 LINE",
"1100 0 LINE"
);
},
{
closed = 1;
nodes = (
"1069 616 OFFCURVE",
"977 648 OFFCURVE",
"888 648 CURVE SMOOTH",
"796 648 OFFCURVE",
"701 611 OFFCURVE",
"635 530 CURVE",
"698 473 LINE",
"743 517 OFFCURVE",
"795 562 OFFCURVE",
"888 562 CURVE SMOOTH",
"939 562 OFFCURVE",
"984 548 OFFCURVE",
"1021 521 CURVE",
"646 39 LINE",
"710 -8 LINE",
"1136 541 LINE"
);
},
{
closed = 1;
nodes = (
"490 506 LINE",
"422 506 LINE",
"412 347 LINE",
"412 0 LINE",
"490 0 LINE"
);
},
{
closed = 1;
nodes = (
"459 616 OFFCURVE",
"367 648 OFFCURVE",
"278 648 CURVE SMOOTH",
"186 648 OFFCURVE",
"91 611 OFFCURVE",
"25 530 CURVE",
"88 473 LINE",
"133 517 OFFCURVE",
"185 562 OFFCURVE",
"278 562 CURVE SMOOTH",
"329 562 OFFCURVE",
"374 548 OFFCURVE",
"411 521 CURVE",
"35 40 LINE",
"99 -7 LINE",
"380 354 LINE",
"450 457 LINE",
"526 541 LINE"
);
},
{
closed = 0;
nodes = (
"573 316 LINE SMOOTH",
"573 520 OFFCURVE",
"439 650 OFFCURVE",
"278 650 CURVE SMOOTH",
"116 650 OFFCURVE",
"-17 520 OFFCURVE",
"-17 316 CURVE SMOOTH"
);
},
{
closed = 0;
nodes = (
"66 316 LINE SMOOTH",
"66 475 OFFCURVE",
"153 570 OFFCURVE",
"278 570 CURVE SMOOTH",
"402 570 OFFCURVE",
"490 475 OFFCURVE",
"490 316 CURVE SMOOTH"
);
},
{
closed = 1;
nodes = (
"490 506 LINE",
"422 506 LINE",
"412 347 LINE",
"412 0 LINE",
"490 0 LINE"
);
},
{
closed = 1;
nodes = (
"464 610 OFFCURVE",
"372 650 OFFCURVE",
"278 650 CURVE SMOOTH",
"186 650 OFFCURVE",
"91 607 OFFCURVE",
"25 530 CURVE",
"85 476 LINE",
"130 520 OFFCURVE",
"185 570 OFFCURVE",
"278 570 CURVE SMOOTH",
"329 570 OFFCURVE",
"376 554 OFFCURVE",
"413 527 CURVE",
"36 39 LINE",
"99 -7 LINE",
"380 357 LINE",
"450 457 LINE",
"526 541 LINE"
);
}
);
};
layerId = "A591124E-510C-4EE7-8335-8E9FAE8FCE08";
name = Regular;
paths = (
{
closed = 1;
nodes = (
"484 506 LINE",
"422 506 LINE",
"412 347 LINE",
"412 0 LINE",
"484 0 LINE"
);
},
{
closed = 1;
nodes = (
"474 610 OFFCURVE",
"382 650 OFFCURVE",
"288 650 CURVE SMOOTH",
"196 650 OFFCURVE",
"101 607 OFFCURVE",
"35 530 CURVE",
"91 480 LINE",
"136 524 OFFCURVE",
"195 576 OFFCURVE",
"288 576 CURVE SMOOTH",
"349 576 OFFCURVE",
"394 556 OFFCURVE",
"431 529 CURVE",
"49 37 LINE",
"106 -5 LINE",
"390 360 LINE",
"452 450 LINE",
"536 541 LINE"
);
}
);
width = 571;
}
);
rightKerningGroup = "li-olchiki";
unicode = 1C64;
},
{
glyphname = "is-olchiki";
lastChange = "2015-11-18 10:20:00 +0000";
layers = (
{
background = {
paths = (
{
closed = 1;
nodes = (
"77 130 LINE",
"139 130 LINE",
"149 289 LINE",
"149 636 LINE",
"77 636 LINE"
);
},
{
closed = 1;
nodes = (
"97 26 OFFCURVE",
"189 -14 OFFCURVE",
"283 -14 CURVE SMOOTH",
"375 -14 OFFCURVE",
"470 29 OFFCURVE",
"536 106 CURVE",
"480 156 LINE",
"435 112 OFFCURVE",
"376 60 OFFCURVE",
"283 60 CURVE SMOOTH",
"222 60 OFFCURVE",
"177 80 OFFCURVE",
"140 107 CURVE",
"522 599 LINE",
"465 641 LINE",
"181 276 LINE",
"119 186 LINE",
"35 95 LINE"
);
}
);
};
layerId = "A591124E-510C-4EE7-8335-8E9FAE8FCE08";
name = Regular;
paths = (
{
closed = 1;
nodes = (
"87 130 LINE",
"154 130 LINE",
"164 289 LINE",
"164 636 LINE",
"87 636 LINE"
);
},
{
closed = 1;
nodes = (
"97 26 OFFCURVE",
"189 -14 OFFCURVE",
"283 -14 CURVE SMOOTH",
"375 -14 OFFCURVE",
"470 29 OFFCURVE",
"536 106 CURVE",
"480 156 LINE",
"435 112 OFFCURVE",
"376 60 OFFCURVE",
"283 60 CURVE SMOOTH",
"222 60 OFFCURVE",
"177 80 OFFCURVE",
"140 107 CURVE",
"522 599 LINE",
"465 641 LINE",
"181 276 LINE",
"119 186 LINE",
"35 95 LINE"
);
}
);
width = 571;
}
);
unicode = 1C65;
},
{
glyphname = "ih-olchiki";
lastChange = "2015-11-18 10:20:00 +0000";
layers = (
{
background = {
paths = (
{
closed = 1;
nodes = (
"457 583 LINE",
"496 543 OFFCURVE",
"568 442 OFFCURVE",
"568 313 CURVE SMOOTH",
"568 231 OFFCURVE",
"540 149 OFFCURVE",
"489 98 CURVE",
"367 266 LINE",
"323 266 LINE",
"201 98 LINE",
"150 149 OFFCURVE",
"122 231 OFFCURVE",
"122 313 CURVE SMOOTH",
"122 442 OFFCURVE",
"194 543 OFFCURVE",
"233 583 CURVE",
"176 631 LINE",
"112 565 OFFCURVE",
"48 447 OFFCURVE",
"48 319 CURVE SMOOTH",
"48 172 OFFCURVE",
"114 46 OFFCURVE",
"217 -4 CURVE",
"345 175 LINE",
"473 -4 LINE",
"576 46 OFFCURVE",
"642 172 OFFCURVE",
"642 319 CURVE SMOOTH",
"642 447 OFFCURVE",
"578 565 OFFCURVE",
"514 631 CURVE"
);
}
);
};
guideLines = (
{
angle = 90;
position = "{345, 344}";
}
);
layerId = "A591124E-510C-4EE7-8335-8E9FAE8FCE08";
name = Regular;
paths = (
{
closed = 1;
nodes = (
"345 175 LINE",
"473 -4 LINE",
"576 46 OFFCURVE",
"645 172 OFFCURVE",
"645 319 CURVE SMOOTH",
"645 447 OFFCURVE",
"581 565 OFFCURVE",
"517 631 CURVE",
"457 583 LINE",
"496 543 OFFCURVE",
"568 442 OFFCURVE",
"568 313 CURVE SMOOTH",
"568 231 OFFCURVE",
"540 149 OFFCURVE",
"489 98 CURVE",
"367 266 LINE",
"323 266 LINE",
"201 98 LINE",
"150 149 OFFCURVE",
"122 231 OFFCURVE",
"122 313 CURVE SMOOTH",
"122 442 OFFCURVE",
"194 543 OFFCURVE",
"233 583 CURVE",
"173 631 LINE",
"109 565 OFFCURVE",
"45 447 OFFCURVE",
"45 319 CURVE SMOOTH",
"45 172 OFFCURVE",
"114 46 OFFCURVE",
"217 -4 CURVE"
);
}
);
width = 690;
}
);
leftKerningGroup = "at-olchiki";
rightKerningGroup = "at-olchiki";
unicode = 1C66;
},
{
glyphname = "iny-olchiki";
lastChange = "2015-11-18 10:20:00 +0000";
layers = (
{
background = {
paths = (
{
closed = 1;
nodes = (
"864 636 LINE",
"792 636 LINE",
"792 0 LINE",
"864 0 LINE"
);
},
{
closed = 1;
nodes = (
"518 468 OFFCURVE",
"577 548 OFFCURVE",
"675 560 CURVE",
"792 458 LINE",
"850 499 LINE",
"689 639 LINE",
"547 626 OFFCURVE",
"445 521 OFFCURVE",
"445 378 CURVE",
"445 235 OFFCURVE",
"547 130 OFFCURVE",
"689 117 CURVE",
"850 257 LINE",
"792 298 LINE",
"675 196 LINE",
"577 208 OFFCURVE",
"518 288 OFFCURVE",
"518 378 CURVE"
);
}
);
};
layerId = "A591124E-510C-4EE7-8335-8E9FAE8FCE08";
name = Regular;
paths = (
{
closed = 1;
nodes = (
"113 468 OFFCURVE",
"168 548 OFFCURVE",
"286 560 CURVE",
"405 457 LINE",
"463 499 LINE",
"300 639 LINE",
"138 626 OFFCURVE",
"35 521 OFFCURVE",
"35 378 CURVE",
"35 235 OFFCURVE",
"138 130 OFFCURVE",
"300 117 CURVE",
"463 257 LINE",
"405 299 LINE",
"285 195 LINE",
"167 207 OFFCURVE",
"113 288 OFFCURVE",
"113 378 CURVE"
);
},
{
closed = 1;
nodes = (
"402 636 LINE",
"402 0 LINE",
"477 0 LINE",
"477 636 LINE"
);
}
);
width = 544;
}
);
unicode = 1C67;
},
{
glyphname = "ir-olchiki";
lastChange = "2015-11-18 10:20:00 +0000";
layers = (
{
background = {
paths = (
{
closed = 1;
nodes = (
"1076 525 OFFCURVE",
"942 650 OFFCURVE",
"781 650 CURVE SMOOTH",
"737 650 OFFCURVE",
"696 641 OFFCURVE",
"658 623 CURVE",
"689 556 LINE",
"716 569 OFFCURVE",
"747 576 OFFCURVE",
"781 576 CURVE SMOOTH",
"907 576 OFFCURVE",
"999 478 OFFCURVE",
"999 316 CURVE SMOOTH",
"999 207 OFFCURVE",
"957 128 OFFCURVE",
"891 88 CURVE",
"795 226 LINE",
"729 226 LINE",
"610 28 LINE",
"669 -6 LINE",
"764 151 LINE",
"871 -1 LINE",
"978 33 OFFCURVE",
"1076 136 OFFCURVE",
"1076 316 CURVE SMOOTH"
);
},
{
closed = 1;
nodes = (
"755 496 LINE",
"702 452 LINE",
"977 116 LINE",
"1017 180 LINE"
);
},
{
closed = 1;
nodes = (
"1096 495 OFFCURVE",
"962 650 OFFCURVE",
"781 650 CURVE SMOOTH",
"737 650 OFFCURVE",
"696 641 OFFCURVE",
"658 623 CURVE",
"689 556 LINE",
"716 569 OFFCURVE",
"747 576 OFFCURVE",
"781 576 CURVE SMOOTH",
"927 576 OFFCURVE",
"1019 448 OFFCURVE",
"1019 286 CURVE SMOOTH",
"1019 179 OFFCURVE",
"977 136 OFFCURVE",
"891 88 CURVE",
"795 226 LINE",
"729 226 LINE",
"610 28 LINE",
"669 -6 LINE",
"764 151 LINE",
"871 -1 LINE",
"978 33 OFFCURVE",
"1096 116 OFFCURVE",
"1096 286 CURVE SMOOTH"
);
},
{
closed = 1;
nodes = (
"755 496 LINE",
"702 452 LINE",
"977 116 LINE",
"1017 180 LINE"
);
},
{
closed = 1;
nodes = (
"496 505 OFFCURVE",
"369 650 OFFCURVE",
"185 650 CURVE SMOOTH",
"141 650 OFFCURVE",
"106 643 OFFCURVE",
"68 630 CURVE",
"90 562 LINE",
"117 570 OFFCURVE",
"147 579 OFFCURVE",
"181 579 CURVE SMOOTH",
"327 579 OFFCURVE",
"419 463 OFFCURVE",
"419 311 CURVE SMOOTH",
"419 259 OFFCURVE",
"408 223 OFFCURVE",
"388 192 CURVE",
"368 159 LINE",
"347 134 OFFCURVE",
"324 114 OFFCURVE",
"290 95 CURVE",
"195 226 LINE",
"129 226 LINE",
"10 28 LINE",
"69 -6 LINE",
"164 151 LINE",
"271 -1 LINE",
"332 30 OFFCURVE",
"393 69 OFFCURVE",
"438 132 CURVE SMOOTH",
"471 180 OFFCURVE",
"496 241 OFFCURVE",
"496 321 CURVE SMOOTH"
);
},
{
closed = 1;
nodes = (
"155 496 LINE",
"102 452 LINE",
"377 116 LINE",
"417 180 LINE"
);
}
);
};
guideLines = (
{
angle = 90;
position = "{174, 201}";
}
);
layerId = "A591124E-510C-4EE7-8335-8E9FAE8FCE08";
name = Regular;
paths = (
{
closed = 1;
nodes = (
"496 505 OFFCURVE",
"369 646 OFFCURVE",
"185 646 CURVE SMOOTH",
"141 646 OFFCURVE",
"106 639 OFFCURVE",
"68 626 CURVE",
"90 558 LINE",
"117 566 OFFCURVE",
"147 575 OFFCURVE",
"181 575 CURVE SMOOTH",
"327 575 OFFCURVE",
"419 463 OFFCURVE",
"419 311 CURVE SMOOTH",
"419 259 OFFCURVE",
"408 223 OFFCURVE",
"388 192 CURVE",
"368 159 LINE",
"347 134 OFFCURVE",
"324 114 OFFCURVE",
"290 95 CURVE",
"195 226 LINE",
"129 226 LINE",
"10 28 LINE",
"69 -6 LINE",
"164 151 LINE",
"271 -1 LINE",
"332 30 OFFCURVE",
"393 69 OFFCURVE",
"438 132 CURVE SMOOTH",
"471 180 OFFCURVE",
"496 241 OFFCURVE",
"496 321 CURVE SMOOTH"
);
},
{
closed = 1;
nodes = (
"155 496 LINE",
"102 452 LINE",
"377 116 LINE",
"417 180 LINE"
);
}
);
width = 541;
}
);
rightKerningGroup = "at-olchiki";
unicode = 1C68;
},
{
glyphname = "lu-olchiki";
lastChange = "2015-11-18 10:20:00 +0000";
layers = (
{
background = {
paths = (
{
closed = 1;
nodes = (
"47 371 LINE",
"119 341 LINE",
"119 639 LINE",
"47 639 LINE"
);
},
{
closed = 1;
nodes = (
"393 171 OFFCURVE",
"334 91 OFFCURVE",
"236 79 CURVE",
"119 180 LINE",
"47 152 LINE",
"222 0 LINE",
"364 13 OFFCURVE",
"466 118 OFFCURVE",
"466 261 CURVE",
"466 404 OFFCURVE",
"364 509 OFFCURVE",
"222 522 CURVE",
"61 382 LINE",
"119 341 LINE",
"236 443 LINE",
"334 431 OFFCURVE",
"393 351 OFFCURVE",
"393 261 CURVE"
);
}
);
};
layerId = "A591124E-510C-4EE7-8335-8E9FAE8FCE08";
name = Regular;
paths = (
{
closed = 1;
nodes = (
"47 374 LINE",
"119 341 LINE",
"114 390 LINE",
"119 470 LINE",
"119 639 LINE",
"47 639 LINE"
);
},
{
closed = 1;
nodes = (
"393 171 OFFCURVE",
"334 91 OFFCURVE",
"236 79 CURVE",
"88 207 LINE",
"40 159 LINE",
"222 0 LINE",
"364 13 OFFCURVE",
"466 118 OFFCURVE",
"466 261 CURVE",
"466 404 OFFCURVE",
"364 509 OFFCURVE",
"222 522 CURVE",
"61 382 LINE",
"119 341 LINE",
"236 443 LINE",
"334 431 OFFCURVE",
"393 351 OFFCURVE",
"393 261 CURVE"
);
}
);
width = 501;
}
);
rightKerningGroup = "aak-olchiki";
unicode = 1C69;
},
{
glyphname = "uc-olchiki";
lastChange = "2015-11-18 10:20:00 +0000";
layers = (
{
background = {
paths = (
{
closed = 1;
nodes = (
"1080 282 LINE",
"1041 225 LINE",
"1157 88 LINE",
"1226 107 LINE"
);
},
{
closed = 1;
nodes = (
"1065 -14 OFFCURVE",
"1156 29 OFFCURVE",
"1226 107 CURVE",
"1167 146 LINE",
"1122 102 OFFCURVE",
"1070 53 OFFCURVE",
"943 53 CURVE",
"816 53 OFFCURVE",
"764 102 OFFCURVE",
"719 146 CURVE",
"660 107 LINE",
"730 29 OFFCURVE",
"821 -14 OFFCURVE",
"943 -14 CURVE"
);
},
{
closed = 1;
nodes = (
"1001 157 OFFCURVE",
"1073 183 OFFCURVE",
"1117 226 CURVE",
"1080 282 LINE",
"1052 253 OFFCURVE",
"997 223 OFFCURVE",
"943 223 CURVE",
"889 223 OFFCURVE",
"834 253 OFFCURVE",
"806 282 CURVE",
"769 226 LINE",
"813 183 OFFCURVE",
"885 157 OFFCURVE",
"943 157 CURVE"
);
},
{
closed = 1;
nodes = (
"729 88 LINE",
"845 225 LINE",
"806 282 LINE",
"660 107 LINE"
);
},
{
closed = 1;
nodes = (
"1109 585 OFFCURVE",
"1018 636 OFFCURVE",
"943 636 CURVE",
"868 636 OFFCURVE",
"778 584 OFFCURVE",
"778 476 CURVE",
"778 197 LINE",
"843 197 LINE",
"843 466 LINE",
"843 537 OFFCURVE",
"887 570 OFFCURVE",
"943 570 CURVE",
"999 570 OFFCURVE",
"1044 533 OFFCURVE",
"1044 466 CURVE",
"1044 197 LINE",
"1109 197 LINE",
"1109 476 LINE"
);
},
{
closed = 1;
nodes = (
"440 282 LINE",
"399 225 LINE",
"515 88 LINE",
"586 107 LINE"
);
},
{
closed = 1;
nodes = (
"425 -14 OFFCURVE",
"516 29 OFFCURVE",
"586 107 CURVE",
"527 149 LINE",
"482 105 OFFCURVE",
"430 55 OFFCURVE",
"303 55 CURVE",
"176 55 OFFCURVE",
"124 105 OFFCURVE",
"79 149 CURVE",
"20 107 LINE",
"90 29 OFFCURVE",
"181 -14 OFFCURVE",
"303 -14 CURVE"
);
},
{
closed = 1;
nodes = (
"361 154 OFFCURVE",
"433 180 OFFCURVE",
"477 223 CURVE",
"440 282 LINE",
"412 253 OFFCURVE",
"357 223 OFFCURVE",
"303 223 CURVE",
"249 223 OFFCURVE",
"194 253 OFFCURVE",
"166 282 CURVE",
"129 223 LINE",
"173 180 OFFCURVE",
"245 154 OFFCURVE",
"303 154 CURVE"
);
},
{
closed = 1;
nodes = (
"91 88 LINE",
"207 225 LINE",
"166 282 LINE",
"20 107 LINE"
);
},
{
closed = 1;
nodes = (
"469 585 OFFCURVE",
"378 636 OFFCURVE",
"303 636 CURVE",
"228 636 OFFCURVE",
"138 584 OFFCURVE",
"138 456 CURVE",
"138 197 LINE",
"206 197 LINE",
"206 446 LINE",
"206 542 OFFCURVE",
"250 567 OFFCURVE",
"303 567 CURVE",
"356 567 OFFCURVE",
"401 538 OFFCURVE",
"401 446 CURVE",
"401 197 LINE",
"469 197 LINE",
"469 456 LINE"
);
}
);
};
guideLines = (
{
angle = 90;
position = "{303, 223}";
}
);
layerId = "A591124E-510C-4EE7-8335-8E9FAE8FCE08";
name = Regular;
paths = (
{
closed = 1;
nodes = (
"440 282 LINE",
"399 225 LINE",
"515 88 LINE",
"586 107 LINE"
);
},
{
closed = 1;
nodes = (
"425 -14 OFFCURVE",
"516 29 OFFCURVE",
"586 107 CURVE",
"527 149 LINE",
"482 105 OFFCURVE",
"430 55 OFFCURVE",
"303 55 CURVE",
"176 55 OFFCURVE",
"124 105 OFFCURVE",
"79 149 CURVE",
"20 107 LINE",
"90 29 OFFCURVE",
"181 -14 OFFCURVE",
"303 -14 CURVE"
);
},
{
closed = 1;
nodes = (
"361 154 OFFCURVE",
"433 180 OFFCURVE",
"477 223 CURVE",
"440 282 LINE",
"412 253 OFFCURVE",
"357 223 OFFCURVE",
"303 223 CURVE",
"249 223 OFFCURVE",
"194 253 OFFCURVE",
"166 282 CURVE",
"129 223 LINE",
"173 180 OFFCURVE",
"245 154 OFFCURVE",
"303 154 CURVE"
);
},
{
closed = 1;
nodes = (
"91 88 LINE",
"207 225 LINE",
"166 282 LINE",
"20 107 LINE"
);
},
{
closed = 1;
nodes = (
"469 605 OFFCURVE",
"378 656 OFFCURVE",
"303 656 CURVE",
"228 656 OFFCURVE",
"138 604 OFFCURVE",
"138 476 CURVE",
"138 197 LINE",
"206 197 LINE",
"206 466 LINE",
"206 562 OFFCURVE",
"250 587 OFFCURVE",
"303 587 CURVE",
"356 587 OFFCURVE",
"401 558 OFFCURVE",
"401 466 CURVE",
"401 197 LINE",
"469 197 LINE",
"469 476 LINE"
);
}
);
width = 606;
}
);
unicode = 1C6A;
},
{
color = 3;
glyphname = "ud-olchiki";
lastChange = "2015-11-18 10:20:29 +0000";
layers = (
{
background = {
paths = (
{
closed = 1;
nodes = (
"239 214 LINE",
"313 181 LINE",
"313 479 LINE",
"239 479 LINE"
);
},
{
closed = 1;
nodes = (
"357 -14 OFFCURVE",
"427 19 OFFCURVE",
"472 158 CURVE",
"404 186 LINE",
"378 102 OFFCURVE",
"350 56 OFFCURVE",
"275 56 CURVE",
"215 56 OFFCURVE",
"173 112 OFFCURVE",
"157 226 CURVE",
"87 197 LINE",
"122 28 OFFCURVE",
"199 -14 OFFCURVE",
"275 -14 CURVE"
);
},
{
closed = 1;
nodes = (
"133 250 LINE",
"87 197 LINE",
"293 127 LINE",
"313 141 LINE",
"313 194 LINE"
);
},
{
closed = 1;
nodes = (
"354 552 OFFCURVE",
"452 492 OFFCURVE",
"452 447 CURVE",
"452 402 OFFCURVE",
"413 388 OFFCURVE",
"368 372 CURVE",
"393 307 LINE",
"468 331 OFFCURVE",
"528 373 OFFCURVE",
"528 441 CURVE",
"528 536 OFFCURVE",
"409 602 OFFCURVE",
"274 647 CURVE",
"139 602 OFFCURVE",
"20 536 OFFCURVE",
"20 441 CURVE",
"20 373 OFFCURVE",
"80 331 OFFCURVE",
"155 307 CURVE",
"180 372 LINE",
"135 388 OFFCURVE",
"96 402 OFFCURVE",
"96 447 CURVE",
"96 492 OFFCURVE",
"194 552 OFFCURVE",
"274 572 CURVE"
);
}
);
};
guideLines = (
{
angle = 90.1496;
position = "{275, 152}";
}
);
layerId = "A591124E-510C-4EE7-8335-8E9FAE8FCE08";
name = Regular;
paths = (
{
closed = 1;
nodes = (
"242 214 LINE",
"311 181 LINE",
"311 479 LINE",
"242 479 LINE"
);
},
{
closed = 1;
nodes = (
"404 186 LINE",
"388 102 OFFCURVE",
"335 55 OFFCURVE",
"255 55 CURVE SMOOTH",
"216 55 OFFCURVE",
"164 76 OFFCURVE",
"164 120 CURVE",
"164 147 OFFCURVE",
"181 155 OFFCURVE",
"205 155 CURVE SMOOTH",
"234 155 OFFCURVE",
"260 141 OFFCURVE",
"292 127 CURVE",
"311 141 LINE",
"311 188 LINE",
"263 211 OFFCURVE",
"226 224 OFFCURVE",
"195 224 CURVE SMOOTH",
"120 224 OFFCURVE",
"90 172 OFFCURVE",
"90 126 CURVE",
"90 28 OFFCURVE",
"175 -14 OFFCURVE",
"254 -14 CURVE SMOOTH",
"357 -14 OFFCURVE",
"437 39 OFFCURVE",
"472 158 CURVE"
);
},
{
closed = 1;
nodes = (
"409 602 OFFCURVE",
"528 536 OFFCURVE",
"528 441 CURVE",
"528 373 OFFCURVE",
"468 331 OFFCURVE",
"393 307 CURVE",
"368 372 LINE",
"413 388 OFFCURVE",
"453 402 OFFCURVE",
"453 442 CURVE",
"453 492 OFFCURVE",
"354 552 OFFCURVE",
"274 572 CURVE",
"194 552 OFFCURVE",
"95 492 OFFCURVE",
"95 442 CURVE",
"95 402 OFFCURVE",
"135 388 OFFCURVE",
"180 372 CURVE",
"155 307 LINE",
"80 331 OFFCURVE",
"20 373 OFFCURVE",
"20 441 CURVE",
"20 536 OFFCURVE",
"139 602 OFFCURVE",
"274 647 CURVE"
);
}
);
width = 548;
}
);
unicode = 1C6B;
},
{
glyphname = "unn-olchiki";
lastChange = "2015-11-18 10:20:00 +0000";
layers = (
{
background = {
paths = (
{
closed = 1;
nodes = (
"581 62 OFFCURVE",
"645 180 OFFCURVE",
"645 308 CURVE SMOOTH",
"645 455 OFFCURVE",
"576 581 OFFCURVE",
"473 631 CURVE",
"345 452 LINE",
"217 631 LINE",
"114 581 OFFCURVE",
"48 455 OFFCURVE",
"48 308 CURVE SMOOTH",
"48 180 OFFCURVE",
"112 62 OFFCURVE",
"176 -4 CURVE",
"233 44 LINE",
"194 84 OFFCURVE",
"122 185 OFFCURVE",
"122 314 CURVE SMOOTH",
"122 396 OFFCURVE",
"150 478 OFFCURVE",
"201 529 CURVE",
"323 361 LINE",
"367 361 LINE",
"489 529 LINE",
"540 478 OFFCURVE",
"568 396 OFFCURVE",
"568 314 CURVE SMOOTH",
"568 185 OFFCURVE",
"496 84 OFFCURVE",
"457 44 CURVE",
"517 -4 LINE"
);
}
);
};
layerId = "A591124E-510C-4EE7-8335-8E9FAE8FCE08";
name = Regular;
paths = (
{
closed = 1;
nodes = (
"114 581 OFFCURVE",
"45 455 OFFCURVE",
"45 308 CURVE SMOOTH",
"45 180 OFFCURVE",
"109 62 OFFCURVE",
"173 -4 CURVE",
"233 44 LINE",
"194 84 OFFCURVE",
"122 185 OFFCURVE",
"122 314 CURVE SMOOTH",
"122 396 OFFCURVE",
"150 478 OFFCURVE",
"201 529 CURVE",
"323 361 LINE",
"367 361 LINE",
"489 529 LINE",
"540 478 OFFCURVE",
"568 396 OFFCURVE",
"568 314 CURVE SMOOTH",
"568 185 OFFCURVE",
"496 84 OFFCURVE",
"457 44 CURVE",
"517 -4 LINE",
"581 62 OFFCURVE",
"645 180 OFFCURVE",
"645 308 CURVE SMOOTH",
"645 455 OFFCURVE",
"576 581 OFFCURVE",
"473 631 CURVE",
"345 452 LINE",
"217 631 LINE"
);
}
);
width = 690;
}
);
leftKerningGroup = "at-olchiki";
rightKerningGroup = "at-olchiki";
unicode = 1C6C;
},
{
glyphname = "uy-olchiki";
lastChange = "2015-11-18 10:20:00 +0000";
layers = (
{
background = {
paths = (
{
closed = 1;
nodes = (
"833 35 LINE",
"795 75 OFFCURVE",
"729 175 OFFCURVE",
"729 304 CURVE SMOOTH",
"729 445 OFFCURVE",
"801 573 OFFCURVE",
"940 568 CURVE",
"1039 568 OFFCURVE",
"1103 505 OFFCURVE",
"1123 406 CURVE",
"1103 410 OFFCURVE",
"1079 413 OFFCURVE",
"1057 413 CURVE SMOOTH",
"926 413 OFFCURVE",
"867 309 OFFCURVE",
"867 210 CURVE SMOOTH",
"867 90 OFFCURVE",
"915 -15 OFFCURVE",
"1044 -15 CURVE SMOOTH",
"1106 -15 OFFCURVE",
"1171 26 OFFCURVE",
"1203 114 CURVE",
"1140 146 LINE",
"1114 91 OFFCURVE",
"1089 59 OFFCURVE",
"1041 59 CURVE SMOOTH",
"979 59 OFFCURVE",
"941 103 OFFCURVE",
"941 209 CURVE SMOOTH",
"941 268 OFFCURVE",
"972 340 OFFCURVE",
"1059 340 CURVE SMOOTH",
"1118 340 OFFCURVE",
"1147 325 OFFCURVE",
"1189 315 CURVE",
"1205 330 LINE",
"1198 526 OFFCURVE",
"1095 642 OFFCURVE",
"938 642 CURVE SMOOTH",
"760 642 OFFCURVE",
"655 503 OFFCURVE",
"655 298 CURVE SMOOTH",
"655 170 OFFCURVE",
"716 53 OFFCURVE",
"774 -13 CURVE"
);
},
{
closed = 1;
nodes = (
"194 21 LINE",
"156 81 OFFCURVE",
"119 175 OFFCURVE",
"119 304 CURVE SMOOTH",
"119 445 OFFCURVE",
"181 573 OFFCURVE",
"320 568 CURVE",
"419 568 OFFCURVE",
"483 505 OFFCURVE",
"503 406 CURVE",
"483 410 OFFCURVE",
"459 413 OFFCURVE",
"437 413 CURVE SMOOTH",
"311 413 OFFCURVE",
"247 309 OFFCURVE",
"247 210 CURVE SMOOTH",
"247 90 OFFCURVE",
"290 -15 OFFCURVE",
"419 -15 CURVE SMOOTH",
"481 -15 OFFCURVE",
"552 25 OFFCURVE",
"584 113 CURVE",
"520 146 LINE",
"494 91 OFFCURVE",
"464 59 OFFCURVE",
"416 59 CURVE SMOOTH",
"354 59 OFFCURVE",
"321 103 OFFCURVE",
"321 209 CURVE SMOOTH",
"321 268 OFFCURVE",
"357 340 OFFCURVE",
"439 340 CURVE SMOOTH",
"498 340 OFFCURVE",
"527 325 OFFCURVE",
"569 315 CURVE",
"585 330 LINE",
"578 526 OFFCURVE",
"475 642 OFFCURVE",
"318 642 CURVE SMOOTH",
"140 642 OFFCURVE",
"45 503 OFFCURVE",
"45 298 CURVE SMOOTH",
"45 170 OFFCURVE",
"76 73 OFFCURVE",
"124 -13 CURVE"
);
}
);
};
layerId = "A591124E-510C-4EE7-8335-8E9FAE8FCE08";
name = Regular;
paths = (
{
closed = 1;
nodes = (
"45 170 OFFCURVE",
"76 73 OFFCURVE",
"124 -13 CURVE",
"193 20 LINE",
"158 80 OFFCURVE",
"119 175 OFFCURVE",
"119 304 CURVE",
"119 445 OFFCURVE",
"181 581 OFFCURVE",
"320 576 CURVE",
"419 576 OFFCURVE",
"483 505 OFFCURVE",
"503 406 CURVE",
"483 410 OFFCURVE",
"459 413 OFFCURVE",
"437 413 CURVE SMOOTH",
"311 413 OFFCURVE",
"247 309 OFFCURVE",
"247 210 CURVE SMOOTH",
"247 90 OFFCURVE",
"290 -15 OFFCURVE",
"419 -15 CURVE SMOOTH",
"481 -15 OFFCURVE",
"552 25 OFFCURVE",
"584 113 CURVE",
"520 146 LINE",
"494 91 OFFCURVE",
"464 59 OFFCURVE",
"416 59 CURVE SMOOTH",
"354 59 OFFCURVE",
"321 103 OFFCURVE",
"321 209 CURVE SMOOTH",
"321 268 OFFCURVE",
"357 340 OFFCURVE",
"439 340 CURVE SMOOTH",
"498 340 OFFCURVE",
"527 325 OFFCURVE",
"569 315 CURVE",
"585 330 LINE",
"578 526 OFFCURVE",
"475 650 OFFCURVE",
"318 650 CURVE SMOOTH",
"140 650 OFFCURVE",
"45 503 OFFCURVE",
"45 298 CURVE"
);
}
);
width = 620;
}
);
leftKerningGroup = "at-olchiki";
unicode = 1C6D;
},
{
glyphname = "le-olchiki";
lastChange = "2015-11-18 10:20:00 +0000";
layers = (
{
background = {
paths = (
{
closed = 1;
nodes = (
"1061 -628 LINE",
"1017 -672 OFFCURVE",
"968 -708 OFFCURVE",
"877 -708 CURVE SMOOTH",
"827 -708 OFFCURVE",
"803 -700 OFFCURVE",
"765 -680 CURVE",
"1135 -258 LINE",
"1058 -182 OFFCURVE",
"973 -153 OFFCURVE",
"885 -153 CURVE SMOOTH",
"790 -153 OFFCURVE",
"689 -191 OFFCURVE",
"628 -275 CURVE",
"700 -331 LINE",
"745 -287 OFFCURVE",
"794 -251 OFFCURVE",
"885 -251 CURVE SMOOTH",
"934 -251 OFFCURVE",
"959 -258 OFFCURVE",
"997 -278 CURVE",
"627 -700 LINE",
"704 -777 OFFCURVE",
"789 -806 OFFCURVE",
"877 -806 CURVE SMOOTH",
"972 -806 OFFCURVE",
"1073 -767 OFFCURVE",
"1134 -684 CURVE"
);
},
{
closed = 1;
nodes = (
"1070 -637 LINE",
"1025 -681 OFFCURVE",
"973 -726 OFFCURVE",
"880 -726 CURVE SMOOTH",
"830 -726 OFFCURVE",
"790 -717 OFFCURVE",
"753 -691 CURVE",
"1134 -255 LINE",
"1038 -175 OFFCURVE",
"973 -154 OFFCURVE",
"882 -154 CURVE SMOOTH",
"790 -154 OFFCURVE",
"695 -191 OFFCURVE",
"629 -272 CURVE",
"692 -329 LINE",
"737 -285 OFFCURVE",
"789 -240 OFFCURVE",
"882 -240 CURVE SMOOTH",
"932 -240 OFFCURVE",
"972 -249 OFFCURVE",
"1009 -275 CURVE",
"628 -711 LINE",
"729 -793 OFFCURVE",
"788 -812 OFFCURVE",
"880 -812 CURVE SMOOTH",
"972 -812 OFFCURVE",
"1067 -775 OFFCURVE",
"1133 -694 CURVE"
);
},
{
closed = 1;
nodes = (
"95 -774 OFFCURVE",
"187 -814 OFFCURVE",
"281 -814 CURVE SMOOTH",
"373 -814 OFFCURVE",
"468 -771 OFFCURVE",
"534 -694 CURVE",
"474 -640 LINE",
"429 -684 OFFCURVE",
"374 -734 OFFCURVE",
"281 -734 CURVE SMOOTH",
"230 -734 OFFCURVE",
"183 -718 OFFCURVE",
"146 -691 CURVE",
"486 -251 LINE",
"423 -205 LINE",
"179 -521 LINE",
"109 -621 LINE",
"33 -705 LINE"
);
},
{
closed = 1;
nodes = (
"474 -640 LINE",
"429 -684 OFFCURVE",
"373 -734 OFFCURVE",
"280 -734 CURVE SMOOTH",
"230 -734 OFFCURVE",
"190 -717 OFFCURVE",
"153 -691 CURVE",
"534 -255 LINE",
"438 -175 OFFCURVE",
"373 -154 OFFCURVE",
"282 -154 CURVE SMOOTH",
"190 -154 OFFCURVE",
"95 -191 OFFCURVE",
"29 -272 CURVE",
"92 -329 LINE",
"137 -285 OFFCURVE",
"189 -240 OFFCURVE",
"282 -240 CURVE SMOOTH",
"332 -240 OFFCURVE",
"372 -249 OFFCURVE",
"409 -275 CURVE",
"28 -711 LINE",
"129 -793 OFFCURVE",
"188 -814 OFFCURVE",
"280 -814 CURVE SMOOTH",
"372 -814 OFFCURVE",
"467 -771 OFFCURVE",
"533 -693 CURVE"
);
},
{
closed = 0;
nodes = (
"415 -268 LINE",
"35 -716 LINE",
"127 -791 OFFCURVE",
"188 -814 OFFCURVE",
"280 -814 CURVE SMOOTH",
"372 -814 OFFCURVE",
"467 -771 OFFCURVE",
"533 -693 CURVE",
"474 -640 LINE",
"429 -684 OFFCURVE",
"373 -734 OFFCURVE",
"280 -734 CURVE SMOOTH",
"230 -734 OFFCURVE",
"186 -721 OFFCURVE",
"149 -695 CURVE",
"536 -252 LINE",
"444 -177 OFFCURVE",
"383 -154 OFFCURVE",
"291 -154 CURVE SMOOTH",
"199 -154 OFFCURVE",
"104 -197 OFFCURVE",
"38 -275 CURVE",
"97 -328 LINE",
"142 -284 OFFCURVE",
"198 -234 OFFCURVE",
"291 -234 CURVE SMOOTH",
"341 -234 OFFCURVE",
"385 -247 OFFCURVE",
"422 -273 CURVE"
);
},
{
closed = 0;
nodes = (
"541 537 LINE",
"479 606 OFFCURVE",
"387 646 OFFCURVE",
"293 646 CURVE SMOOTH",
"201 646 OFFCURVE",
"106 603 OFFCURVE",
"40 526 CURVE",
"96 476 LINE",
"141 520 OFFCURVE",
"200 572 OFFCURVE",
"293 572 CURVE SMOOTH",
"354 572 OFFCURVE",
"399 552 OFFCURVE",
"436 525 CURVE"
);
},
{
closed = 0;
nodes = (
"35 95 LINE",
"97 26 OFFCURVE",
"189 -14 OFFCURVE",
"283 -14 CURVE SMOOTH",
"375 -14 OFFCURVE",
"470 29 OFFCURVE",
"536 106 CURVE",
"480 156 LINE",
"435 112 OFFCURVE",
"376 60 OFFCURVE",
"283 60 CURVE SMOOTH",
"222 60 OFFCURVE",
"177 80 OFFCURVE",
"140 107 CURVE"
);
}
);
};
layerId = "A591124E-510C-4EE7-8335-8E9FAE8FCE08";
name = Regular;
paths = (
{
closed = 1;
nodes = (
"35 84 LINE",
"127 9 OFFCURVE",
"188 -14 OFFCURVE",
"280 -14 CURVE SMOOTH",
"372 -14 OFFCURVE",
"467 29 OFFCURVE",
"533 107 CURVE",
"478 156 LINE",
"433 112 OFFCURVE",
"377 61 OFFCURVE",
"280 61 CURVE SMOOTH",
"230 61 OFFCURVE",
"182 74 OFFCURVE",
"145 100 CURVE",
"528 549 LINE",
"447 620 OFFCURVE",
"383 646 OFFCURVE",
"291 646 CURVE SMOOTH",
"199 646 OFFCURVE",
"103 601 OFFCURVE",
"38 525 CURVE",
"93 476 LINE",
"138 520 OFFCURVE",
"198 573 OFFCURVE",
"291 573 CURVE SMOOTH",
"341 573 OFFCURVE",
"389 558 OFFCURVE",
"419 537 CURVE"
);
}
);
width = 568;
}
);
unicode = 1C6E;
},
{
color = 3;
glyphname = "ep-olchiki";
lastChange = "2015-11-18 10:20:29 +0000";
layers = (
{
background = {
paths = (
{
closed = 1;
nodes = (
"205 582 OFFCURVE",
"130 527 OFFCURVE",
"85 483 CURVE",
"30 532 LINE",
"95 608 OFFCURVE",
"206 653 OFFCURVE",
"318 653 CURVE",
"430 653 OFFCURVE",
"526 608 OFFCURVE",
"591 532 CURVE",
"536 483 LINE",
"491 527 OFFCURVE",
"431 582 OFFCURVE",
"318 582 CURVE"
);
},
{
closed = 1;
nodes = (
"431 57 OFFCURVE",
"506 112 OFFCURVE",
"551 156 CURVE",
"606 107 LINE",
"541 31 OFFCURVE",
"430 -14 OFFCURVE",
"318 -14 CURVE",
"206 -14 OFFCURVE",
"110 31 OFFCURVE",
"45 107 CURVE",
"100 156 LINE",
"145 112 OFFCURVE",
"205 57 OFFCURVE",
"318 57 CURVE"
);
},
{
closed = 1;
nodes = (
"416 36 LINE",
"416 443 LINE",
"525 562 LINE",
"591 532 LINE",
"487 418 LINE",
"487 171 LINE",
"482 36 LINE"
);
},
{
closed = 1;
nodes = (
"220 603 LINE",
"220 196 LINE",
"111 77 LINE",
"45 107 LINE",
"149 221 LINE",
"149 468 LINE",
"154 603 LINE"
);
}
);
};
layerId = "A591124E-510C-4EE7-8335-8E9FAE8FCE08";
name = Regular;
paths = (
{
closed = 1;
nodes = (
"30 545 LINE",
"86 589 OFFCURVE",
"184 653 OFFCURVE",
"344 653 CURVE SMOOTH",
"496 653 OFFCURVE",
"595 603 OFFCURVE",
"595 515 CURVE",
"595 469 OFFCURVE",
"569 430 OFFCURVE",
"491 403 CURVE",
"491 171 LINE",
"486 36 LINE",
"420 36 LINE",
"420 453 LINE",
"482 467 OFFCURVE",
"519 487 OFFCURVE",
"519 514 CURVE",
"519 554 OFFCURVE",
"451 583 OFFCURVE",
"344 583 CURVE SMOOTH",
"287 583 OFFCURVE",
"241 573 OFFCURVE",
"202 559 CURVE",
"179 550 LINE",
"131 530 OFFCURVE",
"97 504 OFFCURVE",
"73 486 CURVE"
);
},
{
closed = 1;
nodes = (
"615 94 LINE",
"559 50 OFFCURVE",
"461 -14 OFFCURVE",
"301 -14 CURVE SMOOTH",
"149 -14 OFFCURVE",
"50 36 OFFCURVE",
"50 124 CURVE",
"50 170 OFFCURVE",
"76 209 OFFCURVE",
"154 236 CURVE",
"154 468 LINE",
"159 603 LINE",
"225 603 LINE",
"225 186 LINE",
"163 172 OFFCURVE",
"126 152 OFFCURVE",
"126 125 CURVE",
"126 85 OFFCURVE",
"194 56 OFFCURVE",
"301 56 CURVE SMOOTH",
"358 56 OFFCURVE",
"404 66 OFFCURVE",
"443 80 CURVE",
"466 89 LINE",
"514 109 OFFCURVE",
"548 135 OFFCURVE",
"572 153 CURVE"
);
}
);
width = 645;
}
);
unicode = 1C6F;
},
{
glyphname = "edd-olchiki";
lastChange = "2015-11-18 10:20:00 +0000";
layers = (
{
background = {
paths = (
{
closed = 1;
nodes = (
"434 -5 LINE",
"434 636 LINE",
"361 639 LINE",
"361 0 LINE"
);
},
{
closed = 1;
nodes = (
"584 3 LINE",
"648 69 OFFCURVE",
"715 177 OFFCURVE",
"715 305 CURVE SMOOTH",
"715 503 OFFCURVE",
"598 638 OFFCURVE",
"425 644 CURVE SMOOTH",
"404 645 OFFCURVE",
"380 642 OFFCURVE",
"361 639 CURVE",
"415 571 LINE",
"554 576 OFFCURVE",
"638 452 OFFCURVE",
"638 311 CURVE SMOOTH",
"638 182 OFFCURVE",
"566 91 OFFCURVE",
"527 51 CURVE"
);
},
{
closed = 1;
nodes = (
"211 631 LINE",
"147 565 OFFCURVE",
"80 457 OFFCURVE",
"80 329 CURVE SMOOTH",
"80 131 OFFCURVE",
"197 -4 OFFCURVE",
"370 -10 CURVE SMOOTH",
"391 -11 OFFCURVE",
"415 -8 OFFCURVE",
"434 -5 CURVE",
"380 63 LINE",
"241 58 OFFCURVE",
"157 182 OFFCURVE",
"157 323 CURVE SMOOTH",
"157 452 OFFCURVE",
"229 543 OFFCURVE",
"268 583 CURVE"
);
}
);
};
layerId = "A591124E-510C-4EE7-8335-8E9FAE8FCE08";
name = Regular;
paths = (
{
closed = 1;
nodes = (
"399 636 LINE",
"326 633 LINE",
"326 -8 LINE",
"399 -3 LINE"
);
},
{
closed = 1;
nodes = (
"542 523 OFFCURVE",
"603 443 OFFCURVE",
"603 320 CURVE SMOOTH",
"603 179 OFFCURVE",
"519 55 OFFCURVE",
"380 60 CURVE",
"326 -8 LINE",
"345 -12 OFFCURVE",
"364 -14 OFFCURVE",
"390 -13 CURVE SMOOTH",
"502 -9 OFFCURVE",
"574 36 OFFCURVE",
"624 115 CURVE SMOOTH",
"658 169 OFFCURVE",
"680 236 OFFCURVE",
"680 326 CURVE SMOOTH",
"680 457 OFFCURVE",
"615 562 OFFCURVE",
"549 628 CURVE",
"491 577 LINE"
);
},
{
closed = 1;
nodes = (
"183 105 OFFCURVE",
"122 185 OFFCURVE",
"122 308 CURVE SMOOTH",
"122 449 OFFCURVE",
"206 573 OFFCURVE",
"345 568 CURVE",
"399 636 LINE",
"380 640 OFFCURVE",
"361 642 OFFCURVE",
"335 641 CURVE SMOOTH",
"223 637 OFFCURVE",
"151 592 OFFCURVE",
"101 513 CURVE SMOOTH",
"67 459 OFFCURVE",
"45 392 OFFCURVE",
"45 302 CURVE SMOOTH",
"45 171 OFFCURVE",
"110 66 OFFCURVE",
"176 0 CURVE",
"234 51 LINE"
);
}
);
width = 725;
}
);
leftKerningGroup = "at-olchiki";
rightKerningGroup = "at-olchiki";
unicode = 1C70;
},
{
glyphname = "en-olchiki";
lastChange = "2015-11-18 10:20:00 +0000";
layers = (
{
background = {
paths = (
{
closed = 1;
nodes = (
"774 1023 LINE",
"774 1265 LINE",
"682 1265 LINE",
"682 810 LINE",
"756 810 LINE"
);
},
{
closed = 1;
nodes = (
"713 726 OFFCURVE",
"805 694 OFFCURVE",
"894 694 CURVE SMOOTH",
"988 694 OFFCURVE",
"1089 733 OFFCURVE",
"1150 816 CURVE",
"1078 872 LINE",
"1033 828 OFFCURVE",
"985 792 OFFCURVE",
"894 792 CURVE SMOOTH",
"843 792 OFFCURVE",
"809 802 OFFCURVE",
"772 823 CURVE",
"1102 1245 LINE",
"1026 1291 LINE",
"646 801 LINE"
);
},
{
closed = 1;
nodes = (
"809 1230 OFFCURVE",
"843 1252 OFFCURVE",
"919 1252 CURVE SMOOTH",
"1009 1252 OFFCURVE",
"1058 1216 OFFCURVE",
"1103 1172 CURVE",
"1175 1228 LINE",
"1114 1306 OFFCURVE",
"1022 1350 OFFCURVE",
"915 1350 CURVE SMOOTH",
"819 1350 OFFCURVE",
"743 1316 OFFCURVE",
"682 1265 CURVE",
"772 1209 LINE"
);
},
{
closed = 1;
nodes = (
"681 830 LINE",
"754 830 LINE",
"764 989 LINE",
"764 1265 LINE",
"681 1265 LINE"
);
},
{
closed = 1;
nodes = (
"712 720 OFFCURVE",
"804 688 OFFCURVE",
"893 688 CURVE SMOOTH",
"985 688 OFFCURVE",
"1080 725 OFFCURVE",
"1146 806 CURVE",
"1083 863 LINE",
"1038 819 OFFCURVE",
"986 774 OFFCURVE",
"893 774 CURVE SMOOTH",
"842 774 OFFCURVE",
"797 788 OFFCURVE",
"760 815 CURVE",
"1097 1245 LINE",
"1033 1292 LINE",
"791 982 LINE",
"721 879 LINE",
"645 795 LINE"
);
},
{
closed = 1;
nodes = (
"776 1244 OFFCURVE",
"840 1265 OFFCURVE",
"906 1265 CURVE SMOOTH",
"999 1265 OFFCURVE",
"1051 1220 OFFCURVE",
"1105 1167 CURVE",
"1166 1222 LINE",
"1090 1310 OFFCURVE",
"1000 1348 OFFCURVE",
"906 1348 CURVE SMOOTH",
"825 1348 OFFCURVE",
"745 1321 OFFCURVE",
"681 1265 CURVE",
"743 1199 LINE"
);
},
{
closed = 1;
nodes = (
"-519 830 LINE",
"-451 830 LINE",
"-441 989 LINE",
"-441 1336 LINE",
"-519 1336 LINE"
);
},
{
closed = 1;
nodes = (
"-493 726 OFFCURVE",
"-401 686 OFFCURVE",
"-307 686 CURVE SMOOTH",
"-215 686 OFFCURVE",
"-120 729 OFFCURVE",
"-54 806 CURVE",
"-114 860 LINE",
"-159 816 OFFCURVE",
"-214 766 OFFCURVE",
"-307 766 CURVE SMOOTH",
"-358 766 OFFCURVE",
"-405 782 OFFCURVE",
"-442 809 CURVE",
"-65 1297 LINE",
"-128 1343 LINE",
"-409 979 LINE",
"-479 879 LINE",
"-555 795 LINE"
);
},
{
closed = 0;
nodes = (
"-424 1225 LINE",
"-387 1252 OFFCURVE",
"-340 1268 OFFCURVE",
"-289 1268 CURVE SMOOTH",
"-196 1268 OFFCURVE",
"-141 1218 OFFCURVE",
"-96 1174 CURVE",
"-36 1228 LINE",
"-102 1305 OFFCURVE",
"-197 1348 OFFCURVE",
"-289 1348 CURVE SMOOTH",
"-383 1348 OFFCURVE",
"-475 1308 OFFCURVE",
"-537 1239 CURVE"
);
},
{
closed = 1;
nodes = (
"776 1244 OFFCURVE",
"842 1271 OFFCURVE",
"908 1271 CURVE SMOOTH",
"1001 1271 OFFCURVE",
"1057 1225 OFFCURVE",
"1111 1172 CURVE",
"1168 1223 LINE",
"1102 1301 OFFCURVE",
"1010 1348 OFFCURVE",
"906 1348 CURVE SMOOTH",
"825 1348 OFFCURVE",
"745 1316 OFFCURVE",
"681 1258 CURVE",
"743 1199 LINE"
);
},
{
closed = 1;
nodes = (
"681 830 LINE",
"749 830 LINE",
"759 989 LINE",
"759 1265 LINE",
"681 1258 LINE"
);
},
{
closed = 1;
nodes = (
"707 726 OFFCURVE",
"799 686 OFFCURVE",
"893 686 CURVE SMOOTH",
"985 686 OFFCURVE",
"1080 729 OFFCURVE",
"1146 806 CURVE",
"1086 860 LINE",
"1041 816 OFFCURVE",
"986 766 OFFCURVE",
"893 766 CURVE SMOOTH",
"842 766 OFFCURVE",
"795 782 OFFCURVE",
"758 809 CURVE",
"1098 1249 LINE",
"1035 1295 LINE",
"791 979 LINE",
"721 879 LINE",
"645 795 LINE"
);
},
{
closed = 1;
nodes = (
"176 1244 OFFCURVE",
"242 1271 OFFCURVE",
"308 1271 CURVE SMOOTH",
"401 1271 OFFCURVE",
"457 1225 OFFCURVE",
"511 1172 CURVE",
"568 1223 LINE",
"502 1301 OFFCURVE",
"410 1348 OFFCURVE",
"306 1348 CURVE SMOOTH",
"225 1348 OFFCURVE",
"145 1316 OFFCURVE",
"81 1258 CURVE",
"143 1199 LINE"
);
},
{
closed = 1;
nodes = (
"81 830 LINE",
"149 830 LINE",
"159 989 LINE",
"159 1265 LINE",
"81 1258 LINE"
);
},
{
closed = 1;
nodes = (
"107 726 OFFCURVE",
"199 686 OFFCURVE",
"293 686 CURVE SMOOTH",
"385 686 OFFCURVE",
"480 729 OFFCURVE",
"546 806 CURVE",
"486 860 LINE",
"441 816 OFFCURVE",
"386 766 OFFCURVE",
"293 766 CURVE SMOOTH",
"242 766 OFFCURVE",
"195 782 OFFCURVE",
"158 809 CURVE",
"498 1249 LINE",
"435 1295 LINE",
"191 979 LINE",
"121 879 LINE",
"45 795 LINE"
);
},
{
closed = 1;
nodes = (
"97 130 LINE",
"159 130 LINE",
"169 289 LINE",
"169 558 LINE",
"97 558 LINE"
);
},
{
closed = 1;
nodes = (
"107 26 OFFCURVE",
"199 -14 OFFCURVE",
"293 -14 CURVE SMOOTH",
"385 -14 OFFCURVE",
"480 29 OFFCURVE",
"546 106 CURVE",
"490 156 LINE",
"445 112 OFFCURVE",
"386 60 OFFCURVE",
"293 60 CURVE SMOOTH",
"232 60 OFFCURVE",
"187 80 OFFCURVE",
"150 107 CURVE",
"494 550 LINE",
"439 595 LINE",
"191 276 LINE",
"129 186 LINE",
"45 95 LINE"
);
},
{
closed = 1;
nodes = (
"192 550 OFFCURVE",
"248 577 OFFCURVE",
"314 577 CURVE SMOOTH",
"417 577 OFFCURVE",
"467 528 OFFCURVE",
"521 475 CURVE",
"574 523 LINE",
"508 601 OFFCURVE",
"416 648 OFFCURVE",
"312 648 CURVE SMOOTH",
"231 648 OFFCURVE",
"161 616 OFFCURVE",
"97 558 CURVE",
"159 511 LINE"
);
}
);
};
layerId = "A591124E-510C-4EE7-8335-8E9FAE8FCE08";
name = Regular;
paths = (
{
closed = 1;
nodes = (
"97 130 LINE",
"159 130 LINE",
"169 289 LINE",
"169 566 LINE",
"97 566 LINE"
);
},
{
closed = 1;
nodes = (
"107 26 OFFCURVE",
"199 -14 OFFCURVE",
"293 -14 CURVE SMOOTH",
"385 -14 OFFCURVE",
"480 29 OFFCURVE",
"546 106 CURVE",
"490 156 LINE",
"445 112 OFFCURVE",
"386 60 OFFCURVE",
"293 60 CURVE SMOOTH",
"232 60 OFFCURVE",
"187 80 OFFCURVE",
"150 107 CURVE",
"494 558 LINE",
"439 603 LINE",
"191 276 LINE",
"129 186 LINE",
"45 95 LINE"
);
},
{
closed = 1;
nodes = (
"192 558 OFFCURVE",
"248 585 OFFCURVE",
"314 585 CURVE SMOOTH",
"417 585 OFFCURVE",
"467 536 OFFCURVE",
"521 483 CURVE",
"574 531 LINE",
"508 609 OFFCURVE",
"416 656 OFFCURVE",
"312 656 CURVE SMOOTH",
"231 656 OFFCURVE",
"161 624 OFFCURVE",
"97 566 CURVE",
"159 519 LINE"
);
}
);
width = 599;
}
);
unicode = 1C71;
},
{
glyphname = "err-olchiki";
lastChange = "2015-11-18 10:20:00 +0000";
layers = (
{
background = {
paths = (
{
closed = 1;
nodes = (
"1135 110 LINE",
"1135 565 LINE",
"1043 565 LINE",
"1043 323 LINE",
"1061 110 LINE"
);
},
{
closed = 1;
nodes = (
"791 591 LINE",
"715 545 LINE",
"1045 123 LINE",
"1008 102 OFFCURVE",
"974 92 OFFCURVE",
"923 92 CURVE SMOOTH",
"832 92 OFFCURVE",
"784 128 OFFCURVE",
"739 172 CURVE",
"667 116 LINE",
"728 33 OFFCURVE",
"829 -6 OFFCURVE",
"923 -6 CURVE SMOOTH",
"1012 -6 OFFCURVE",
"1104 26 OFFCURVE",
"1171 101 CURVE"
);
},
{
closed = 1;
nodes = (
"1135 565 LINE",
"1074 616 OFFCURVE",
"998 650 OFFCURVE",
"902 650 CURVE SMOOTH",
"795 650 OFFCURVE",
"703 606 OFFCURVE",
"642 528 CURVE",
"714 472 LINE",
"759 516 OFFCURVE",
"808 552 OFFCURVE",
"898 552 CURVE SMOOTH",
"974 552 OFFCURVE",
"1008 530 OFFCURVE",
"1045 509 CURVE"
);
},
{
closed = 1;
nodes = (
"1091 616 OFFCURVE",
"999 648 OFFCURVE",
"910 648 CURVE SMOOTH",
"818 648 OFFCURVE",
"723 611 OFFCURVE",
"657 530 CURVE",
"720 473 LINE",
"765 517 OFFCURVE",
"817 562 OFFCURVE",
"910 562 CURVE SMOOTH",
"976 562 OFFCURVE",
"1028 550 OFFCURVE",
"1073 496 CURVE",
"1158 541 LINE"
);
},
{
closed = 1;
nodes = (
"1052 565 LINE",
"1052 289 LINE",
"1062 130 LINE",
"1135 130 LINE",
"1135 565 LINE"
);
},
{
closed = 1;
nodes = (
"783 592 LINE",
"719 545 LINE",
"1056 115 LINE",
"1019 88 OFFCURVE",
"974 74 OFFCURVE",
"923 74 CURVE SMOOTH",
"830 74 OFFCURVE",
"778 119 OFFCURVE",
"733 163 CURVE",
"670 106 LINE",
"736 25 OFFCURVE",
"831 -12 OFFCURVE",
"923 -12 CURVE SMOOTH",
"1012 -12 OFFCURVE",
"1104 20 OFFCURVE",
"1171 95 CURVE"
);
},
{
closed = 1;
nodes = (
"1135 565 LINE",
"1071 621 OFFCURVE",
"991 648 OFFCURVE",
"910 648 CURVE SMOOTH",
"816 648 OFFCURVE",
"724 613 OFFCURVE",
"650 522 CURVE",
"711 464 LINE",
"765 517 OFFCURVE",
"817 562 OFFCURVE",
"910 562 CURVE SMOOTH",
"976 562 OFFCURVE",
"1028 550 OFFCURVE",
"1073 496 CURVE"
);
},
{
closed = 1;
nodes = (
"1052 565 LINE",
"1052 289 LINE",
"1062 130 LINE",
"1135 130 LINE",
"1135 565 LINE"
);
},
{
closed = 1;
nodes = (
"1095 179 LINE",
"1025 282 LINE",
"783 592 LINE",
"719 545 LINE",
"1056 115 LINE",
"1019 88 OFFCURVE",
"974 74 OFFCURVE",
"923 74 CURVE SMOOTH",
"830 74 OFFCURVE",
"778 119 OFFCURVE",
"733 163 CURVE",
"670 106 LINE",
"736 25 OFFCURVE",
"831 -12 OFFCURVE",
"923 -12 CURVE SMOOTH",
"1012 -12 OFFCURVE",
"1104 20 OFFCURVE",
"1171 95 CURVE"
);
},
{
closed = 1;
nodes = (
"1135 565 LINE",
"1071 621 OFFCURVE",
"991 648 OFFCURVE",
"910 648 CURVE SMOOTH",
"816 648 OFFCURVE",
"726 610 OFFCURVE",
"650 522 CURVE",
"711 467 LINE",
"765 520 OFFCURVE",
"817 565 OFFCURVE",
"910 565 CURVE SMOOTH",
"976 565 OFFCURVE",
"1040 544 OFFCURVE",
"1073 499 CURVE"
);
},
{
closed = 1;
nodes = (
"507 504 LINE",
"445 504 LINE",
"445 345 LINE",
"435 76 LINE",
"507 76 LINE"
);
},
{
closed = 1;
nodes = (
"497 608 OFFCURVE",
"405 648 OFFCURVE",
"311 648 CURVE SMOOTH",
"219 648 OFFCURVE",
"124 605 OFFCURVE",
"58 528 CURVE",
"114 478 LINE",
"159 522 OFFCURVE",
"218 574 OFFCURVE",
"311 574 CURVE SMOOTH",
"372 574 OFFCURVE",
"417 554 OFFCURVE",
"454 527 CURVE",
"110 84 LINE",
"165 39 LINE",
"413 358 LINE",
"475 448 LINE",
"559 539 LINE"
);
},
{
closed = 1;
nodes = (
"412 84 OFFCURVE",
"356 57 OFFCURVE",
"290 57 CURVE SMOOTH",
"187 57 OFFCURVE",
"137 106 OFFCURVE",
"83 159 CURVE",
"30 111 LINE",
"96 33 OFFCURVE",
"188 -14 OFFCURVE",
"292 -14 CURVE SMOOTH",
"373 -14 OFFCURVE",
"443 18 OFFCURVE",
"507 76 CURVE",
"445 123 LINE"
);
}
);
};
layerId = "A591124E-510C-4EE7-8335-8E9FAE8FCE08";
name = Regular;
paths = (
{
closed = 1;
nodes = (
"507 512 LINE",
"445 512 LINE",
"445 353 LINE",
"435 76 LINE",
"507 76 LINE"
);
},
{
closed = 1;
nodes = (
"497 616 OFFCURVE",
"405 656 OFFCURVE",
"311 656 CURVE SMOOTH",
"219 656 OFFCURVE",
"124 613 OFFCURVE",
"58 536 CURVE",
"114 486 LINE",
"159 530 OFFCURVE",
"218 582 OFFCURVE",
"311 582 CURVE SMOOTH",
"372 582 OFFCURVE",
"417 562 OFFCURVE",
"454 535 CURVE",
"110 84 LINE",
"165 39 LINE",
"413 366 LINE",
"475 456 LINE",
"559 547 LINE"
);
},
{
closed = 1;
nodes = (
"412 84 OFFCURVE",
"356 57 OFFCURVE",
"290 57 CURVE SMOOTH",
"187 57 OFFCURVE",
"137 106 OFFCURVE",
"83 159 CURVE",
"30 111 LINE",
"96 33 OFFCURVE",
"188 -14 OFFCURVE",
"292 -14 CURVE SMOOTH",
"373 -14 OFFCURVE",
"443 18 OFFCURVE",
"507 76 CURVE",
"445 123 LINE"
);
}
);
width = 605;
}
);
unicode = 1C72;
},
{
glyphname = "lo-olchiki";
lastChange = "2015-11-18 10:20:00 +0000";
layers = (
{
background = {
paths = (
{
closed = 1;
nodes = (
"318 318 LINE",
"546 528 LINE",
"491 607 OFFCURVE",
"406 650 OFFCURVE",
"311 650 CURVE SMOOTH",
"181 650 OFFCURVE",
"69 569 OFFCURVE",
"30 428 CURVE",
"103 402 LINE",
"129 512 OFFCURVE",
"208 576 OFFCURVE",
"311 576 CURVE SMOOTH",
"362 576 OFFCURVE",
"408 560 OFFCURVE",
"444 530 CURVE",
"238 342 LINE",
"238 295 LINE",
"445 105 LINE",
"409 75 OFFCURVE",
"363 59 OFFCURVE",
"312 59 CURVE SMOOTH",
"209 59 OFFCURVE",
"130 123 OFFCURVE",
"104 233 CURVE",
"31 207 LINE",
"70 66 OFFCURVE",
"182 -15 OFFCURVE",
"312 -15 CURVE SMOOTH",
"407 -15 OFFCURVE",
"492 28 OFFCURVE",
"547 107 CURVE"
);
},
{
closed = 1;
nodes = (
"43 208 LINE",
"81 67 OFFCURVE",
"191 -15 OFFCURVE",
"316 -15 CURVE SMOOTH",
"477 -15 OFFCURVE",
"606 109 OFFCURVE",
"606 316 CURVE SMOOTH",
"606 525 OFFCURVE",
"477 650 OFFCURVE",
"316 650 CURVE SMOOTH",
"191 650 OFFCURVE",
"79 569 OFFCURVE",
"40 427 CURVE",
"113 402 LINE",
"139 512 OFFCURVE",
"219 576 OFFCURVE",
"316 576 CURVE SMOOTH",
"423 576 OFFCURVE",
"498 512 OFFCURVE",
"524 401 CURVE SMOOTH",
"531 375 OFFCURVE",
"559 347 OFFCURVE",
"559 316 CURVE SMOOTH",
"559 277 OFFCURVE",
"529 242 OFFCURVE",
"519 211 CURVE SMOOTH",
"488 114 OFFCURVE",
"417 59 OFFCURVE",
"316 59 CURVE SMOOTH",
"219 59 OFFCURVE",
"141 122 OFFCURVE",
"113 233 CURVE"
);
},
{
closed = 1;
nodes = (
"529 159 OFFCURVE",
"591 233 OFFCURVE",
"591 316 CURVE SMOOTH",
"591 399 OFFCURVE",
"529 473 OFFCURVE",
"436 473 CURVE SMOOTH",
"343 473 OFFCURVE",
"272 409 OFFCURVE",
"272 316 CURVE SMOOTH",
"272 223 OFFCURVE",
"343 159 OFFCURVE",
"436 159 CURVE SMOOTH"
);
},
{
closed = 1;
nodes = (
"390 229 OFFCURVE",
"351 265 OFFCURVE",
"351 316 CURVE SMOOTH",
"351 366 OFFCURVE",
"390 402 OFFCURVE",
"443 402 CURVE SMOOTH",
"500 402 OFFCURVE",
"534 363 OFFCURVE",
"534 316 CURVE SMOOTH",
"534 268 OFFCURVE",
"500 229 OFFCURVE",
"443 229 CURVE SMOOTH"
);
}
);
};
layerId = "A591124E-510C-4EE7-8335-8E9FAE8FCE08";
name = Regular;
paths = (
{
closed = 1;
nodes = (
"43 208 LINE",
"81 67 OFFCURVE",
"191 -15 OFFCURVE",
"316 -15 CURVE SMOOTH",
"477 -15 OFFCURVE",
"606 109 OFFCURVE",
"606 316 CURVE SMOOTH",
"606 525 OFFCURVE",
"477 650 OFFCURVE",
"316 650 CURVE SMOOTH",
"191 650 OFFCURVE",
"79 569 OFFCURVE",
"40 427 CURVE",
"113 402 LINE",
"139 512 OFFCURVE",
"219 576 OFFCURVE",
"316 576 CURVE SMOOTH",
"423 576 OFFCURVE",
"498 512 OFFCURVE",
"524 401 CURVE SMOOTH",
"531 375 OFFCURVE",
"559 347 OFFCURVE",
"559 316 CURVE SMOOTH",
"559 277 OFFCURVE",
"529 242 OFFCURVE",
"519 211 CURVE SMOOTH",
"488 114 OFFCURVE",
"417 59 OFFCURVE",
"316 59 CURVE SMOOTH",
"219 59 OFFCURVE",
"141 122 OFFCURVE",
"113 233 CURVE"
);
},
{
closed = 1;
nodes = (
"529 159 OFFCURVE",
"591 233 OFFCURVE",
"591 316 CURVE SMOOTH",
"591 399 OFFCURVE",
"529 473 OFFCURVE",
"436 473 CURVE SMOOTH",
"343 473 OFFCURVE",
"272 409 OFFCURVE",
"272 316 CURVE SMOOTH",
"272 223 OFFCURVE",
"343 159 OFFCURVE",
"436 159 CURVE SMOOTH"
);
},
{
closed = 1;
nodes = (
"534 269 OFFCURVE",
"500 230 OFFCURVE",
"443 230 CURVE SMOOTH",
"390 230 OFFCURVE",
"351 266 OFFCURVE",
"351 316 CURVE",
"351 366 OFFCURVE",
"390 402 OFFCURVE",
"443 402 CURVE SMOOTH",
"500 402 OFFCURVE",
"534 363 OFFCURVE",
"534 316 CURVE"
);
}
);
width = 651;
}
);
rightKerningGroup = "at-olchiki";
unicode = 1C73;
},
{
glyphname = "ott-olchiki";
lastChange = "2015-11-18 10:20:00 +0000";
layers = (
{
background = {
paths = (
{
closed = 1;
nodes = (
"454 34 OFFCURVE",
"560 129 OFFCURVE",
"560 316 CURVE SMOOTH",
"560 519 OFFCURVE",
"434 624 OFFCURVE",
"302 637 CURVE",
"186 485 LINE",
"90 347 LINE",
"139 308 LINE",
"332 558 LINE",
"405 538 OFFCURVE",
"483 466 OFFCURVE",
"483 316 CURVE SMOOTH",
"483 165 OFFCURVE",
"406 95 OFFCURVE",
"295 66 CURVE",
"321 -3 LINE"
);
},
{
closed = 1;
nodes = (
"142 0 LINE",
"142 636 LINE",
"67 636 LINE",
"67 0 LINE"
);
}
);
};
layerId = "A591124E-510C-4EE7-8335-8E9FAE8FCE08";
name = Regular;
paths = (
{
closed = 1;
nodes = (
"454 34 OFFCURVE",
"560 119 OFFCURVE",
"560 316 CURVE SMOOTH",
"560 519 OFFCURVE",
"434 624 OFFCURVE",
"302 637 CURVE",
"186 485 LINE",
"90 347 LINE",
"139 308 LINE",
"332 558 LINE",
"405 538 OFFCURVE",
"483 466 OFFCURVE",
"483 316 CURVE SMOOTH",
"483 159 OFFCURVE",
"407 100 OFFCURVE",
"296 68 CURVE",
"321 -3 LINE"
);
},
{
closed = 1;
nodes = (
"142 0 LINE",
"142 636 LINE",
"67 636 LINE",
"67 0 LINE"
);
}
);
width = 605;
}
);
leftKerningGroup = "al-olchiki";
rightKerningGroup = "at-olchiki";
unicode = 1C74;
},
{
glyphname = "ob-olchiki";
lastChange = "2015-11-18 10:20:00 +0000";
layers = (
{
background = {
paths = (
{
closed = 1;
nodes = (
"1689 151 OFFCURVE",
"1635 215 OFFCURVE",
"1635 310 CURVE SMOOTH",
"1635 466 OFFCURVE",
"1728 554 OFFCURVE",
"1864 540 CURVE",
"1918 639 LINE",
"1899 646 OFFCURVE",
"1885 646 OFFCURVE",
"1864 646 CURVE SMOOTH",
"1680 646 OFFCURVE",
"1540 523 OFFCURVE",
"1540 310 CURVE SMOOTH",
"1540 178 OFFCURVE",
"1613 80 OFFCURVE",
"1695 25 CURVE",
"1746 114 LINE"
);
},
{
closed = 1;
nodes = (
"2049 483 OFFCURVE",
"2103 413 OFFCURVE",
"2103 324 CURVE SMOOTH",
"2103 168 OFFCURVE",
"2010 80 OFFCURVE",
"1874 94 CURVE",
"1820 -5 LINE",
"1839 -12 OFFCURVE",
"1853 -12 OFFCURVE",
"1874 -12 CURVE SMOOTH",
"2058 -12 OFFCURVE",
"2198 111 OFFCURVE",
"2198 324 CURVE SMOOTH",
"2198 450 OFFCURVE",
"2131 547 OFFCURVE",
"2053 602 CURVE",
"1992 520 LINE"
);
},
{
closed = 1;
nodes = (
"1820 630 LINE",
"1820 -5 LINE",
"1918 4 LINE",
"1918 639 LINE"
);
},
{
closed = 1;
nodes = (
"1668 144 OFFCURVE",
"1618 215 OFFCURVE",
"1618 310 CURVE SMOOTH",
"1618 476 OFFCURVE",
"1711 574 OFFCURVE",
"1847 560 CURVE",
"1901 639 LINE",
"1882 644 OFFCURVE",
"1858 646 OFFCURVE",
"1837 646 CURVE SMOOTH",
"1663 646 OFFCURVE",
"1540 528 OFFCURVE",
"1540 310 CURVE SMOOTH",
"1540 188 OFFCURVE",
"1596 92 OFFCURVE",
"1678 37 CURVE",
"1725 107 LINE"
);
},
{
closed = 1;
nodes = (
"1818 -5 LINE",
"1901 -2 LINE",
"1901 639 LINE",
"1818 634 LINE"
);
},
{
closed = 1;
nodes = (
"2051 490 OFFCURVE",
"2101 419 OFFCURVE",
"2101 324 CURVE SMOOTH",
"2101 158 OFFCURVE",
"2008 60 OFFCURVE",
"1872 74 CURVE",
"1818 -5 LINE",
"1837 -10 OFFCURVE",
"1861 -12 OFFCURVE",
"1882 -12 CURVE SMOOTH",
"2056 -12 OFFCURVE",
"2179 106 OFFCURVE",
"2179 324 CURVE SMOOTH",
"2179 446 OFFCURVE",
"2123 542 OFFCURVE",
"2041 597 CURVE",
"1994 527 LINE"
);
},
{
closed = 1;
nodes = (
"1671 129 OFFCURVE",
"1620 205 OFFCURVE",
"1620 310 CURVE SMOOTH",
"1620 476 OFFCURVE",
"1716 574 OFFCURVE",
"1847 560 CURVE",
"1901 639 LINE",
"1882 642 OFFCURVE",
"1858 644 OFFCURVE",
"1837 644 CURVE SMOOTH",
"1663 644 OFFCURVE",
"1540 518 OFFCURVE",
"1540 310 CURVE SMOOTH",
"1540 191 OFFCURVE",
"1596 86 OFFCURVE",
"1678 31 CURVE",
"1728 92 LINE"
);
},
{
closed = 1;
nodes = (
"1823 -5 LINE",
"1901 -2 LINE",
"1901 639 LINE",
"1823 634 LINE"
);
},
{
closed = 1;
nodes = (
"2053 505 OFFCURVE",
"2104 429 OFFCURVE",
"2104 324 CURVE SMOOTH",
"2104 158 OFFCURVE",
"2008 60 OFFCURVE",
"1877 74 CURVE",
"1823 -5 LINE",
"1842 -8 OFFCURVE",
"1866 -10 OFFCURVE",
"1887 -10 CURVE SMOOTH",
"2061 -10 OFFCURVE",
"2184 116 OFFCURVE",
"2184 324 CURVE SMOOTH",
"2184 443 OFFCURVE",
"2128 548 OFFCURVE",
"2046 603 CURVE",
"1996 542 LINE"
);
},
{
closed = 1;
nodes = (
"1672 128 OFFCURVE",
"1614 185 OFFCURVE",
"1614 316 CURVE SMOOTH",
"1614 467 OFFCURVE",
"1698 576 OFFCURVE",
"1847 571 CURVE",
"1901 639 LINE",
"1882 642 OFFCURVE",
"1858 644 OFFCURVE",
"1837 644 CURVE SMOOTH",
"1663 644 OFFCURVE",
"1540 518 OFFCURVE",
"1540 310 CURVE SMOOTH",
"1540 182 OFFCURVE",
"1599 88 OFFCURVE",
"1681 33 CURVE",
"1725 91 LINE"
);
},
{
closed = 1;
nodes = (
"1829 -5 LINE",
"1901 -2 LINE",
"1901 639 LINE",
"1829 634 LINE"
);
},
{
closed = 1;
nodes = (
"2058 506 OFFCURVE",
"2116 449 OFFCURVE",
"2116 318 CURVE SMOOTH",
"2116 167 OFFCURVE",
"2032 58 OFFCURVE",
"1883 63 CURVE",
"1829 -5 LINE",
"1848 -8 OFFCURVE",
"1872 -10 OFFCURVE",
"1893 -10 CURVE SMOOTH",
"2067 -10 OFFCURVE",
"2190 116 OFFCURVE",
"2190 324 CURVE SMOOTH",
"2190 452 OFFCURVE",
"2131 546 OFFCURVE",
"2049 601 CURVE",
"2005 543 LINE"
);
},
{
closed = 1;
nodes = (
"1029 -5 LINE",
"1101 -2 LINE",
"1101 639 LINE",
"1029 634 LINE"
);
},
{
closed = 1;
nodes = (
"1234 543 OFFCURVE",
"1306 452 OFFCURVE",
"1306 323 CURVE SMOOTH",
"1306 182 OFFCURVE",
"1222 58 OFFCURVE",
"1083 63 CURVE",
"1029 -5 LINE",
"1048 -8 OFFCURVE",
"1072 -10 OFFCURVE",
"1093 -10 CURVE SMOOTH",
"1261 -10 OFFCURVE",
"1380 131 OFFCURVE",
"1380 329 CURVE SMOOTH",
"1380 457 OFFCURVE",
"1316 565 OFFCURVE",
"1252 631 CURVE",
"1195 583 LINE"
);
},
{
closed = 1;
nodes = (
"896 91 OFFCURVE",
"824 182 OFFCURVE",
"824 311 CURVE SMOOTH",
"824 452 OFFCURVE",
"908 576 OFFCURVE",
"1047 571 CURVE",
"1101 639 LINE",
"1082 642 OFFCURVE",
"1058 644 OFFCURVE",
"1037 644 CURVE SMOOTH",
"869 644 OFFCURVE",
"750 503 OFFCURVE",
"750 305 CURVE SMOOTH",
"750 177 OFFCURVE",
"814 69 OFFCURVE",
"878 3 CURVE",
"935 51 LINE"
);
},
{
closed = 1;
nodes = (
"326 -4 LINE",
"399 -1 LINE",
"399 640 LINE",
"326 635 LINE"
);
},
{
closed = 1;
nodes = (
"531 544 OFFCURVE",
"603 453 OFFCURVE",
"603 324 CURVE SMOOTH",
"603 183 OFFCURVE",
"519 59 OFFCURVE",
"380 64 CURVE",
"326 -4 LINE",
"345 -7 OFFCURVE",
"369 -10 OFFCURVE",
"390 -9 CURVE SMOOTH",
"563 -3 OFFCURVE",
"680 132 OFFCURVE",
"680 330 CURVE SMOOTH",
"680 458 OFFCURVE",
"613 566 OFFCURVE",
"549 632 CURVE",
"492 584 LINE"
);
},
{
closed = 1;
nodes = (
"194 92 OFFCURVE",
"122 183 OFFCURVE",
"122 312 CURVE SMOOTH",
"122 453 OFFCURVE",
"206 577 OFFCURVE",
"345 572 CURVE",
"399 640 LINE",
"380 644 OFFCURVE",
"361 646 OFFCURVE",
"335 645 CURVE SMOOTH",
"162 638 OFFCURVE",
"45 504 OFFCURVE",
"45 306 CURVE SMOOTH",
"45 178 OFFCURVE",
"112 70 OFFCURVE",
"176 4 CURVE",
"233 52 LINE"
);
}
);
};
layerId = "A591124E-510C-4EE7-8335-8E9FAE8FCE08";
name = Regular;
paths = (
{
closed = 1;
nodes = (
"326 -4 LINE",
"399 -1 LINE",
"399 640 LINE",
"326 635 LINE"
);
},
{
closed = 1;
nodes = (
"183 109 OFFCURVE",
"122 189 OFFCURVE",
"122 312 CURVE SMOOTH",
"122 453 OFFCURVE",
"206 577 OFFCURVE",
"345 572 CURVE",
"399 640 LINE",
"380 644 OFFCURVE",
"361 646 OFFCURVE",
"335 645 CURVE SMOOTH",
"223 641 OFFCURVE",
"151 596 OFFCURVE",
"101 517 CURVE SMOOTH",
"67 463 OFFCURVE",
"45 396 OFFCURVE",
"45 306 CURVE SMOOTH",
"45 175 OFFCURVE",
"110 70 OFFCURVE",
"176 4 CURVE",
"234 55 LINE"
);
},
{
closed = 1;
nodes = (
"542 527 OFFCURVE",
"603 447 OFFCURVE",
"603 324 CURVE SMOOTH",
"603 183 OFFCURVE",
"519 59 OFFCURVE",
"380 64 CURVE",
"326 -4 LINE",
"345 -8 OFFCURVE",
"364 -10 OFFCURVE",
"390 -9 CURVE SMOOTH",
"502 -5 OFFCURVE",
"574 40 OFFCURVE",
"624 119 CURVE SMOOTH",
"658 173 OFFCURVE",
"680 240 OFFCURVE",
"680 330 CURVE SMOOTH",
"680 461 OFFCURVE",
"615 566 OFFCURVE",
"549 632 CURVE",
"491 581 LINE"
);
}
);
width = 725;
}
);
leftKerningGroup = "at-olchiki";
rightKerningGroup = "at-olchiki";
unicode = 1C75;
},
{
glyphname = "ov-olchiki";
lastChange = "2015-11-18 10:20:00 +0000";
layers = (
{
background = {
paths = (
{
closed = 1;
nodes = (
"1211 323 LINE",
"1211 182 OFFCURVE",
"1139 54 OFFCURVE",
"1000 59 CURVE",
"901 59 OFFCURVE",
"837 122 OFFCURVE",
"817 221 CURVE",
"837 217 OFFCURVE",
"861 214 OFFCURVE",
"883 214 CURVE SMOOTH",
"1014 214 OFFCURVE",
"1073 318 OFFCURVE",
"1073 417 CURVE SMOOTH",
"1073 537 OFFCURVE",
"1025 642 OFFCURVE",
"896 642 CURVE SMOOTH",
"834 642 OFFCURVE",
"769 601 OFFCURVE",
"737 513 CURVE",
"800 481 LINE",
"826 536 OFFCURVE",
"851 568 OFFCURVE",
"899 568 CURVE SMOOTH",
"961 568 OFFCURVE",
"999 524 OFFCURVE",
"999 418 CURVE SMOOTH",
"999 359 OFFCURVE",
"968 287 OFFCURVE",
"881 287 CURVE SMOOTH",
"822 287 OFFCURVE",
"793 302 OFFCURVE",
"751 312 CURVE",
"735 297 LINE",
"742 101 OFFCURVE",
"845 -15 OFFCURVE",
"1002 -15 CURVE SMOOTH",
"1180 -15 OFFCURVE",
"1285 124 OFFCURVE",
"1285 329 CURVE"
);
},
{
closed = 1;
nodes = (
"470 419 LINE",
"480 173 OFFCURVE",
"395 54 OFFCURVE",
"283 59 CURVE",
"184 59 OFFCURVE",
"137 122 OFFCURVE",
"117 221 CURVE",
"137 217 OFFCURVE",
"161 214 OFFCURVE",
"183 214 CURVE SMOOTH",
"314 214 OFFCURVE",
"373 318 OFFCURVE",
"373 426 CURVE SMOOTH",
"373 537 OFFCURVE",
"329 642 OFFCURVE",
"200 642 CURVE SMOOTH",
"138 642 OFFCURVE",
"69 601 OFFCURVE",
"37 513 CURVE",
"100 481 LINE",
"126 536 OFFCURVE",
"155 568 OFFCURVE",
"203 568 CURVE SMOOTH",
"265 568 OFFCURVE",
"299 524 OFFCURVE",
"299 418 CURVE SMOOTH",
"299 359 OFFCURVE",
"268 287 OFFCURVE",
"181 287 CURVE SMOOTH",
"122 287 OFFCURVE",
"93 302 OFFCURVE",
"51 312 CURVE",
"35 297 LINE",
"42 101 OFFCURVE",
"128 -15 OFFCURVE",
"285 -15 CURVE SMOOTH",
"441 -15 OFFCURVE",
"554 124 OFFCURVE",
"544 419 CURVE"
);
},
{
closed = 1;
nodes = (
"538 479 OFFCURVE",
"559 501 OFFCURVE",
"559 532 CURVE SMOOTH",
"559 564 OFFCURVE",
"538 585 OFFCURVE",
"506 585 CURVE SMOOTH",
"474 585 OFFCURVE",
"453 564 OFFCURVE",
"453 532 CURVE SMOOTH",
"453 501 OFFCURVE",
"474 479 OFFCURVE",
"506 479 CURVE SMOOTH"
);
}
);
};
layerId = "A591124E-510C-4EE7-8335-8E9FAE8FCE08";
name = Regular;
paths = (
{
closed = 1;
nodes = (
"470 419 LINE",
"480 173 OFFCURVE",
"405 54 OFFCURVE",
"283 59 CURVE",
"184 59 OFFCURVE",
"135 123 OFFCURVE",
"115 230 CURVE",
"135 227 OFFCURVE",
"159 226 OFFCURVE",
"181 226 CURVE SMOOTH",
"312 226 OFFCURVE",
"373 318 OFFCURVE",
"373 435 CURVE SMOOTH",
"373 541 OFFCURVE",
"329 642 OFFCURVE",
"200 642 CURVE SMOOTH",
"138 642 OFFCURVE",
"69 601 OFFCURVE",
"37 513 CURVE",
"100 481 LINE",
"126 536 OFFCURVE",
"155 568 OFFCURVE",
"203 568 CURVE SMOOTH",
"265 568 OFFCURVE",
"299 524 OFFCURVE",
"299 432 CURVE SMOOTH",
"299 349 OFFCURVE",
"268 297 OFFCURVE",
"165 297 CURVE SMOOTH",
"122 297 OFFCURVE",
"93 303 OFFCURVE",
"51 312 CURVE",
"35 297 LINE",
"42 101 OFFCURVE",
"128 -15 OFFCURVE",
"285 -15 CURVE SMOOTH",
"451 -15 OFFCURVE",
"554 124 OFFCURVE",
"544 419 CURVE"
);
},
{
closed = 1;
nodes = (
"538 479 OFFCURVE",
"559 501 OFFCURVE",
"559 532 CURVE SMOOTH",
"559 564 OFFCURVE",
"538 585 OFFCURVE",
"506 585 CURVE SMOOTH",
"474 585 OFFCURVE",
"453 564 OFFCURVE",
"453 532 CURVE SMOOTH",
"453 501 OFFCURVE",
"474 479 OFFCURVE",
"506 479 CURVE SMOOTH"
);
}
);
width = 605;
}
);
unicode = 1C76;
},
{
glyphname = "oh-olchiki";
lastChange = "2015-11-18 10:20:00 +0000";
layers = (
{
background = {
paths = (
{
closed = 1;
nodes = (
"1454 583 LINE",
"1493 543 OFFCURVE",
"1565 442 OFFCURVE",
"1565 313 CURVE SMOOTH",
"1565 231 OFFCURVE",
"1537 149 OFFCURVE",
"1486 98 CURVE",
"1364 266 LINE",
"1320 266 LINE",
"1198 98 LINE",
"1147 149 OFFCURVE",
"1119 231 OFFCURVE",
"1119 313 CURVE SMOOTH",
"1119 442 OFFCURVE",
"1191 543 OFFCURVE",
"1230 583 CURVE",
"1173 631 LINE",
"1109 565 OFFCURVE",
"1045 447 OFFCURVE",
"1045 319 CURVE SMOOTH",
"1045 172 OFFCURVE",
"1111 46 OFFCURVE",
"1214 -4 CURVE",
"1342 175 LINE",
"1470 -4 LINE",
"1573 46 OFFCURVE",
"1639 172 OFFCURVE",
"1639 319 CURVE SMOOTH",
"1639 447 OFFCURVE",
"1575 565 OFFCURVE",
"1511 631 CURVE"
);
},
{
closed = 0;
nodes = (
"898 98 LINE",
"847 149 OFFCURVE",
"819 231 OFFCURVE",
"819 313 CURVE SMOOTH",
"819 338 OFFCURVE",
"822 362 OFFCURVE",
"826 385 CURVE",
"753 400 LINE",
"748 374 OFFCURVE",
"745 347 OFFCURVE",
"745 319 CURVE SMOOTH",
"745 172 OFFCURVE",
"811 46 OFFCURVE",
"914 -4 CURVE"
);
},
{
closed = 1;
nodes = (
"1147 149 OFFCURVE",
"1119 231 OFFCURVE",
"1119 313 CURVE SMOOTH",
"1119 351 OFFCURVE",
"1125 386 OFFCURVE",
"1135 418 CURVE",
"1064 443 LINE",
"1052 404 OFFCURVE",
"1045 362 OFFCURVE",
"1045 319 CURVE SMOOTH",
"1045 172 OFFCURVE",
"1111 46 OFFCURVE",
"1214 -4 CURVE",
"1342 175 LINE",
"1470 -4 LINE",
"1573 46 OFFCURVE",
"1639 172 OFFCURVE",
"1639 319 CURVE SMOOTH",
"1639 454 OFFCURVE",
"1570 637 OFFCURVE",
"1372 638 CURVE",
"1251 637 OFFCURVE",
"1172 592 OFFCURVE",
"1172 509 CURVE",
"1172 368 OFFCURVE",
"1377 325 OFFCURVE",
"1589 287 CURVE",
"1607 359 LINE",
"1503 375 OFFCURVE",
"1246 412 OFFCURVE",
"1246 505 CURVE",
"1246 550 OFFCURVE",
"1299 568 OFFCURVE",
"1371 568 CURVE",
"1499 568 OFFCURVE",
"1565 456 OFFCURVE",
"1565 313 CURVE SMOOTH",
"1565 231 OFFCURVE",
"1537 149 OFFCURVE",
"1486 98 CURVE",
"1364 266 LINE",
"1320 266 LINE",
"1198 98 LINE"
);
},
{
closed = 1;
nodes = (
"147 149 OFFCURVE",
"119 231 OFFCURVE",
"119 313 CURVE SMOOTH",
"119 351 OFFCURVE",
"125 386 OFFCURVE",
"135 418 CURVE",
"64 443 LINE",
"52 404 OFFCURVE",
"45 362 OFFCURVE",
"45 319 CURVE SMOOTH",
"45 172 OFFCURVE",
"111 46 OFFCURVE",
"214 -4 CURVE",
"342 165 LINE",
"470 -4 LINE",
"573 46 OFFCURVE",
"639 172 OFFCURVE",
"639 319 CURVE SMOOTH",
"639 454 OFFCURVE",
"540 648 OFFCURVE",
"345 648 CURVE",
"226 648 OFFCURVE",
"171 592 OFFCURVE",
"171 509 CURVE",
"171 348 OFFCURVE",
"362 282 OFFCURVE",
"589 259 CURVE",
"607 330 LINE",
"487 341 OFFCURVE",
"246 372 OFFCURVE",
"246 505 CURVE",
"246 550 OFFCURVE",
"269 578 OFFCURVE",
"341 578 CURVE",
"469 578 OFFCURVE",
"565 456 OFFCURVE",
"565 313 CURVE SMOOTH",
"565 231 OFFCURVE",
"537 149 OFFCURVE",
"486 98 CURVE",
"364 256 LINE",
"320 256 LINE",
"198 98 LINE"
);
}
);
};
layerId = "A591124E-510C-4EE7-8335-8E9FAE8FCE08";
name = Regular;
paths = (
{
closed = 1;
nodes = (
"147 149 OFFCURVE",
"119 231 OFFCURVE",
"119 313 CURVE SMOOTH",
"119 351 OFFCURVE",
"125 386 OFFCURVE",
"135 418 CURVE",
"64 443 LINE",
"52 404 OFFCURVE",
"45 362 OFFCURVE",
"45 319 CURVE SMOOTH",
"45 172 OFFCURVE",
"111 46 OFFCURVE",
"214 -4 CURVE",
"342 165 LINE",
"470 -4 LINE",
"573 46 OFFCURVE",
"639 172 OFFCURVE",
"639 319 CURVE SMOOTH",
"639 454 OFFCURVE",
"540 648 OFFCURVE",
"345 648 CURVE",
"236 648 OFFCURVE",
"171 592 OFFCURVE",
"171 509 CURVE",
"171 348 OFFCURVE",
"362 282 OFFCURVE",
"589 259 CURVE",
"607 330 LINE",
"487 341 OFFCURVE",
"246 372 OFFCURVE",
"246 505 CURVE",
"246 556 OFFCURVE",
"289 578 OFFCURVE",
"341 578 CURVE",
"469 578 OFFCURVE",
"565 456 OFFCURVE",
"565 313 CURVE SMOOTH",
"565 231 OFFCURVE",
"537 149 OFFCURVE",
"486 98 CURVE",
"364 256 LINE",
"320 256 LINE",
"198 98 LINE"
);
}
);
width = 684;
}
);
leftKerningGroup = "at-olchiki";
rightKerningGroup = "at-olchiki";
unicode = 1C77;
},
{
glyphname = "mu_ttuddag-olchiki";
lastChange = "2015-11-18 10:20:00 +0000";
layers = (
{
layerId = "A591124E-510C-4EE7-8335-8E9FAE8FCE08";
name = Regular;
paths = (
{
closed = 1;
nodes = (
"10 543 OFFCURVE",
"33 521 OFFCURVE",
"65 521 CURVE SMOOTH",
"97 521 OFFCURVE",
"120 543 OFFCURVE",
"120 579 CURVE SMOOTH",
"120 617 OFFCURVE",
"97 637 OFFCURVE",
"65 637 CURVE SMOOTH",
"33 637 OFFCURVE",
"10 617 OFFCURVE",
"10 579 CURVE SMOOTH"
);
}
);
width = 140;
}
);
leftKerningGroup = mu_ttuddag;
unicode = 1C78;
},
{
glyphname = "gaahlaa_ttuddag-olchiki";
lastChange = "2015-11-18 10:20:00 +0000";
layers = (
{
background = {
paths = (
{
closed = 1;
nodes = (
"8 30 OFFCURVE",
"33 8 OFFCURVE",
"65 8 CURVE SMOOTH",
"97 8 OFFCURVE",
"122 30 OFFCURVE",
"122 71 CURVE SMOOTH",
"122 113 OFFCURVE",
"97 134 OFFCURVE",
"65 134 CURVE SMOOTH",
"33 134 OFFCURVE",
"8 113 OFFCURVE",
"8 71 CURVE SMOOTH"
);
}
);
};
layerId = "A591124E-510C-4EE7-8335-8E9FAE8FCE08";
name = Regular;
paths = (
{
closed = 1;
nodes = (
"10 30 OFFCURVE",
"33 8 OFFCURVE",
"65 8 CURVE SMOOTH",
"97 8 OFFCURVE",
"120 30 OFFCURVE",
"120 66 CURVE SMOOTH",
"120 104 OFFCURVE",
"97 124 OFFCURVE",
"65 124 CURVE SMOOTH",
"33 124 OFFCURVE",
"10 104 OFFCURVE",
"10 66 CURVE SMOOTH"
);
}
);
width = 130;
}
);
leftKerningGroup = mu_ttuddag;
unicode = 1C79;
},
{
glyphname = "mu_gaahlaa_ttuddag-olchiki";
lastChange = "2015-11-18 10:20:00 +0000";
layers = (
{
background = {
paths = (
{
closed = 1;
nodes = (
"8 30 OFFCURVE",
"33 8 OFFCURVE",
"65 8 CURVE SMOOTH",
"97 8 OFFCURVE",
"122 30 OFFCURVE",
"122 71 CURVE SMOOTH",
"122 113 OFFCURVE",
"97 134 OFFCURVE",
"65 134 CURVE SMOOTH",
"33 134 OFFCURVE",
"8 113 OFFCURVE",
"8 71 CURVE SMOOTH"
);
},
{
closed = 1;
nodes = (
"8 533 OFFCURVE",
"33 511 OFFCURVE",
"65 511 CURVE SMOOTH",
"97 511 OFFCURVE",
"122 533 OFFCURVE",
"122 574 CURVE SMOOTH",
"122 616 OFFCURVE",
"97 637 OFFCURVE",
"65 637 CURVE SMOOTH",
"33 637 OFFCURVE",
"8 616 OFFCURVE",
"8 574 CURVE SMOOTH"
);
}
);
};
layerId = "A591124E-510C-4EE7-8335-8E9FAE8FCE08";
name = Regular;
paths = (
{
closed = 1;
nodes = (
"10 30 OFFCURVE",
"33 8 OFFCURVE",
"65 8 CURVE SMOOTH",
"97 8 OFFCURVE",
"120 30 OFFCURVE",
"120 66 CURVE SMOOTH",
"120 104 OFFCURVE",
"97 124 OFFCURVE",
"65 124 CURVE SMOOTH",
"33 124 OFFCURVE",
"10 104 OFFCURVE",
"10 66 CURVE SMOOTH"
);
},
{
closed = 1;
nodes = (
"10 543 OFFCURVE",
"33 521 OFFCURVE",
"65 521 CURVE SMOOTH",
"97 521 OFFCURVE",
"120 543 OFFCURVE",
"120 579 CURVE SMOOTH",
"120 617 OFFCURVE",
"97 637 OFFCURVE",
"65 637 CURVE SMOOTH",
"33 637 OFFCURVE",
"10 617 OFFCURVE",
"10 579 CURVE SMOOTH"
);
}
);
width = 130;
}
);
leftKerningGroup = mu_ttuddag;
unicode = 1C7A;
},
{
glyphname = "relaa-olchiki";
lastChange = "2015-11-18 10:20:00 +0000";
layers = (
{
layerId = "A591124E-510C-4EE7-8335-8E9FAE8FCE08";
name = Regular;
paths = (
{
closed = 1;
nodes = (
"40 381 LINE",
"312 381 LINE",
"312 453 LINE",
"40 453 LINE"
);
}
);
width = 352;
}
);
unicode = 1C7C;
},
{
glyphname = "phaarkaa-olchiki";
lastChange = "2015-11-18 10:20:00 +0000";
layers = (
{
background = {
paths = (
{
closed = 1;
nodes = (
"48 381 LINE",
"520 381 LINE",
"520 453 LINE",
"48 453 LINE"
);
}
);
};
layerId = "A591124E-510C-4EE7-8335-8E9FAE8FCE08";
name = Regular;
paths = (
{
closed = 1;
nodes = (
"232 404 OFFCURVE",
"286 343 OFFCURVE",
"368 343 CURVE",
"429 343 OFFCURVE",
"472 377 OFFCURVE",
"500 400 CURVE",
"464 457 LINE",
"439 436 OFFCURVE",
"409 412 OFFCURVE",
"370 412 CURVE",
"307 412 OFFCURVE",
"245 473 OFFCURVE",
"162 473 CURVE",
"101 473 OFFCURVE",
"58 439 OFFCURVE",
"30 416 CURVE",
"66 359 LINE",
"91 381 OFFCURVE",
"121 404 OFFCURVE",
"160 404 CURVE"
);
}
);
width = 530;
}
);
unicode = 1C7B;
},
{
glyphname = A;
lastChange = "2015-11-18 10:20:00 +0000";
layers = (
{
layerId = "A591124E-510C-4EE7-8335-8E9FAE8FCE08";
name = Regular;
paths = (
{
closed = 1;
nodes = (
"3 0 LINE",
"88 0 LINE",
"203 367 LINE SMOOTH",
"227 440 OFFCURVE",
"248 512 OFFCURVE",
"268 588 CURVE",
"272 588 LINE",
"293 512 OFFCURVE",
"314 440 OFFCURVE",
"338 367 CURVE SMOOTH",
"452 0 LINE",
"541 0 LINE",
"319 656 LINE",
"225 656 LINE"
);
},
{
closed = 1;
nodes = (
"119 200 LINE",
"422 200 LINE",
"422 267 LINE",
"119 267 LINE"
);
}
);
width = 544;
}
);
unicode = 0041;
},
{
glyphname = B;
lastChange = "2015-11-18 10:20:00 +0000";
layers = (
{
layerId = "A591124E-510C-4EE7-8335-8E9FAE8FCE08";
name = Regular;
paths = (
{
closed = 1;
nodes = (
"90 0 LINE",
"299 0 LINE SMOOTH",
"446 0 OFFCURVE",
"548 63 OFFCURVE",
"548 192 CURVE SMOOTH",
"548 282 OFFCURVE",
"493 334 OFFCURVE",
"414 349 CURVE",
"414 353 LINE",
"476 373 OFFCURVE",
"510 431 OFFCURVE",
"510 496 CURVE SMOOTH",
"510 611 OFFCURVE",
"418 656 OFFCURVE",
"285 656 CURVE SMOOTH",
"90 656 LINE"
);
},
{
closed = 1;
nodes = (
"173 377 LINE",
"173 590 LINE",
"274 590 LINE SMOOTH",
"376 590 OFFCURVE",
"428 561 OFFCURVE",
"428 485 CURVE SMOOTH",
"428 418 OFFCURVE",
"382 377 OFFCURVE",
"270 377 CURVE SMOOTH"
);
},
{
closed = 1;
nodes = (
"173 66 LINE",
"173 313 LINE",
"287 313 LINE SMOOTH",
"402 313 OFFCURVE",
"466 276 OFFCURVE",
"466 195 CURVE SMOOTH",
"466 107 OFFCURVE",
"400 66 OFFCURVE",
"287 66 CURVE SMOOTH"
);
}
);
width = 588;
}
);
leftKerningGroup = H;
unicode = 0042;
},
{
glyphname = C;
lastChange = "2015-11-18 10:20:00 +0000";
layers = (
{
layerId = "A591124E-510C-4EE7-8335-8E9FAE8FCE08";
name = Regular;
paths = (
{
closed = 1;
nodes = (
"338 -12 CURVE SMOOTH",
"423 -12 OFFCURVE",
"487 23 OFFCURVE",
"539 83 CURVE",
"493 135 LINE",
"451 89 OFFCURVE",
"404 61 OFFCURVE",
"341 61 CURVE SMOOTH",
"217 61 OFFCURVE",
"138 165 OFFCURVE",
"138 330 CURVE SMOOTH",
"138 493 OFFCURVE",
"220 595 OFFCURVE",
"344 595 CURVE SMOOTH",
"400 595 OFFCURVE",
"443 570 OFFCURVE",
"478 533 CURVE",
"523 587 LINE",
"485 630 OFFCURVE",
"423 668 OFFCURVE",
"343 668 CURVE SMOOTH",
"176 668 OFFCURVE",
"52 539 OFFCURVE",
"52 328 CURVE SMOOTH",
"52 114 OFFCURVE",
"174 -12 OFFCURVE"
);
}
);
width = 571;
}
);
leftKerningGroup = O;
unicode = 0043;
},
{
glyphname = D;
lastChange = "2015-11-18 10:20:00 +0000";
layers = (
{
layerId = "A591124E-510C-4EE7-8335-8E9FAE8FCE08";
name = Regular;
paths = (
{
closed = 1;
nodes = (
"90 0 LINE",
"258 0 LINE SMOOTH",
"456 0 OFFCURVE",
"564 122 OFFCURVE",
"564 331 CURVE SMOOTH",
"564 539 OFFCURVE",
"456 656 OFFCURVE",
"254 656 CURVE SMOOTH",
"90 656 LINE"
);
},
{
closed = 1;
nodes = (
"173 68 LINE",
"173 588 LINE",
"248 588 LINE SMOOTH",
"401 588 OFFCURVE",
"478 496 OFFCURVE",
"478 331 CURVE SMOOTH",
"478 165 OFFCURVE",
"401 68 OFFCURVE",
"248 68 CURVE SMOOTH"
);
}
);
width = 615;
}
);
leftKerningGroup = H;
rightKerningGroup = O;
unicode = 0044;
},
{
glyphname = E;
lastChange = "2015-11-18 10:20:00 +0000";
layers = (
{
layerId = "A591124E-510C-4EE7-8335-8E9FAE8FCE08";
name = Regular;
paths = (
{
closed = 1;
nodes = (
"90 0 LINE",
"478 0 LINE",
"478 71 LINE",
"173 71 LINE",
"173 309 LINE",
"422 309 LINE",
"422 380 LINE",
"173 380 LINE",
"173 586 LINE",
"468 586 LINE",
"468 656 LINE",
"90 656 LINE"
);
}
);
width = 527;
}
);
leftKerningGroup = H;
unicode = 0045;
},
{
glyphname = F;
lastChange = "2015-11-18 10:20:00 +0000";
layers = (
{
layerId = "A591124E-510C-4EE7-8335-8E9FAE8FCE08";
name = Regular;
paths = (
{
closed = 1;
nodes = (
"90 0 LINE",
"173 0 LINE",
"173 294 LINE",
"423 294 LINE",
"423 364 LINE",
"173 364 LINE",
"173 586 LINE",
"468 586 LINE",
"468 656 LINE",
"90 656 LINE"
);
}
);
width = 494;
}
);
leftKerningGroup = H;
unicode = 0046;
},
{
glyphname = G;
lastChange = "2015-11-18 10:20:00 +0000";
layers = (
{
layerId = "A591124E-510C-4EE7-8335-8E9FAE8FCE08";
name = Regular;
paths = (
{
closed = 1;
nodes = (
"348 -12 CURVE SMOOTH",
"436 -12 OFFCURVE",
"508 20 OFFCURVE",
"550 64 CURVE",
"550 340 LINE",
"335 340 LINE",
"335 271 LINE",
"474 271 LINE",
"474 100 LINE",
"448 76 OFFCURVE",
"403 61 OFFCURVE",
"356 61 CURVE SMOOTH",
"216 61 OFFCURVE",
"138 165 OFFCURVE",
"138 330 CURVE SMOOTH",
"138 493 OFFCURVE",
"223 595 OFFCURVE",
"355 595 CURVE SMOOTH",
"421 595 OFFCURVE",
"463 567 OFFCURVE",
"496 533 CURVE",
"542 587 LINE",
"504 627 OFFCURVE",
"444 668 OFFCURVE",
"353 668 CURVE SMOOTH",
"179 668 OFFCURVE",
"52 539 OFFCURVE",
"52 328 CURVE SMOOTH",
"52 114 OFFCURVE",
"175 -12 OFFCURVE"
);
}
);
width = 617;
}
);
unicode = 0047;
},
{
glyphname = H;
lastChange = "2015-11-18 10:20:00 +0000";
layers = (
{
layerId = "A591124E-510C-4EE7-8335-8E9FAE8FCE08";
name = Regular;
paths = (
{
closed = 1;
nodes = (
"90 0 LINE",
"173 0 LINE",
"173 309 LINE",
"478 309 LINE",
"478 0 LINE",
"562 0 LINE",
"562 656 LINE",
"478 656 LINE",
"478 381 LINE",
"173 381 LINE",
"173 656 LINE",
"90 656 LINE"
);
}
);
width = 652;
}
);
leftKerningGroup = H;
rightKerningGroup = H;
unicode = 0048;
},
{
glyphname = I;
lastChange = "2015-11-18 10:20:00 +0000";
layers = (
{
layerId = "A591124E-510C-4EE7-8335-8E9FAE8FCE08";
name = Regular;
paths = (
{
closed = 1;
nodes = (
"90 0 LINE",
"173 0 LINE",
"173 656 LINE",
"90 656 LINE"
);
}
);
width = 263;
}
);
leftKerningGroup = H;
rightKerningGroup = H;
unicode = 0049;
},
{
glyphname = J;
lastChange = "2015-11-18 10:20:00 +0000";
layers = (
{
layerId = "A591124E-510C-4EE7-8335-8E9FAE8FCE08";
name = Regular;
paths = (
{
closed = 1;
nodes = (
"212 -12 CURVE SMOOTH",
"340 -12 OFFCURVE",
"393 80 OFFCURVE",
"393 193 CURVE SMOOTH",
"393 656 LINE",
"309 656 LINE",
"309 201 LINE SMOOTH",
"309 101 OFFCURVE",
"274 61 OFFCURVE",
"204 61 CURVE SMOOTH",
"157 61 OFFCURVE",
"120 83 OFFCURVE",
"91 135 CURVE",
"31 93 LINE",
"69 24 OFFCURVE",
"129 -12 OFFCURVE"
);
}
);
width = 480;
}
);
unicode = 004A;
},
{
glyphname = K;
lastChange = "2015-11-18 10:20:00 +0000";
layers = (
{
layerId = "A591124E-510C-4EE7-8335-8E9FAE8FCE08";
name = Regular;
paths = (
{
closed = 1;
nodes = (
"90 0 LINE",
"173 0 LINE",
"173 208 LINE",
"286 341 LINE",
"482 0 LINE",
"575 0 LINE",
"338 406 LINE",
"543 656 LINE",
"449 656 LINE",
"176 327 LINE",
"173 327 LINE",
"173 656 LINE",
"90 656 LINE"
);
}
);
width = 579;
}
);
unicode = 004B;
},
{
glyphname = L;
lastChange = "2015-11-18 10:20:00 +0000";
layers = (
{
layerId = "A591124E-510C-4EE7-8335-8E9FAE8FCE08";
name = Regular;
paths = (
{
closed = 1;
nodes = (
"90 0 LINE",
"460 0 LINE",
"460 71 LINE",
"173 71 LINE",
"173 656 LINE",
"90 656 LINE"
);
}
);
width = 486;
}
);
unicode = 004C;
},
{
glyphname = M;
lastChange = "2015-11-18 10:20:00 +0000";
layers = (
{
layerId = "A591124E-510C-4EE7-8335-8E9FAE8FCE08";
name = Regular;
paths = (
{
closed = 1;
nodes = (
"90 0 LINE",
"165 0 LINE",
"165 361 LINE SMOOTH",
"165 419 OFFCURVE",
"159 497 OFFCURVE",
"155 555 CURVE",
"159 555 LINE",
"211 406 LINE",
"335 66 LINE",
"390 66 LINE",
"514 406 LINE",
"566 555 LINE",
"570 555 LINE",
"566 497 OFFCURVE",
"559 419 OFFCURVE",
"559 361 CURVE SMOOTH",
"559 0 LINE",
"637 0 LINE",
"637 656 LINE",
"536 656 LINE",
"412 306 LINE",
"396 261 OFFCURVE",
"383 214 OFFCURVE",
"367 169 CURVE",
"363 169 LINE",
"347 214 OFFCURVE",
"332 261 OFFCURVE",
"316 306 CURVE",
"190 656 LINE",
"90 656 LINE"
);
}
);
width = 727;
}
);
leftKerningGroup = H;
rightKerningGroup = H;
unicode = 004D;
},
{
glyphname = N;
lastChange = "2015-11-18 10:20:00 +0000";
layers = (
{
layerId = "A591124E-510C-4EE7-8335-8E9FAE8FCE08";
name = Regular;
paths = (
{
closed = 1;
nodes = (
"90 0 LINE",
"169 0 LINE",
"169 343 LINE SMOOTH",
"169 412 OFFCURVE",
"163 482 OFFCURVE",
"158 548 CURVE",
"162 548 LINE",
"233 413 LINE",
"471 0 LINE",
"557 0 LINE",
"557 656 LINE",
"478 656 LINE",
"478 317 LINE SMOOTH",
"478 248 OFFCURVE",
"484 174 OFFCURVE",
"488 108 CURVE",
"484 108 LINE",
"413 244 LINE",
"176 656 LINE",
"90 656 LINE"
);
}
);
width = 647;
}
);
leftKerningGroup = H;
rightKerningGroup = H;
unicode = 004E;
},
{
glyphname = O;
lastChange = "2015-11-18 10:20:00 +0000";
layers = (
{
layerId = "A591124E-510C-4EE7-8335-8E9FAE8FCE08";
name = Regular;
paths = (
{
closed = 1;
nodes = (
"332 -12 CURVE SMOOTH",
"497 -12 OFFCURVE",
"613 120 OFFCURVE",
"613 331 CURVE SMOOTH",
"613 540 OFFCURVE",
"497 668 OFFCURVE",
"332 668 CURVE SMOOTH",
"167 668 OFFCURVE",
"52 541 OFFCURVE",
"52 331 CURVE SMOOTH",
"52 120 OFFCURVE",
"167 -12 OFFCURVE"
);
},
{
closed = 1;
nodes = (
"332 61 CURVE SMOOTH",
"215 61 OFFCURVE",
"138 167 OFFCURVE",
"138 331 CURVE SMOOTH",
"138 494 OFFCURVE",
"215 595 OFFCURVE",
"332 595 CURVE SMOOTH",
"449 595 OFFCURVE",
"526 494 OFFCURVE",
"526 331 CURVE SMOOTH",
"526 167 OFFCURVE",
"449 61 OFFCURVE"
);
}
);
width = 664;
}
);
leftKerningGroup = O;
rightKerningGroup = O;
unicode = 004F;
},
{
glyphname = P;
lastChange = "2015-11-18 10:20:00 +0000";
layers = (
{
layerId = "A591124E-510C-4EE7-8335-8E9FAE8FCE08";
name = Regular;
paths = (
{
closed = 1;
nodes = (
"90 0 LINE",
"173 0 LINE",
"173 260 LINE",
"281 260 LINE SMOOTH",
"425 260 OFFCURVE",
"523 325 OFFCURVE",
"523 463 CURVE SMOOTH",
"523 607 OFFCURVE",
"424 656 OFFCURVE",
"277 656 CURVE SMOOTH",
"90 656 LINE"
);
},
{
closed = 1;
nodes = (
"173 328 LINE",
"173 589 LINE",
"267 589 LINE SMOOTH",
"382 589 OFFCURVE",
"440 558 OFFCURVE",
"440 463 CURVE SMOOTH",
"440 370 OFFCURVE",
"385 328 OFFCURVE",
"271 328 CURVE SMOOTH"
);
}
);
width = 566;
}
);
leftKerningGroup = H;
unicode = 0050;
},
{
glyphname = Q;
lastChange = "2015-11-18 10:20:00 +0000";
layers = (
{
layerId = "A591124E-510C-4EE7-8335-8E9FAE8FCE08";
name = Regular;
paths = (
{
closed = 1;
nodes = (
"332 -12 CURVE SMOOTH",
"497 -12 OFFCURVE",
"613 120 OFFCURVE",
"613 331 CURVE SMOOTH",
"613 540 OFFCURVE",
"497 668 OFFCURVE",
"332 668 CURVE SMOOTH",
"167 668 OFFCURVE",
"52 541 OFFCURVE",
"52 331 CURVE SMOOTH",
"52 120 OFFCURVE",
"167 -12 OFFCURVE"
);
},
{
closed = 1;
nodes = (
"332 57 CURVE SMOOTH",
"215 57 OFFCURVE",
"138 163 OFFCURVE",
"138 331 CURVE SMOOTH",
"138 494 OFFCURVE",
"215 595 OFFCURVE",
"332 595 CURVE SMOOTH",
"449 595 OFFCURVE",
"526 494 OFFCURVE",
"526 331 CURVE SMOOTH",
"526 163 OFFCURVE",
"449 57 OFFCURVE"
);
},
{
closed = 1;
nodes = (
"533 -165 CURVE SMOOTH",
"572 -165 OFFCURVE",
"607 -158 OFFCURVE",
"627 -150 CURVE",
"611 -86 LINE",
"593 -91 OFFCURVE",
"571 -95 OFFCURVE",
"542 -95 CURVE SMOOTH",
"464 -95 OFFCURVE",
"400 -61 OFFCURVE",
"374 9 CURVE",
"287 2 LINE",
"322 -93 OFFCURVE",
"407 -165 OFFCURVE"
);
}
);
width = 664;
}
);
leftKerningGroup = O;
unicode = 0051;
},
{
glyphname = R;
lastChange = "2015-11-18 10:20:00 +0000";
layers = (
{
layerId = "A591124E-510C-4EE7-8335-8E9FAE8FCE08";
name = Regular;
paths = (
{
closed = 1;
nodes = (
"90 0 LINE",
"173 0 LINE",
"173 277 LINE",
"295 277 LINE SMOOTH",
"429 277 OFFCURVE",
"525 341 OFFCURVE",
"525 472 CURVE SMOOTH",
"525 608 OFFCURVE",
"429 656 OFFCURVE",
"295 656 CURVE SMOOTH",
"90 656 LINE"
);
},
{
closed = 1;
nodes = (
"173 345 LINE",
"173 589 LINE",
"283 589 LINE SMOOTH",
"385 589 OFFCURVE",
"442 558 OFFCURVE",
"442 472 CURVE SMOOTH",
"442 387 OFFCURVE",
"385 345 OFFCURVE",
"283 345 CURVE SMOOTH"
);
},
{
closed = 1;
nodes = (
"450 0 LINE",
"544 0 LINE",
"344 344 LINE",
"279 300 LINE"
);
}
);
width = 569;
}
);
leftKerningGroup = H;
unicode = 0052;
},
{
glyphname = S;
lastChange = "2015-11-18 10:20:00 +0000";
layers = (
{
layerId = "A591124E-510C-4EE7-8335-8E9FAE8FCE08";
name = Regular;
paths = (
{
closed = 1;
nodes = (
"272 -12 CURVE SMOOTH",
"410 -12 OFFCURVE",
"495 71 OFFCURVE",
"495 175 CURVE SMOOTH",
"495 272 OFFCURVE",
"436 317 OFFCURVE",
"360 350 CURVE SMOOTH",
"267 390 LINE SMOOTH",
"215 412 OFFCURVE",
"158 436 OFFCURVE",
"158 499 CURVE SMOOTH",
"158 558 OFFCURVE",
"207 595 OFFCURVE",
"280 595 CURVE SMOOTH",
"341 595 OFFCURVE",
"389 571 OFFCURVE",
"429 533 CURVE",
"474 587 LINE",
"427 635 OFFCURVE",
"358 668 OFFCURVE",
"280 668 CURVE SMOOTH",
"161 668 OFFCURVE",
"74 594 OFFCURVE",
"74 494 CURVE SMOOTH",
"74 398 OFFCURVE",
"145 351 OFFCURVE",
"207 325 CURVE SMOOTH",
"301 284 LINE SMOOTH",
"363 256 OFFCURVE",
"410 235 OFFCURVE",
"410 168 CURVE SMOOTH",
"410 104 OFFCURVE",
"359 61 OFFCURVE",
"273 61 CURVE SMOOTH",
"205 61 OFFCURVE",
"139 94 OFFCURVE",
"92 143 CURVE",
"42 85 LINE",
"99 26 OFFCURVE",
"180 -12 OFFCURVE"
);
}
);
width = 534;
}
);
unicode = 0053;
},
{
glyphname = T;
lastChange = "2015-11-18 10:20:00 +0000";
layers = (
{
layerId = "A591124E-510C-4EE7-8335-8E9FAE8FCE08";
name = Regular;
paths = (
{
closed = 1;
nodes = (
"226 0 LINE",
"310 0 LINE",
"310 586 LINE",
"508 586 LINE",
"508 656 LINE",
"28 656 LINE",
"28 586 LINE",
"226 586 LINE"
);
}
);
width = 536;
}
);
unicode = 0054;
},
{
glyphname = U;
lastChange = "2015-11-18 10:20:00 +0000";
layers = (
{
layerId = "A591124E-510C-4EE7-8335-8E9FAE8FCE08";
name = Regular;
paths = (
{
closed = 1;
nodes = (
"323 -12 CURVE SMOOTH",
"457 -12 OFFCURVE",
"558 60 OFFCURVE",
"558 271 CURVE SMOOTH",
"558 656 LINE",
"478 656 LINE",
"478 269 LINE SMOOTH",
"478 111 OFFCURVE",
"410 61 OFFCURVE",
"323 61 CURVE SMOOTH",
"237 61 OFFCURVE",
"170 111 OFFCURVE",
"170 269 CURVE SMOOTH",
"170 656 LINE",
"87 656 LINE",
"87 271 LINE SMOOTH",
"87 60 OFFCURVE",
"189 -12 OFFCURVE"
);
}
);
width = 646;
}
);
unicode = 0055;
},
{
glyphname = V;
lastChange = "2015-11-18 10:20:00 +0000";
layers = (
{
layerId = "A591124E-510C-4EE7-8335-8E9FAE8FCE08";
name = Regular;
paths = (
{
closed = 1;
nodes = (
"210 0 LINE",
"307 0 LINE",
"515 656 LINE",
"430 656 LINE",
"325 302 LINE SMOOTH",
"302 224 OFFCURVE",
"286 162 OFFCURVE",
"262 85 CURVE",
"258 85 LINE",
"233 162 OFFCURVE",
"218 224 OFFCURVE",
"194 302 CURVE SMOOTH",
"89 656 LINE",
"0 656 LINE"
);
}
);
width = 515;
}
);
unicode = 0056;
},
{
glyphname = W;
lastChange = "2015-11-18 10:20:00 +0000";
layers = (
{
layerId = "A591124E-510C-4EE7-8335-8E9FAE8FCE08";
name = Regular;
paths = (
{
closed = 1;
nodes = (
"162 0 LINE",
"261 0 LINE",
"358 395 LINE",
"369 446 OFFCURVE",
"381 493 OFFCURVE",
"391 544 CURVE",
"395 544 LINE",
"405 493 OFFCURVE",
"415 446 OFFCURVE",
"427 395 CURVE",
"526 0 LINE",
"626 0 LINE",
"762 656 LINE",
"682 656 LINE",
"613 299 LINE",
"600 229 OFFCURVE",
"588 158 OFFCURVE",
"576 87 CURVE",
"572 87 LINE",
"556 158 OFFCURVE",
"540 230 OFFCURVE",
"524 299 CURVE",
"433 656 LINE",
"357 656 LINE",
"266 299 LINE",
"251 229 OFFCURVE",
"235 158 OFFCURVE",
"220 87 CURVE",
"216 87 LINE",
"204 158 OFFCURVE",
"190 228 OFFCURVE",
"178 299 CURVE",
"109 656 LINE",
"23 656 LINE"
);
}
);
width = 786;
}
);
unicode = 0057;
},
{
glyphname = X;
lastChange = "2015-11-18 10:20:00 +0000";
layers = (
{
layerId = "A591124E-510C-4EE7-8335-8E9FAE8FCE08";
name = Regular;
paths = (
{
closed = 1;
nodes = (
"15 0 LINE",
"103 0 LINE",
"198 177 LINE SMOOTH",
"214 209 OFFCURVE",
"231 242 OFFCURVE",
"250 282 CURVE",
"254 282 LINE",
"275 242 OFFCURVE",
"293 209 OFFCURVE",
"310 177 CURVE SMOOTH",
"406 0 LINE",
"498 0 LINE",
"307 335 LINE",
"486 656 LINE",
"398 656 LINE",
"311 488 LINE SMOOTH",
"295 458 OFFCURVE",
"282 431 OFFCURVE",
"264 393 CURVE",
"260 393 LINE",
"240 431 OFFCURVE",
"226 458 OFFCURVE",
"209 488 CURVE SMOOTH",
"120 656 LINE",
"28 656 LINE",
"206 339 LINE"
);
}
);
width = 513;
}
);
unicode = 0058;
},
{
glyphname = Y;
lastChange = "2015-11-18 10:20:00 +0000";
layers = (
{
layerId = "A591124E-510C-4EE7-8335-8E9FAE8FCE08";
name = Regular;
paths = (
{
closed = 1;
nodes = (
"196 0 LINE",
"280 0 LINE",
"280 254 LINE",
"477 656 LINE",
"390 656 LINE",
"306 471 LINE",
"286 423 OFFCURVE",
"263 377 OFFCURVE",
"240 328 CURVE",
"236 328 LINE",
"214 377 OFFCURVE",
"194 423 OFFCURVE",
"173 471 CURVE",
"88 656 LINE",
"-1 656 LINE",
"196 254 LINE"
);
}
);
width = 476;
}
);
unicode = 0059;
},
{
glyphname = Z;
lastChange = "2015-11-18 10:20:00 +0000";
layers = (
{
layerId = "A591124E-510C-4EE7-8335-8E9FAE8FCE08";
name = Regular;
paths = (
{
closed = 1;
nodes = (
"45 0 LINE",
"497 0 LINE",
"497 71 LINE",
"148 71 LINE",
"494 607 LINE",
"494 656 LINE",
"76 656 LINE",
"76 586 LINE",
"390 586 LINE",
"45 50 LINE"
);
}
);
width = 539;
}
);
unicode = 005A;
},
{
glyphname = a;
lastChange = "2015-11-18 10:20:00 +0000";
layers = (
{
layerId = "A591124E-510C-4EE7-8335-8E9FAE8FCE08";
name = Regular;
paths = (
{
closed = 1;
nodes = (
"194 -12 CURVE SMOOTH",
"255 -12 OFFCURVE",
"309 20 OFFCURVE",
"355 58 CURVE",
"358 58 LINE",
"365 0 LINE",
"433 0 LINE",
"433 298 LINE SMOOTH",
"433 419 OFFCURVE",
"383 498 OFFCURVE",
"264 498 CURVE SMOOTH",
"186 498 OFFCURVE",
"118 464 OFFCURVE",
"73 435 CURVE",
"105 378 LINE",
"143 404 OFFCURVE",
"194 430 OFFCURVE",
"250 430 CURVE SMOOTH",
"330 430 OFFCURVE",
"350 370 OFFCURVE",
"350 308 CURVE",
"143 285 OFFCURVE",
"52 232 OFFCURVE",
"52 126 CURVE SMOOTH",
"52 39 OFFCURVE",
"113 -12 OFFCURVE"
);
},
{
closed = 1;
nodes = (
"218 54 CURVE SMOOTH",
"170 54 OFFCURVE",
"132 77 OFFCURVE",
"132 132 CURVE SMOOTH",
"132 194 OFFCURVE",
"188 234 OFFCURVE",
"350 254 CURVE",
"350 119 LINE",
"303 77 OFFCURVE",
"265 54 OFFCURVE"
);
}
);
width = 504;
}
);
unicode = 0061;
},
{
glyphname = b;
lastChange = "2015-11-18 10:20:00 +0000";
layers = (
{
layerId = "A591124E-510C-4EE7-8335-8E9FAE8FCE08";
name = Regular;
paths = (
{
closed = 1;
nodes = (
"297 -12 CURVE SMOOTH",
"408 -12 OFFCURVE",
"507 85 OFFCURVE",
"507 251 CURVE SMOOTH",
"507 401 OFFCURVE",
"440 498 OFFCURVE",
"314 498 CURVE SMOOTH",
"260 498 OFFCURVE",
"206 469 OFFCURVE",
"162 430 CURVE",
"164 518 LINE",
"164 712 LINE",
"82 712 LINE",
"82 0 LINE",
"148 0 LINE",
"155 50 LINE",
"158 50 LINE",
"201 11 OFFCURVE",
"252 -12 OFFCURVE"
);
},
{
closed = 1;
nodes = (
"283 57 CURVE SMOOTH",
"251 57 OFFCURVE",
"207 71 OFFCURVE",
"164 108 CURVE",
"164 363 LINE",
"210 406 OFFCURVE",
"253 429 OFFCURVE",
"294 429 CURVE SMOOTH",
"386 429 OFFCURVE",
"422 357 OFFCURVE",
"422 250 CURVE SMOOTH",
"422 130 OFFCURVE",
"363 57 OFFCURVE"
);
}
);
width = 553;
}
);
leftKerningGroup = h;
rightKerningGroup = o;
unicode = 0062;
},
{
glyphname = c;
lastChange = "2015-11-18 10:20:00 +0000";
layers = (
{
layerId = "A591124E-510C-4EE7-8335-8E9FAE8FCE08";
name = Regular;
paths = (
{
closed = 1;
nodes = (
"274 -12 CURVE SMOOTH",
"332 -12 OFFCURVE",
"387 11 OFFCURVE",
"431 50 CURVE",
"395 105 LINE",
"365 78 OFFCURVE",
"326 56 OFFCURVE",
"281 56 CURVE SMOOTH",
"192 56 OFFCURVE",
"131 131 OFFCURVE",
"131 242 CURVE SMOOTH",
"131 354 OFFCURVE",
"195 430 OFFCURVE",
"283 430 CURVE SMOOTH",
"322 430 OFFCURVE",
"352 412 OFFCURVE",
"380 387 CURVE",
"422 441 LINE",
"388 472 OFFCURVE",
"344 498 OFFCURVE",
"280 498 CURVE SMOOTH",
"155 498 OFFCURVE",
"46 405 OFFCURVE",
"46 242 CURVE SMOOTH",
"46 81 OFFCURVE",
"145 -12 OFFCURVE"
);
}
);
width = 456;
}
);
leftKerningGroup = o;
unicode = 0063;
},
{
glyphname = d;
lastChange = "2015-11-18 10:20:00 +0000";
layers = (
{
layerId = "A591124E-510C-4EE7-8335-8E9FAE8FCE08";
name = Regular;
paths = (
{
closed = 1;
nodes = (
"248 -12 CURVE SMOOTH",
"305 -12 OFFCURVE",
"357 20 OFFCURVE",
"395 57 CURVE",
"398 57 LINE",
"405 0 LINE",
"473 0 LINE",
"473 712 LINE",
"390 712 LINE",
"390 525 LINE",
"394 442 LINE",
"351 477 OFFCURVE",
"314 498 OFFCURVE",
"258 498 CURVE SMOOTH",
"147 498 OFFCURVE",
"47 400 OFFCURVE",
"47 242 CURVE SMOOTH",
"47 80 OFFCURVE",
"126 -12 OFFCURVE"
);
},
{
closed = 1;
nodes = (
"266 57 CURVE SMOOTH",
"181 57 OFFCURVE",
"132 127 OFFCURVE",
"132 243 CURVE SMOOTH",
"132 354 OFFCURVE",
"194 429 OFFCURVE",
"272 429 CURVE SMOOTH",
"312 429 OFFCURVE",
"349 415 OFFCURVE",
"390 378 CURVE",
"390 124 LINE",
"350 79 OFFCURVE",
"311 57 OFFCURVE"
);
}
);
width = 555;
}
);
leftKerningGroup = o;
unicode = 0064;
},
{
glyphname = e;
lastChange = "2015-11-18 10:20:00 +0000";
layers = (
{
layerId = "A591124E-510C-4EE7-8335-8E9FAE8FCE08";
name = Regular;
paths = (
{
closed = 1;
nodes = (
"279 -12 CURVE SMOOTH",
"345 -12 OFFCURVE",
"397 11 OFFCURVE",
"439 38 CURVE",
"410 92 LINE",
"374 69 OFFCURVE",
"335 54 OFFCURVE",
"289 54 CURVE SMOOTH",
"196 54 OFFCURVE",
"133 120 OFFCURVE",
"127 223 CURVE",
"455 223 LINE",
"457 235 OFFCURVE",
"458 253 OFFCURVE",
"458 270 CURVE SMOOTH",
"458 409 OFFCURVE",
"388 498 OFFCURVE",
"264 498 CURVE SMOOTH",
"153 498 OFFCURVE",
"46 401 OFFCURVE",
"46 242 CURVE SMOOTH",
"46 83 OFFCURVE",
"149 -12 OFFCURVE"
);
},
{
closed = 1;
nodes = (
"126 282 LINE",
"136 378 OFFCURVE",
"198 433 OFFCURVE",
"266 433 CURVE SMOOTH",
"342 433 OFFCURVE",
"386 380 OFFCURVE",
"386 282 CURVE"
);
}
);
width = 496;
}
);
leftKerningGroup = o;
unicode = 0065;
},
{
glyphname = f;
lastChange = "2015-11-18 10:20:00 +0000";
layers = (
{
layerId = "A591124E-510C-4EE7-8335-8E9FAE8FCE08";
name = Regular;
paths = (
{
closed = 1;
nodes = (
"96 0 LINE",
"178 0 LINE",
"178 563 LINE SMOOTH",
"178 625 OFFCURVE",
"200 657 OFFCURVE",
"246 657 CURVE SMOOTH",
"264 657 OFFCURVE",
"283 653 OFFCURVE",
"301 645 CURVE",
"319 708 LINE",
"297 717 OFFCURVE",
"268 724 OFFCURVE",
"238 724 CURVE SMOOTH",
"141 724 OFFCURVE",
"96 662 OFFCURVE",
"96 563 CURVE SMOOTH"
);
},
{
closed = 1;
nodes = (
"30 419 LINE",
"281 419 LINE",
"281 486 LINE",
"99 486 LINE",
"30 481 LINE"
);
}
);
width = 292;
}
);
unicode = 0066;
},
{
glyphname = g;
lastChange = "2015-11-18 10:20:00 +0000";
layers = (
{
layerId = "A591124E-510C-4EE7-8335-8E9FAE8FCE08";
name = Regular;
paths = (
{
closed = 1;
nodes = (
"246 -224 CURVE SMOOTH",
"397 -224 OFFCURVE",
"492 -146 OFFCURVE",
"492 -56 CURVE SMOOTH",
"492 25 OFFCURVE",
"435 60 OFFCURVE",
"322 60 CURVE SMOOTH",
"228 60 LINE SMOOTH",
"162 60 OFFCURVE",
"142 82 OFFCURVE",
"142 113 CURVE SMOOTH",
"142 140 OFFCURVE",
"156 156 OFFCURVE",
"173 171 CURVE",
"195 160 OFFCURVE",
"222 154 OFFCURVE",
"246 154 CURVE SMOOTH",
"345 154 OFFCURVE",
"424 219 OFFCURVE",
"424 323 CURVE SMOOTH",
"424 364 OFFCURVE",
"407 401 OFFCURVE",
"384 423 CURVE",
"484 423 LINE",
"484 486 LINE",
"315 486 LINE",
"297 493 OFFCURVE",
"273 498 OFFCURVE",
"246 498 CURVE SMOOTH",
"147 498 OFFCURVE",
"63 431 OFFCURVE",
"63 325 CURVE SMOOTH",
"63 267 OFFCURVE",
"94 220 OFFCURVE",
"126 194 CURVE",
"126 190 LINE",
"101 173 OFFCURVE",
"73 141 OFFCURVE",
"73 100 CURVE SMOOTH",
"73 62 OFFCURVE",
"92 36 OFFCURVE",
"116 21 CURVE",
"116 17 LINE",
"72 -13 OFFCURVE",
"45 -52 OFFCURVE",
"45 -93 CURVE SMOOTH",
"45 -177 OFFCURVE",
"127 -224 OFFCURVE"
);
},
{
closed = 1;
nodes = (
"246 209 CURVE SMOOTH",
"190 209 OFFCURVE",
"143 254 OFFCURVE",
"143 325 CURVE SMOOTH",
"143 396 OFFCURVE",
"189 438 OFFCURVE",
"246 438 CURVE SMOOTH",
"303 438 OFFCURVE",
"349 396 OFFCURVE",
"349 325 CURVE SMOOTH",
"349 254 OFFCURVE",
"302 209 OFFCURVE"
);
},
{
closed = 1;
nodes = (
"258 -167 CURVE SMOOTH",
"170 -167 OFFCURVE",
"117 -134 OFFCURVE",
"117 -82 CURVE SMOOTH",
"117 -54 OFFCURVE",
"132 -25 OFFCURVE",
"167 0 CURVE",
"188 -6 OFFCURVE",
"211 -8 OFFCURVE",
"230 -8 CURVE SMOOTH",
"314 -8 LINE SMOOTH",
"377 -8 OFFCURVE",
"412 -23 OFFCURVE",
"412 -68 CURVE SMOOTH",
"412 -119 OFFCURVE",
"351 -167 OFFCURVE"
);
}
);
width = 504;
}
);
unicode = 0067;
},
{
glyphname = h;
lastChange = "2015-11-18 10:20:00 +0000";
layers = (
{
layerId = "A591124E-510C-4EE7-8335-8E9FAE8FCE08";
name = Regular;
paths = (
{
closed = 1;
nodes = (
"82 0 LINE",
"164 0 LINE",
"164 352 LINE",
"213 401 OFFCURVE",
"247 427 OFFCURVE",
"297 427 CURVE SMOOTH",
"361 427 OFFCURVE",
"389 388 OFFCURVE",
"389 297 CURVE SMOOTH",
"389 0 LINE",
"471 0 LINE",
"471 308 LINE SMOOTH",
"471 432 OFFCURVE",
"425 498 OFFCURVE",
"323 498 CURVE SMOOTH",
"256 498 OFFCURVE",
"207 462 OFFCURVE",
"161 418 CURVE",
"164 518 LINE",
"164 712 LINE",
"82 712 LINE"
);
}
);
width = 544;
}
);
leftKerningGroup = h;
unicode = 0068;
},
{
glyphname = i;
lastChange = "2015-11-18 10:20:00 +0000";
layers = (
{
layerId = "A591124E-510C-4EE7-8335-8E9FAE8FCE08";
name = Regular;
paths = (
{
closed = 1;
nodes = (
"82 0 LINE",
"164 0 LINE",
"164 486 LINE",
"82 486 LINE"
);
},
{
closed = 1;
nodes = (
"124 586 CURVE SMOOTH",
"156 586 OFFCURVE",
"181 608 OFFCURVE",
"181 639 CURVE SMOOTH",
"181 671 OFFCURVE",
"156 692 OFFCURVE",
"124 692 CURVE SMOOTH",
"92 692 OFFCURVE",
"67 671 OFFCURVE",
"67 639 CURVE SMOOTH",
"67 608 OFFCURVE",
"92 586 OFFCURVE"
);
}
);
width = 246;
}
);
unicode = 0069;
},
{
glyphname = j;
lastChange = "2015-11-18 10:20:00 +0000";
layers = (
{
layerId = "A591124E-510C-4EE7-8335-8E9FAE8FCE08";
name = Regular;
paths = (
{
closed = 1;
nodes = (
"32 -217 CURVE SMOOTH",
"129 -217 OFFCURVE",
"165 -154 OFFCURVE",
"165 -55 CURVE SMOOTH",
"165 486 LINE",
"83 486 LINE",
"83 -55 LINE SMOOTH",
"83 -114 OFFCURVE",
"71 -150 OFFCURVE",
"23 -150 CURVE SMOOTH",
"6 -150 OFFCURVE",
"-11 -146 OFFCURVE",
"-23 -142 CURVE",
"-40 -204 LINE",
"-23 -211 OFFCURVE",
"2 -217 OFFCURVE"
);
},
{
closed = 1;
nodes = (
"125 586 CURVE SMOOTH",
"156 586 OFFCURVE",
"181 608 OFFCURVE",
"181 639 CURVE SMOOTH",
"181 671 OFFCURVE",
"156 692 OFFCURVE",
"125 692 CURVE SMOOTH",
"93 692 OFFCURVE",
"68 671 OFFCURVE",
"68 639 CURVE SMOOTH",
"68 608 OFFCURVE",
"93 586 OFFCURVE"
);
}
);
width = 247;
}
);
unicode = 006A;
},
{
glyphname = k;
lastChange = "2015-11-18 10:20:00 +0000";
layers = (
{
layerId = "A591124E-510C-4EE7-8335-8E9FAE8FCE08";
name = Regular;
paths = (
{
closed = 1;
nodes = (
"82 0 LINE",
"163 0 LINE",
"163 128 LINE",
"254 234 LINE",
"396 0 LINE",
"486 0 LINE",
"301 291 LINE",
"464 486 LINE",
"373 486 LINE",
"166 230 LINE",
"163 230 LINE",
"163 712 LINE",
"82 712 LINE"
);
}
);
width = 495;
}
);
leftKerningGroup = h;
unicode = 006B;
},
{
glyphname = l;
lastChange = "2015-11-18 10:20:00 +0000";
layers = (
{
layerId = "A591124E-510C-4EE7-8335-8E9FAE8FCE08";
name = Regular;
paths = (
{
closed = 1;
nodes = (
"169 -12 CURVE SMOOTH",
"191 -12 OFFCURVE",
"205 -9 OFFCURVE",
"216 -4 CURVE",
"205 58 LINE",
"196 56 OFFCURVE",
"192 56 OFFCURVE",
"187 56 CURVE SMOOTH",
"175 56 OFFCURVE",
"164 66 OFFCURVE",
"164 92 CURVE SMOOTH",
"164 712 LINE",
"82 712 LINE",
"82 98 LINE SMOOTH",
"82 27 OFFCURVE",
"107 -12 OFFCURVE"
);
}
);
width = 255;
}
);
leftKerningGroup = h;
unicode = 006C;
},
{
glyphname = m;
lastChange = "2015-11-18 10:20:00 +0000";
layers = (
{
layerId = "A591124E-510C-4EE7-8335-8E9FAE8FCE08";
name = Regular;
paths = (
{
closed = 1;
nodes = (
"82 0 LINE",
"164 0 LINE",
"164 352 LINE",
"209 402 OFFCURVE",
"250 427 OFFCURVE",
"286 427 CURVE SMOOTH",
"348 427 OFFCURVE",
"377 388 OFFCURVE",
"377 297 CURVE SMOOTH",
"377 0 LINE",
"459 0 LINE",
"459 352 LINE",
"504 402 OFFCURVE",
"543 427 OFFCURVE",
"581 427 CURVE SMOOTH",
"642 427 OFFCURVE",
"671 388 OFFCURVE",
"671 297 CURVE SMOOTH",
"671 0 LINE",
"753 0 LINE",
"753 308 LINE SMOOTH",
"753 432 OFFCURVE",
"705 498 OFFCURVE",
"605 498 CURVE SMOOTH",
"546 498 OFFCURVE",
"496 460 OFFCURVE",
"445 405 CURVE",
"425 463 OFFCURVE",
"385 498 OFFCURVE",
"311 498 CURVE SMOOTH",
"253 498 OFFCURVE",
"202 462 OFFCURVE",
"160 416 CURVE",
"157 416 LINE",
"150 486 LINE",
"82 486 LINE"
);
}
);
width = 829;
}
);
leftKerningGroup = h;
unicode = 006D;
},
{
glyphname = n;
lastChange = "2015-11-18 10:20:00 +0000";
layers = (
{
layerId = "A591124E-510C-4EE7-8335-8E9FAE8FCE08";
name = Regular;
paths = (
{
closed = 1;
nodes = (
"82 0 LINE",
"164 0 LINE",
"164 352 LINE",
"213 401 OFFCURVE",
"247 427 OFFCURVE",
"297 427 CURVE SMOOTH",
"361 427 OFFCURVE",
"389 388 OFFCURVE",
"389 297 CURVE SMOOTH",
"389 0 LINE",
"471 0 LINE",
"471 308 LINE SMOOTH",
"471 432 OFFCURVE",
"425 498 OFFCURVE",
"323 498 CURVE SMOOTH",
"256 498 OFFCURVE",
"206 462 OFFCURVE",
"160 416 CURVE",
"157 416 LINE",
"150 486 LINE",
"82 486 LINE"
);
}
);
width = 547;
}
);
leftKerningGroup = h;
unicode = 006E;
},
{
glyphname = o;
lastChange = "2015-11-18 10:20:00 +0000";
layers = (
{
layerId = "A591124E-510C-4EE7-8335-8E9FAE8FCE08";
name = Regular;
paths = (
{
closed = 1;
nodes = (
"271 -12 CURVE SMOOTH",
"390 -12 OFFCURVE",
"496 81 OFFCURVE",
"496 242 CURVE SMOOTH",
"496 405 OFFCURVE",
"390 498 OFFCURVE",
"271 498 CURVE SMOOTH",
"152 498 OFFCURVE",
"46 405 OFFCURVE",
"46 242 CURVE SMOOTH",
"46 81 OFFCURVE",
"152 -12 OFFCURVE"
);
},
{
closed = 1;
nodes = (
"271 56 CURVE SMOOTH",
"188 56 OFFCURVE",
"131 131 OFFCURVE",
"131 242 CURVE SMOOTH",
"131 354 OFFCURVE",
"188 430 OFFCURVE",
"271 430 CURVE SMOOTH",
"355 430 OFFCURVE",
"411 354 OFFCURVE",
"411 242 CURVE SMOOTH",
"411 131 OFFCURVE",
"355 56 OFFCURVE"
);
}
);
width = 542;
}
);
leftKerningGroup = o;
rightKerningGroup = o;
unicode = 006F;
},
{
glyphname = p;
lastChange = "2015-11-18 10:20:00 +0000";
layers = (
{
layerId = "A591124E-510C-4EE7-8335-8E9FAE8FCE08";
name = Regular;
paths = (
{
closed = 1;
nodes = (
"82 -205 LINE",
"164 -205 LINE",
"164 -41 LINE",
"162 44 LINE",
"207 9 OFFCURVE",
"252 -12 OFFCURVE",
"297 -12 CURVE SMOOTH",
"408 -12 OFFCURVE",
"507 85 OFFCURVE",
"507 250 CURVE SMOOTH",
"507 401 OFFCURVE",
"440 498 OFFCURVE",
"315 498 CURVE SMOOTH",
"258 498 OFFCURVE",
"204 467 OFFCURVE",
"160 430 CURVE",
"157 430 LINE",
"150 486 LINE",
"82 486 LINE"
);
},
{
closed = 1;
nodes = (
"283 57 CURVE SMOOTH",
"251 57 OFFCURVE",
"208 71 OFFCURVE",
"164 108 CURVE",
"164 363 LINE",
"212 406 OFFCURVE",
"253 429 OFFCURVE",
"294 429 CURVE SMOOTH",
"386 429 OFFCURVE",
"422 357 OFFCURVE",
"422 250 CURVE SMOOTH",
"422 130 OFFCURVE",
"363 57 OFFCURVE"
);
}
);
width = 555;
}
);
leftKerningGroup = h;
rightKerningGroup = o;
unicode = 0070;
},
{
glyphname = q;
lastChange = "2015-11-18 10:20:00 +0000";
layers = (
{
layerId = "A591124E-510C-4EE7-8335-8E9FAE8FCE08";
name = Regular;
paths = (
{
closed = 1;
nodes = (
"390 -205 LINE",
"473 -205 LINE",
"473 486 LINE",
"407 486 LINE",
"399 440 LINE",
"397 440 LINE",
"353 478 OFFCURVE",
"314 498 OFFCURVE",
"258 498 CURVE SMOOTH",
"147 498 OFFCURVE",
"47 400 OFFCURVE",
"47 242 CURVE SMOOTH",
"47 80 OFFCURVE",
"126 -12 OFFCURVE",
"248 -12 CURVE SMOOTH",
"304 -12 OFFCURVE",
"355 18 OFFCURVE",
"394 56 CURVE",
"390 -32 LINE"
);
},
{
closed = 1;
nodes = (
"266 57 CURVE SMOOTH",
"181 57 OFFCURVE",
"132 127 OFFCURVE",
"132 243 CURVE SMOOTH",
"132 354 OFFCURVE",
"194 429 OFFCURVE",
"272 429 CURVE SMOOTH",
"312 429 OFFCURVE",
"349 415 OFFCURVE",
"390 378 CURVE",
"390 124 LINE",
"350 79 OFFCURVE",
"311 57 OFFCURVE"
);
}
);
width = 555;
}
);
leftKerningGroup = o;
unicode = 0071;
},
{
glyphname = r;
lastChange = "2015-11-18 10:20:00 +0000";
layers = (
{
layerId = "A591124E-510C-4EE7-8335-8E9FAE8FCE08";
name = Regular;
paths = (
{
closed = 1;
nodes = (
"82 0 LINE",
"164 0 LINE",
"164 312 LINE",
"197 394 OFFCURVE",
"246 424 OFFCURVE",
"287 424 CURVE SMOOTH",
"307 424 OFFCURVE",
"318 421 OFFCURVE",
"334 416 CURVE",
"350 488 LINE",
"334 495 OFFCURVE",
"319 498 OFFCURVE",
"298 498 CURVE SMOOTH",
"243 498 OFFCURVE",
"193 459 OFFCURVE",
"160 398 CURVE",
"157 398 LINE",
"150 486 LINE",
"82 486 LINE"
);
}
);
width = 347;
}
);
leftKerningGroup = h;
unicode = 0072;
},
{
glyphname = s;
lastChange = "2015-11-18 10:20:00 +0000";
layers = (
{
layerId = "A591124E-510C-4EE7-8335-8E9FAE8FCE08";
name = Regular;
paths = (
{
closed = 1;
nodes = (
"209 -12 CURVE SMOOTH",
"324 -12 OFFCURVE",
"387 54 OFFCURVE",
"387 133 CURVE SMOOTH",
"387 225 OFFCURVE",
"309 254 OFFCURVE",
"239 280 CURVE SMOOTH",
"184 301 OFFCURVE",
"131 318 OFFCURVE",
"131 364 CURVE SMOOTH",
"131 401 OFFCURVE",
"159 434 OFFCURVE",
"220 434 CURVE SMOOTH",
"263 434 OFFCURVE",
"298 416 OFFCURVE",
"331 391 CURVE",
"370 443 LINE",
"333 473 OFFCURVE",
"280 498 OFFCURVE",
"219 498 CURVE SMOOTH",
"114 498 OFFCURVE",
"52 438 OFFCURVE",
"52 360 CURVE SMOOTH",
"52 278 OFFCURVE",
"128 245 OFFCURVE",
"197 220 CURVE SMOOTH",
"250 200 OFFCURVE",
"308 178 OFFCURVE",
"308 128 CURVE SMOOTH",
"308 86 OFFCURVE",
"276 52 OFFCURVE",
"212 52 CURVE SMOOTH",
"154 52 OFFCURVE",
"111 76 OFFCURVE",
"69 110 CURVE",
"28 55 LINE",
"74 17 OFFCURVE",
"140 -12 OFFCURVE"
);
}
);
width = 419;
}
);
unicode = 0073;
},
{
glyphname = t;
lastChange = "2015-11-18 10:20:00 +0000";
layers = (
{
layerId = "A591124E-510C-4EE7-8335-8E9FAE8FCE08";
name = Regular;
paths = (
{
closed = 1;
nodes = (
"235 -12 CURVE SMOOTH",
"265 -12 OFFCURVE",
"298 -3 OFFCURVE",
"325 6 CURVE",
"309 68 LINE",
"293 62 OFFCURVE",
"271 55 OFFCURVE",
"254 55 CURVE SMOOTH",
"198 55 OFFCURVE",
"179 89 OFFCURVE",
"179 149 CURVE SMOOTH",
"179 419 LINE",
"310 419 LINE",
"310 486 LINE",
"179 486 LINE",
"179 622 LINE",
"110 622 LINE",
"100 486 LINE",
"24 481 LINE",
"24 419 LINE",
"96 419 LINE",
"96 150 LINE SMOOTH",
"96 54 OFFCURVE",
"131 -12 OFFCURVE"
);
}
);
width = 338;
}
);
unicode = 0074;
},
{
glyphname = u;
lastChange = "2015-11-18 10:20:00 +0000";
layers = (
{
layerId = "A591124E-510C-4EE7-8335-8E9FAE8FCE08";
name = Regular;
paths = (
{
closed = 1;
nodes = (
"224 -12 CURVE SMOOTH",
"291 -12 OFFCURVE",
"339 23 OFFCURVE",
"384 76 CURVE",
"387 76 LINE",
"394 0 LINE",
"462 0 LINE",
"462 486 LINE",
"380 486 LINE",
"380 141 LINE",
"334 84 OFFCURVE",
"299 59 OFFCURVE",
"249 59 CURVE SMOOTH",
"185 59 OFFCURVE",
"158 98 OFFCURVE",
"158 189 CURVE SMOOTH",
"158 486 LINE",
"75 486 LINE",
"75 178 LINE SMOOTH",
"75 54 OFFCURVE",
"121 -12 OFFCURVE"
);
}
);
width = 544;
}
);
unicode = 0075;
},
{
glyphname = v;
lastChange = "2015-11-18 10:20:00 +0000";
layers = (
{
layerId = "A591124E-510C-4EE7-8335-8E9FAE8FCE08";
name = Regular;
paths = (
{
closed = 1;
nodes = (
"187 0 LINE",
"283 0 LINE",
"455 486 LINE",
"374 486 LINE",
"282 210 LINE SMOOTH",
"268 162 OFFCURVE",
"252 113 OFFCURVE",
"238 67 CURVE",
"234 67 LINE",
"219 113 OFFCURVE",
"203 162 OFFCURVE",
"189 210 CURVE SMOOTH",
"97 486 LINE",
"12 486 LINE"
);
}
);
width = 467;
}
);
unicode = 0076;
},
{
glyphname = w;
lastChange = "2015-11-18 10:20:00 +0000";
layers = (
{
layerId = "A591124E-510C-4EE7-8335-8E9FAE8FCE08";
name = Regular;
paths = (
{
closed = 1;
nodes = (
"159 0 LINE",
"255 0 LINE",
"323 260 LINE",
"336 306 OFFCURVE",
"346 352 OFFCURVE",
"357 401 CURVE",
"361 401 LINE",
"373 352 OFFCURVE",
"382 307 OFFCURVE",
"394 261 CURVE",
"464 0 LINE",
"564 0 LINE",
"694 486 LINE",
"616 486 LINE",
"545 205 LINE",
"535 159 OFFCURVE",
"526 115 OFFCURVE",
"515 70 CURVE",
"511 70 LINE",
"500 115 OFFCURVE",
"489 159 OFFCURVE",
"477 205 CURVE",
"401 486 LINE",
"321 486 LINE",
"246 205 LINE",
"234 160 OFFCURVE",
"224 115 OFFCURVE",
"213 70 CURVE",
"209 70 LINE",
"200 115 OFFCURVE",
"191 159 OFFCURVE",
"180 205 CURVE",
"108 486 LINE",
"24 486 LINE"
);
}
);
width = 718;
}
);
unicode = 0077;
},
{
glyphname = x;
lastChange = "2015-11-18 10:20:00 +0000";
layers = (
{
layerId = "A591124E-510C-4EE7-8335-8E9FAE8FCE08";
name = Regular;
paths = (
{
closed = 1;
nodes = (
"14 0 LINE",
"100 0 LINE",
"166 113 LINE",
"182 143 OFFCURVE",
"198 172 OFFCURVE",
"215 200 CURVE",
"219 200 LINE",
"237 172 OFFCURVE",
"255 142 OFFCURVE",
"272 113 CURVE",
"343 0 LINE",
"432 0 LINE",
"274 245 LINE",
"421 486 LINE",
"335 486 LINE",
"276 379 LINE",
"261 353 OFFCURVE",
"246 325 OFFCURVE",
"232 298 CURVE",
"228 298 LINE",
"211 325 OFFCURVE",
"195 353 OFFCURVE",
"180 379 CURVE",
"115 486 LINE",
"26 486 LINE",
"173 254 LINE"
);
}
);
width = 446;
}
);
unicode = 0078;
},
{
glyphname = y;
lastChange = "2015-11-18 10:20:00 +0000";
layers = (
{
layerId = "A591124E-510C-4EE7-8335-8E9FAE8FCE08";
name = Regular;
paths = (
{
closed = 1;
nodes = (
"90 -209 CURVE SMOOTH",
"188 -209 OFFCURVE",
"238 -136 OFFCURVE",
"272 -40 CURVE",
"455 486 LINE",
"375 486 LINE",
"288 217 LINE SMOOTH",
"275 174 OFFCURVE",
"261 124 OFFCURVE",
"247 80 CURVE",
"243 80 LINE",
"228 125 OFFCURVE",
"211 175 OFFCURVE",
"196 217 CURVE SMOOTH",
"97 486 LINE",
"12 486 LINE",
"207 -1 LINE",
"196 -37 LINE SMOOTH",
"176 -97 OFFCURVE",
"141 -141 OFFCURVE",
"86 -141 CURVE SMOOTH",
"74 -141 OFFCURVE",
"59 -137 OFFCURVE",
"49 -134 CURVE",
"33 -199 LINE",
"49 -205 OFFCURVE",
"68 -209 OFFCURVE"
);
}
);
width = 467;
}
);
unicode = 0079;
},
{
glyphname = z;
lastChange = "2015-11-18 10:20:00 +0000";
layers = (
{
layerId = "A591124E-510C-4EE7-8335-8E9FAE8FCE08";
name = Regular;
paths = (
{
closed = 1;
nodes = (
"31 0 LINE",
"399 0 LINE",
"399 67 LINE",
"135 67 LINE",
"391 442 LINE",
"391 486 LINE",
"59 486 LINE",
"59 419 LINE",
"287 419 LINE",
"31 44 LINE"
);
}
);
width = 425;
}
);
unicode = 007A;
},
{
glyphname = zero;
lastChange = "2015-11-18 10:20:00 +0000";
layers = (
{
layerId = "A591124E-510C-4EE7-8335-8E9FAE8FCE08";
name = Regular;
paths = (
{
closed = 1;
nodes = (
"249 -12 CURVE SMOOTH",
"376 -12 OFFCURVE",
"453 107 OFFCURVE",
"453 321 CURVE SMOOTH",
"453 535 OFFCURVE",
"376 650 OFFCURVE",
"249 650 CURVE SMOOTH",
"121 650 OFFCURVE",
"44 535 OFFCURVE",
"44 321 CURVE SMOOTH",
"44 107 OFFCURVE",
"121 -12 OFFCURVE"
);
},
{
closed = 1;
nodes = (
"249 54 CURVE SMOOTH",
"174 54 OFFCURVE",
"124 134 OFFCURVE",
"124 321 CURVE SMOOTH",
"124 508 OFFCURVE",
"174 584 OFFCURVE",
"249 584 CURVE SMOOTH",
"323 584 OFFCURVE",
"373 508 OFFCURVE",
"373 321 CURVE SMOOTH",
"373 134 OFFCURVE",
"323 54 OFFCURVE"
);
}
);
width = 497;
}
);
unicode = 0030;
},
{
glyphname = one;
lastChange = "2015-11-18 10:20:00 +0000";
layers = (
{
layerId = "A591124E-510C-4EE7-8335-8E9FAE8FCE08";
name = Regular;
paths = (
{
closed = 1;
nodes = (
"79 0 LINE",
"439 0 LINE",
"439 68 LINE",
"307 68 LINE",
"307 638 LINE",
"244 638 LINE",
"209 617 OFFCURVE",
"167 601 OFFCURVE",
"109 591 CURVE",
"109 538 LINE",
"225 538 LINE",
"225 68 LINE",
"79 68 LINE"
);
}
);
width = 497;
}
);
unicode = 0031;
},
{
glyphname = two;
lastChange = "2015-11-18 10:20:00 +0000";
layers = (
{
layerId = "A591124E-510C-4EE7-8335-8E9FAE8FCE08";
name = Regular;
paths = (
{
closed = 1;
nodes = (
"40 0 LINE",
"452 0 LINE",
"452 71 LINE",
"267 71 LINE SMOOTH",
"234 71 OFFCURVE",
"195 68 OFFCURVE",
"160 65 CURVE",
"311 223 OFFCURVE",
"420 342 OFFCURVE",
"420 462 CURVE SMOOTH",
"420 575 OFFCURVE",
"347 650 OFFCURVE",
"229 650 CURVE SMOOTH",
"146 650 OFFCURVE",
"89 611 OFFCURVE",
"36 553 CURVE",
"83 506 LINE",
"120 549 OFFCURVE",
"166 583 OFFCURVE",
"219 583 CURVE SMOOTH",
"300 583 OFFCURVE",
"340 531 OFFCURVE",
"340 458 CURVE SMOOTH",
"340 355 OFFCURVE",
"232 240 OFFCURVE",
"40 49 CURVE"
);
}
);
width = 497;
}
);
unicode = 0032;
},
{
glyphname = three;
lastChange = "2015-11-18 10:20:00 +0000";
layers = (
{
layerId = "A591124E-510C-4EE7-8335-8E9FAE8FCE08";
name = Regular;
paths = (
{
closed = 1;
nodes = (
"236 -12 CURVE SMOOTH",
"353 -12 OFFCURVE",
"446 57 OFFCURVE",
"446 170 CURVE SMOOTH",
"446 258 OFFCURVE",
"385 314 OFFCURVE",
"308 332 CURVE",
"308 336 LINE",
"377 362 OFFCURVE",
"424 411 OFFCURVE",
"424 488 CURVE SMOOTH",
"424 591 OFFCURVE",
"344 650 OFFCURVE",
"233 650 CURVE SMOOTH",
"158 650 OFFCURVE",
"99 616 OFFCURVE",
"50 570 CURVE",
"94 518 LINE",
"132 556 OFFCURVE",
"177 583 OFFCURVE",
"230 583 CURVE SMOOTH",
"298 583 OFFCURVE",
"340 544 OFFCURVE",
"340 482 CURVE SMOOTH",
"340 415 OFFCURVE",
"295 363 OFFCURVE",
"159 363 CURVE",
"159 300 LINE",
"311 300 OFFCURVE",
"363 249 OFFCURVE",
"363 173 CURVE SMOOTH",
"363 102 OFFCURVE",
"308 56 OFFCURVE",
"231 56 CURVE SMOOTH",
"156 56 OFFCURVE",
"106 92 OFFCURVE",
"68 132 CURVE",
"26 78 LINE",
"69 31 OFFCURVE",
"134 -12 OFFCURVE"
);
}
);
width = 497;
}
);
unicode = 0033;
},
{
glyphname = four;
lastChange = "2015-11-18 10:20:00 +0000";
layers = (
{
layerId = "A591124E-510C-4EE7-8335-8E9FAE8FCE08";
name = Regular;
paths = (
{
closed = 1;
nodes = (
"304 0 LINE",
"382 0 LINE",
"382 638 LINE",
"290 638 LINE",
"17 230 LINE",
"17 176 LINE",
"469 176 LINE",
"469 242 LINE",
"104 242 LINE",
"253 460 LINE",
"271 491 OFFCURVE",
"289 519 OFFCURVE",
"305 550 CURVE",
"309 550 LINE",
"307 516 OFFCURVE",
"304 461 OFFCURVE",
"304 427 CURVE SMOOTH"
);
}
);
width = 497;
}
);
unicode = 0034;
},
{
glyphname = five;
lastChange = "2015-11-18 10:20:00 +0000";
layers = (
{
layerId = "A591124E-510C-4EE7-8335-8E9FAE8FCE08";
name = Regular;
paths = (
{
closed = 1;
nodes = (
"234 -12 CURVE SMOOTH",
"345 -12 OFFCURVE",
"449 66 OFFCURVE",
"449 204 CURVE SMOOTH",
"449 342 OFFCURVE",
"360 404 OFFCURVE",
"251 404 CURVE SMOOTH",
"212 404 OFFCURVE",
"183 394 OFFCURVE",
"153 378 CURVE",
"170 567 LINE",
"417 567 LINE",
"417 638 LINE",
"98 638 LINE",
"77 331 LINE",
"121 303 LINE",
"159 328 OFFCURVE",
"186 342 OFFCURVE",
"230 342 CURVE SMOOTH",
"312 342 OFFCURVE",
"366 290 OFFCURVE",
"366 202 CURVE SMOOTH",
"366 113 OFFCURVE",
"304 56 OFFCURVE",
"226 56 CURVE SMOOTH",
"151 56 OFFCURVE",
"103 91 OFFCURVE",
"65 129 CURVE",
"25 75 LINE",
"69 31 OFFCURVE",
"132 -12 OFFCURVE"
);
}
);
width = 497;
}
);
unicode = 0035;
},
{
glyphname = six;
lastChange = "2015-11-18 10:20:00 +0000";
layers = (
{
layerId = "A591124E-510C-4EE7-8335-8E9FAE8FCE08";
name = Regular;
paths = (
{
closed = 1;
nodes = (
"268 -12 CURVE SMOOTH",
"371 -12 OFFCURVE",
"457 71 OFFCURVE",
"457 193 CURVE SMOOTH",
"457 324 OFFCURVE",
"385 390 OFFCURVE",
"275 390 CURVE SMOOTH",
"221 390 OFFCURVE",
"161 356 OFFCURVE",
"121 303 CURVE",
"124 238 LINE",
"168 303 OFFCURVE",
"220 328 OFFCURVE",
"261 328 CURVE SMOOTH",
"340 328 OFFCURVE",
"379 276 OFFCURVE",
"379 193 CURVE SMOOTH",
"379 109 OFFCURVE",
"331 53 OFFCURVE",
"268 53 CURVE SMOOTH",
"177 53 OFFCURVE",
"126 138 OFFCURVE",
"126 295 CURVE SMOOTH",
"126 509 OFFCURVE",
"203 581 OFFCURVE",
"294 581 CURVE SMOOTH",
"334 581 OFFCURVE",
"373 562 OFFCURVE",
"399 531 CURVE",
"445 582 LINE",
"409 621 OFFCURVE",
"360 650 OFFCURVE",
"291 650 CURVE SMOOTH",
"164 650 OFFCURVE",
"48 551 OFFCURVE",
"48 295 CURVE SMOOTH",
"48 90 OFFCURVE",
"143 -12 OFFCURVE"
);
}
);
width = 497;
}
);
unicode = 0036;
},
{
glyphname = seven;
lastChange = "2015-11-18 10:20:00 +0000";
layers = (
{
layerId = "A591124E-510C-4EE7-8335-8E9FAE8FCE08";
name = Regular;
paths = (
{
closed = 1;
nodes = (
"177 0 CURVE",
"262 0 LINE",
"273 249 OFFCURVE",
"304 394 OFFCURVE",
"455 587 CURVE",
"455 638 LINE",
"44 638 LINE",
"44 567 LINE",
"362 567 LINE",
"236 392 OFFCURVE",
"188 240 OFFCURVE"
);
}
);
width = 497;
}
);
unicode = 0037;
},
{
glyphname = eight;
lastChange = "2015-11-18 10:20:00 +0000";
layers = (
{
layerId = "A591124E-510C-4EE7-8335-8E9FAE8FCE08";
name = Regular;
paths = (
{
closed = 1;
nodes = (
"250 -12 CURVE SMOOTH",
"374 -12 OFFCURVE",
"456 63 OFFCURVE",
"456 158 CURVE SMOOTH",
"456 244 OFFCURVE",
"402 289 OFFCURVE",
"345 322 CURVE",
"345 326 LINE",
"384 356 OFFCURVE",
"433 413 OFFCURVE",
"433 480 CURVE SMOOTH",
"433 579 OFFCURVE",
"364 650 OFFCURVE",
"253 650 CURVE SMOOTH",
"150 650 OFFCURVE",
"72 584 OFFCURVE",
"72 486 CURVE SMOOTH",
"72 419 OFFCURVE",
"114 372 OFFCURVE",
"161 339 CURVE",
"161 335 LINE",
"101 303 OFFCURVE",
"41 246 OFFCURVE",
"41 163 CURVE SMOOTH",
"41 62 OFFCURVE",
"130 -12 OFFCURVE"
);
},
{
closed = 1;
nodes = (
"295 348 CURVE",
"218 378 OFFCURVE",
"148 410 OFFCURVE",
"148 486 CURVE SMOOTH",
"148 548 OFFCURVE",
"192 589 OFFCURVE",
"251 589 CURVE SMOOTH",
"321 589 OFFCURVE",
"362 539 OFFCURVE",
"362 476 CURVE SMOOTH",
"362 429 OFFCURVE",
"338 386 OFFCURVE"
);
},
{
closed = 1;
nodes = (
"252 49 CURVE SMOOTH",
"174 49 OFFCURVE",
"115 100 OFFCURVE",
"115 171 CURVE SMOOTH",
"115 229 OFFCURVE",
"153 276 OFFCURVE",
"204 310 CURVE",
"296 273 OFFCURVE",
"377 243 OFFCURVE",
"377 161 CURVE SMOOTH",
"377 95 OFFCURVE",
"326 49 OFFCURVE"
);
}
);
width = 497;
}
);
unicode = 0038;
},
{
glyphname = nine;
lastChange = "2015-11-18 10:20:00 +0000";
layers = (
{
layerId = "A591124E-510C-4EE7-8335-8E9FAE8FCE08";
name = Regular;
paths = (
{
closed = 1;
nodes = (
"205 -12 CURVE SMOOTH",
"332 -12 OFFCURVE",
"448 87 OFFCURVE",
"448 343 CURVE SMOOTH",
"448 548 OFFCURVE",
"354 650 OFFCURVE",
"228 650 CURVE SMOOTH",
"126 650 OFFCURVE",
"40 567 OFFCURVE",
"40 445 CURVE SMOOTH",
"40 314 OFFCURVE",
"111 248 OFFCURVE",
"221 248 CURVE SMOOTH",
"276 248 OFFCURVE",
"335 281 OFFCURVE",
"375 335 CURVE",
"372 400 LINE",
"328 335 OFFCURVE",
"277 310 OFFCURVE",
"235 310 CURVE SMOOTH",
"156 310 OFFCURVE",
"117 362 OFFCURVE",
"117 445 CURVE SMOOTH",
"117 529 OFFCURVE",
"166 585 OFFCURVE",
"228 585 CURVE SMOOTH",
"320 585 OFFCURVE",
"371 500 OFFCURVE",
"371 343 CURVE SMOOTH",
"371 129 OFFCURVE",
"294 56 OFFCURVE",
"202 56 CURVE SMOOTH",
"162 56 OFFCURVE",
"123 76 OFFCURVE",
"97 107 CURVE",
"51 55 LINE",
"86 17 OFFCURVE",
"137 -12 OFFCURVE"
);
}
);
width = 497;
}
);
unicode = 0039;
},
{
glyphname = comma;
lastChange = "2015-11-18 10:20:00 +0000";
layers = (
{
layerId = "A591124E-510C-4EE7-8335-8E9FAE8FCE08";
name = Regular;
paths = (
{
closed = 1;
nodes = (
"67 -170 LINE",
"148 -136 OFFCURVE",
"198 -69 OFFCURVE",
"198 17 CURVE SMOOTH",
"198 77 OFFCURVE",
"172 114 OFFCURVE",
"129 114 CURVE SMOOTH",
"96 114 OFFCURVE",
"68 92 OFFCURVE",
"68 56 CURVE SMOOTH",
"68 19 OFFCURVE",
"95 -1 OFFCURVE",
"127 -1 CURVE SMOOTH",
"130 -1 OFFCURVE",
"134 -1 OFFCURVE",
"137 0 CURVE",
"137 -54 OFFCURVE",
"103 -97 OFFCURVE",
"47 -122 CURVE"
);
}
);
width = 249;
}
);
unicode = 002C;
},
{
glyphname = question;
lastChange = "2015-11-18 10:20:00 +0000";
layers = (
{
background = {
paths = (
{
closed = 1;
nodes = (
"232 198 LINE",
"216 338 OFFCURVE",
"377 391 OFFCURVE",
"377 522 CURVE SMOOTH",
"377 621 OFFCURVE",
"309 682 OFFCURVE",
"206 682 CURVE SMOOTH",
"135 682 OFFCURVE",
"80 647 OFFCURVE",
"38 599 CURVE",
"85 556 LINE",
"116 592 OFFCURVE",
"156 614 OFFCURVE",
"200 614 CURVE SMOOTH",
"264 614 OFFCURVE",
"297 570 OFFCURVE",
"297 517 CURVE SMOOTH",
"297 411 OFFCURVE",
"138 354 OFFCURVE",
"160 198 CURVE"
);
},
{
closed = 1;
nodes = (
"139 14 OFFCURVE",
"165 -12 OFFCURVE",
"198 -12 CURVE SMOOTH",
"231 -12 OFFCURVE",
"258 14 OFFCURVE",
"258 50 CURVE SMOOTH",
"258 88 OFFCURVE",
"231 114 OFFCURVE",
"198 114 CURVE SMOOTH",
"165 114 OFFCURVE",
"139 88 OFFCURVE",
"139 50 CURVE SMOOTH"
);
}
);
};
layerId = "A591124E-510C-4EE7-8335-8E9FAE8FCE08";
name = Regular;
paths = (
{
closed = 1;
nodes = (
"232 188 LINE",
"216 318 OFFCURVE",
"377 351 OFFCURVE",
"377 482 CURVE SMOOTH",
"377 581 OFFCURVE",
"309 642 OFFCURVE",
"206 642 CURVE SMOOTH",
"135 642 OFFCURVE",
"80 607 OFFCURVE",
"38 559 CURVE",
"85 516 LINE",
"116 552 OFFCURVE",
"156 574 OFFCURVE",
"200 574 CURVE SMOOTH",
"264 574 OFFCURVE",
"297 530 OFFCURVE",
"297 477 CURVE SMOOTH",
"297 371 OFFCURVE",
"138 334 OFFCURVE",
"160 188 CURVE"
);
},
{
closed = 1;
nodes = (
"139 4 OFFCURVE",
"165 -22 OFFCURVE",
"198 -22 CURVE SMOOTH",
"231 -22 OFFCURVE",
"258 4 OFFCURVE",
"258 40 CURVE SMOOTH",
"258 78 OFFCURVE",
"231 104 OFFCURVE",
"198 104 CURVE SMOOTH",
"165 104 OFFCURVE",
"139 78 OFFCURVE",
"139 40 CURVE SMOOTH"
);
}
);
width = 425;
}
);
unicode = 003F;
},
{
glyphname = hyphen;
lastChange = "2015-11-18 10:20:00 +0000";
layers = (
{
background = {
paths = (
{
closed = 1;
nodes = (
"40 249 LINE",
"270 249 LINE",
"270 312 LINE",
"40 312 LINE"
);
}
);
};
layerId = "A591124E-510C-4EE7-8335-8E9FAE8FCE08";
name = Regular;
paths = (
{
closed = 1;
nodes = (
"40 249 LINE",
"270 249 LINE",
"270 322 LINE",
"40 322 LINE"
);
}
);
width = 310;
}
);
unicode = 002D;
},
{
glyphname = quotedblleft;
lastChange = "2015-11-18 10:20:00 +0000";
layers = (
{
layerId = "A591124E-510C-4EE7-8335-8E9FAE8FCE08";
name = Regular;
paths = (
{
closed = 1;
nodes = (
"163 676 LINE",
"94 636 OFFCURVE",
"57 578 OFFCURVE",
"57 498 CURVE SMOOTH",
"57 440 OFFCURVE",
"80 408 OFFCURVE",
"120 408 CURVE SMOOTH",
"151 408 OFFCURVE",
"173 429 OFFCURVE",
"173 463 CURVE SMOOTH",
"173 496 OFFCURVE",
"147 514 OFFCURVE",
"120 514 CURVE SMOOTH",
"117 514 OFFCURVE",
"114 514 OFFCURVE",
"111 513 CURVE",
"111 570 OFFCURVE",
"136 604 OFFCURVE",
"187 637 CURVE"
);
},
{
closed = 1;
nodes = (
"340 676 LINE",
"270 636 OFFCURVE",
"233 578 OFFCURVE",
"233 498 CURVE SMOOTH",
"233 440 OFFCURVE",
"256 408 OFFCURVE",
"296 408 CURVE SMOOTH",
"327 408 OFFCURVE",
"349 429 OFFCURVE",
"349 463 CURVE SMOOTH",
"349 496 OFFCURVE",
"324 514 OFFCURVE",
"296 514 CURVE SMOOTH",
"293 514 OFFCURVE",
"290 514 OFFCURVE",
"287 513 CURVE",
"287 570 OFFCURVE",
"313 604 OFFCURVE",
"363 637 CURVE"
);
}
);
width = 426;
}
);
unicode = 201C;
},
{
glyphname = quotedblright;
lastChange = "2015-11-18 10:20:00 +0000";
layers = (
{
layerId = "A591124E-510C-4EE7-8335-8E9FAE8FCE08";
name = Regular;
paths = (
{
closed = 1;
nodes = (
"86 411 LINE",
"155 451 OFFCURVE",
"193 508 OFFCURVE",
"193 588 CURVE SMOOTH",
"193 646 OFFCURVE",
"169 679 OFFCURVE",
"130 679 CURVE SMOOTH",
"99 679 OFFCURVE",
"77 658 OFFCURVE",
"77 623 CURVE SMOOTH",
"77 591 OFFCURVE",
"102 573 OFFCURVE",
"130 573 CURVE SMOOTH",
"133 573 OFFCURVE",
"135 573 OFFCURVE",
"138 574 CURVE",
"138 516 OFFCURVE",
"113 482 OFFCURVE",
"63 449 CURVE"
);
},
{
closed = 1;
nodes = (
"263 411 LINE",
"332 451 OFFCURVE",
"369 508 OFFCURVE",
"369 588 CURVE SMOOTH",
"369 646 OFFCURVE",
"346 679 OFFCURVE",
"306 679 CURVE SMOOTH",
"275 679 OFFCURVE",
"253 658 OFFCURVE",
"253 623 CURVE SMOOTH",
"253 591 OFFCURVE",
"278 573 OFFCURVE",
"306 573 CURVE SMOOTH",
"309 573 OFFCURVE",
"312 573 OFFCURVE",
"315 574 CURVE",
"315 516 OFFCURVE",
"289 482 OFFCURVE",
"239 449 CURVE"
);
}
);
width = 426;
}
);
unicode = 201D;
},
{
glyphname = quoteleft;
lastChange = "2015-11-18 10:20:00 +0000";
layers = (
{
layerId = "A591124E-510C-4EE7-8335-8E9FAE8FCE08";
name = Regular;
paths = (
{
closed = 1;
nodes = (
"163 676 LINE",
"94 636 OFFCURVE",
"57 578 OFFCURVE",
"57 498 CURVE SMOOTH",
"57 440 OFFCURVE",
"80 408 OFFCURVE",
"120 408 CURVE SMOOTH",
"151 408 OFFCURVE",
"173 429 OFFCURVE",
"173 463 CURVE SMOOTH",
"173 496 OFFCURVE",
"147 514 OFFCURVE",
"120 514 CURVE SMOOTH",
"117 514 OFFCURVE",
"114 514 OFFCURVE",
"111 513 CURVE",
"111 570 OFFCURVE",
"136 604 OFFCURVE",
"187 637 CURVE"
);
}
);
width = 250;
}
);
unicode = 2018;
},
{
glyphname = quoteright;
lastChange = "2015-11-18 10:20:00 +0000";
layers = (
{
layerId = "A591124E-510C-4EE7-8335-8E9FAE8FCE08";
name = Regular;
paths = (
{
closed = 1;
nodes = (
"86 411 LINE",
"155 451 OFFCURVE",
"193 508 OFFCURVE",
"193 588 CURVE SMOOTH",
"193 646 OFFCURVE",
"169 679 OFFCURVE",
"130 679 CURVE SMOOTH",
"99 679 OFFCURVE",
"77 658 OFFCURVE",
"77 623 CURVE SMOOTH",
"77 591 OFFCURVE",
"102 573 OFFCURVE",
"130 573 CURVE SMOOTH",
"133 573 OFFCURVE",
"135 573 OFFCURVE",
"138 574 CURVE",
"138 516 OFFCURVE",
"113 482 OFFCURVE",
"63 449 CURVE"
);
}
);
width = 250;
}
);
unicode = 2019;
},
{
glyphname = "mucaad-olchiki";
lastChange = "2015-11-18 10:20:00 +0000";
layers = (
{
layerId = "A591124E-510C-4EE7-8335-8E9FAE8FCE08";
name = Regular;
paths = (
{
closed = 1;
nodes = (
"222 120 LINE",
"222 480 LINE",
"150 480 LINE",
"150 120 LINE"
);
}
);
width = 342;
}
);
unicode = 1C7E;
},
{
glyphname = "double_mucaad-olchiki";
lastChange = "2015-11-18 10:20:00 +0000";
layers = (
{
layerId = "A591124E-510C-4EE7-8335-8E9FAE8FCE08";
name = Regular;
paths = (
{
closed = 1;
nodes = (
"222 120 LINE",
"222 480 LINE",
"150 480 LINE",
"150 120 LINE"
);
},
{
closed = 1;
nodes = (
"382 120 LINE",
"382 480 LINE",
"310 480 LINE",
"310 120 LINE"
);
}
);
width = 502;
}
);
unicode = 1C7F;
},
{
glyphname = "ahad-olchiki";
lastChange = "2015-11-18 10:20:00 +0000";
layers = (
{
layerId = "A591124E-510C-4EE7-8335-8E9FAE8FCE08";
name = Regular;
paths = (
{
closed = 1;
nodes = (
"161 4 LINE",
"335 22 OFFCURVE",
"448 192 OFFCURVE",
"448 372 CURVE SMOOTH",
"448 534 OFFCURVE",
"383 678 OFFCURVE",
"232 675 CURVE SMOOTH",
"131 673 OFFCURVE",
"88 593 OFFCURVE",
"88 523 CURVE SMOOTH",
"89 402 OFFCURVE",
"192 292 OFFCURVE",
"360 199 CURVE",
"405 258 LINE",
"310 309 OFFCURVE",
"163 412 OFFCURVE",
"163 521 CURVE SMOOTH",
"163 556 OFFCURVE",
"183 604 OFFCURVE",
"240 604 CURVE SMOOTH",
"327 604 OFFCURVE",
"375 510 OFFCURVE",
"375 378 CURVE SMOOTH",
"375 249 OFFCURVE",
"319 138 OFFCURVE",
"203 91 CURVE",
"102 285 LINE",
"35 251 LINE"
);
}
);
width = 493;
}
);
unicode = 1C7D;
},
{
glyphname = "zero-olchiki";
lastChange = "2015-11-18 10:20:00 +0000";
layers = (
{
layerId = "A591124E-510C-4EE7-8335-8E9FAE8FCE08";
name = Regular;
paths = (
{
closed = 1;
nodes = (
"45 109 OFFCURVE",
"158 -15 OFFCURVE",
"300 -15 CURVE SMOOTH",
"441 -15 OFFCURVE",
"555 109 OFFCURVE",
"555 316 CURVE SMOOTH",
"555 525 OFFCURVE",
"441 650 OFFCURVE",
"300 650 CURVE SMOOTH",
"158 650 OFFCURVE",
"45 525 OFFCURVE",
"45 316 CURVE SMOOTH"
);
},
{
closed = 1;
nodes = (
"478 155 OFFCURVE",
"406 59 OFFCURVE",
"300 59 CURVE SMOOTH",
"193 59 OFFCURVE",
"122 155 OFFCURVE",
"122 316 CURVE SMOOTH",
"122 478 OFFCURVE",
"193 576 OFFCURVE",
"300 576 CURVE SMOOTH",
"406 576 OFFCURVE",
"478 478 OFFCURVE",
"478 316 CURVE SMOOTH"
);
}
);
width = 600;
}
);
unicode = 1C50;
},
{
glyphname = "one-olchiki";
lastChange = "2015-11-18 10:20:00 +0000";
layers = (
{
background = {
paths = (
{
closed = 1;
nodes = (
"326 340 LINE",
"398 340 LINE",
"398 636 LINE",
"326 636 LINE"
);
},
{
closed = 1;
nodes = (
"68 643 LINE",
"50 554 LINE",
"354 315 LINE",
"389 382 LINE"
);
},
{
closed = 1;
nodes = (
"-14 403 OFFCURVE",
"70 53 OFFCURVE",
"370 0 CURVE",
"391 78 LINE",
"159 113 OFFCURVE",
"96 349 OFFCURVE",
"122 568 CURVE",
"65 633 LINE"
);
}
);
};
layerId = "A591124E-510C-4EE7-8335-8E9FAE8FCE08";
name = Regular;
paths = (
{
closed = 1;
nodes = (
"326 343 LINE",
"398 340 LINE",
"398 636 LINE",
"326 636 LINE"
);
},
{
closed = 1;
nodes = (
"351 319 LINE",
"398 340 LINE",
"389 382 LINE",
"71 643 LINE",
"47 575 OFFCURVE",
"33 522 OFFCURVE",
"33 423 CURVE SMOOTH",
"34 237 OFFCURVE",
"144 20 OFFCURVE",
"370 -20 CURVE",
"391 55 LINE",
"132 102 OFFCURVE",
"91 376 OFFCURVE",
"116 511 CURVE"
);
}
);
width = 428;
}
);
unicode = 1C51;
},
{
glyphname = "two-olchiki";
lastChange = "2015-11-18 10:20:00 +0000";
layers = (
{
background = {
paths = (
{
closed = 1;
nodes = (
"15 59 OFFCURVE",
"90 -15 OFFCURVE",
"211 -15 CURVE",
"300 -15 OFFCURVE",
"380 26 OFFCURVE",
"438 92 CURVE",
"384 144 LINE",
"346 104 OFFCURVE",
"287 60 OFFCURVE",
"212 60 CURVE",
"140 60 OFFCURVE",
"93 96 OFFCURVE",
"93 162 CURVE",
"93 226 OFFCURVE",
"162 263 OFFCURVE",
"225 303 CURVE SMOOTH",
"310 357 OFFCURVE",
"397 406 OFFCURVE",
"397 505 CURVE",
"397 599 OFFCURVE",
"320 650 OFFCURVE",
"250 650 CURVE",
"171 650 OFFCURVE",
"121 611 OFFCURVE",
"74 561 CURVE",
"129 505 LINE",
"156 539 OFFCURVE",
"192 576 OFFCURVE",
"248 576 CURVE",
"280 576 OFFCURVE",
"319 558 OFFCURVE",
"319 505 CURVE",
"319 440 OFFCURVE",
"245 402 OFFCURVE",
"170 355 CURVE SMOOTH",
"94 308 OFFCURVE",
"15 254 OFFCURVE",
"15 163 CURVE"
);
},
{
closed = 1;
nodes = (
"41 645 LINE",
"-12 600 LINE",
"154 426 LINE",
"208 472 LINE"
);
}
);
};
layerId = "A591124E-510C-4EE7-8335-8E9FAE8FCE08";
name = Regular;
paths = (
{
closed = 1;
nodes = (
"104 599 OFFCURVE",
"161 650 OFFCURVE",
"240 650 CURVE",
"320 650 OFFCURVE",
"377 599 OFFCURVE",
"377 515 CURVE",
"377 416 OFFCURVE",
"310 357 OFFCURVE",
"225 303 CURVE SMOOTH",
"162 263 OFFCURVE",
"113 226 OFFCURVE",
"113 162 CURVE",
"113 96 OFFCURVE",
"160 60 OFFCURVE",
"212 60 CURVE",
"287 60 OFFCURVE",
"346 104 OFFCURVE",
"384 144 CURVE",
"438 92 LINE",
"380 26 OFFCURVE",
"300 -15 OFFCURVE",
"211 -15 CURVE",
"110 -15 OFFCURVE",
"35 59 OFFCURVE",
"35 163 CURVE",
"35 254 OFFCURVE",
"94 308 OFFCURVE",
"170 355 CURVE SMOOTH",
"245 402 OFFCURVE",
"300 434 OFFCURVE",
"300 515 CURVE",
"300 558 OFFCURVE",
"270 575 OFFCURVE",
"238 575 CURVE",
"202 575 OFFCURVE",
"179 554 OFFCURVE",
"179 526 CURVE",
"179 481 OFFCURVE",
"239 439 OFFCURVE",
"277 424 CURVE",
"222 367 LINE",
"172 398 OFFCURVE",
"104 443 OFFCURVE",
"104 525 CURVE"
);
}
);
width = 458;
}
);
unicode = 1C52;
},
{
glyphname = "three-olchiki";
lastChange = "2015-11-18 10:20:00 +0000";
layers = (
{
layerId = "A591124E-510C-4EE7-8335-8E9FAE8FCE08";
name = Regular;
paths = (
{
closed = 1;
nodes = (
"453 636 LINE",
"453 290 LINE",
"381 293 LINE",
"381 636 LINE"
);
},
{
closed = 1;
nodes = (
"218 341 OFFCURVE",
"69 383 OFFCURVE",
"69 534 CURVE",
"69 599 OFFCURVE",
"123 650 OFFCURVE",
"202 650 CURVE",
"282 650 OFFCURVE",
"328 599 OFFCURVE",
"328 527 CURVE",
"328 448 OFFCURVE",
"273 405 OFFCURVE",
"228 368 CURVE SMOOTH",
"173 323 OFFCURVE",
"110 285 OFFCURVE",
"110 242 CURVE",
"110 133 OFFCURVE",
"351 76 OFFCURVE",
"435 55 CURVE",
"403 -15 LINE",
"299 16 OFFCURVE",
"30 79 OFFCURVE",
"30 242 CURVE",
"30 308 OFFCURVE",
"102 358 OFFCURVE",
"166 407 CURVE SMOOTH",
"211 441 OFFCURVE",
"255 474 OFFCURVE",
"255 515 CURVE",
"255 558 OFFCURVE",
"232 575 OFFCURVE",
"200 575 CURVE",
"164 575 OFFCURVE",
"144 554 OFFCURVE",
"144 526 CURVE",
"144 436 OFFCURVE",
"265 392 OFFCURVE",
"444 332 CURVE",
"453 290 LINE",
"406 269 LINE"
);
}
);
width = 483;
}
);
unicode = 1C53;
},
{
glyphname = "five-olchiki";
lastChange = "2015-11-18 10:20:00 +0000";
layers = (
{
background = {
paths = (
{
closed = 1;
nodes = (
"56 554 OFFCURVE",
"25 457 OFFCURVE",
"25 329 CURVE SMOOTH",
"25 124 OFFCURVE",
"120 -15 OFFCURVE",
"298 -15 CURVE SMOOTH",
"455 -15 OFFCURVE",
"558 101 OFFCURVE",
"565 297 CURVE",
"549 312 LINE",
"507 302 OFFCURVE",
"478 287 OFFCURVE",
"419 287 CURVE SMOOTH",
"337 287 OFFCURVE",
"301 359 OFFCURVE",
"301 418 CURVE SMOOTH",
"301 524 OFFCURVE",
"334 568 OFFCURVE",
"396 568 CURVE SMOOTH",
"444 568 OFFCURVE",
"474 536 OFFCURVE",
"500 481 CURVE",
"564 514 LINE",
"532 602 OFFCURVE",
"461 642 OFFCURVE",
"399 642 CURVE SMOOTH",
"270 642 OFFCURVE",
"227 537 OFFCURVE",
"227 417 CURVE SMOOTH",
"227 318 OFFCURVE",
"291 214 OFFCURVE",
"417 214 CURVE SMOOTH",
"439 214 OFFCURVE",
"463 217 OFFCURVE",
"483 221 CURVE",
"463 122 OFFCURVE",
"399 59 OFFCURVE",
"300 59 CURVE",
"161 54 OFFCURVE",
"99 182 OFFCURVE",
"99 323 CURVE SMOOTH",
"99 452 OFFCURVE",
"136 546 OFFCURVE",
"174 606 CURVE",
"104 640 LINE"
);
}
);
};
layerId = "A591124E-510C-4EE7-8335-8E9FAE8FCE08";
name = Regular;
paths = (
{
closed = 1;
nodes = (
"117 554 OFFCURVE",
"45 417 OFFCURVE",
"45 279 CURVE SMOOTH",
"45 101 OFFCURVE",
"130 -15 OFFCURVE",
"288 -15 CURVE SMOOTH",
"415 -15 OFFCURVE",
"518 66 OFFCURVE",
"525 237 CURVE",
"509 252 LINE",
"470 239 OFFCURVE",
"438 227 OFFCURVE",
"379 227 CURVE SMOOTH",
"309 227 OFFCURVE",
"284 263 OFFCURVE",
"284 312 CURVE SMOOTH",
"284 410 OFFCURVE",
"405 428 OFFCURVE",
"471 440 CURVE",
"451 513 LINE",
"333 500 OFFCURVE",
"210 445 OFFCURVE",
"210 311 CURVE SMOOTH",
"210 220 OFFCURVE",
"263 156 OFFCURVE",
"377 156 CURVE SMOOTH",
"399 156 OFFCURVE",
"419 160 OFFCURVE",
"439 164 CURVE",
"419 95 OFFCURVE",
"359 59 OFFCURVE",
"290 59 CURVE",
"171 59 OFFCURVE",
"120 149 OFFCURVE",
"120 273 CURVE SMOOTH",
"120 412 OFFCURVE",
"196 546 OFFCURVE",
"236 606 CURVE",
"167 640 LINE"
);
}
);
width = 555;
}
);
unicode = 1C55;
},
{
glyphname = "six-olchiki";
lastChange = "2015-11-18 10:20:00 +0000";
layers = (
{
layerId = "A591124E-510C-4EE7-8335-8E9FAE8FCE08";
name = Regular;
paths = (
{
closed = 1;
nodes = (
"217 650 OFFCURVE",
"95 538 OFFCURVE",
"95 378 CURVE SMOOTH",
"95 197 OFFCURVE",
"206 20 OFFCURVE",
"432 -20 CURVE",
"453 55 LINE",
"246 94 OFFCURVE",
"177 238 OFFCURVE",
"176 374 CURVE SMOOTH",
"175 501 OFFCURVE",
"268 567 OFFCURVE",
"334 567 CURVE",
"379 567 OFFCURVE",
"412 537 OFFCURVE",
"412 493 CURVE",
"412 449 OFFCURVE",
"390 418 OFFCURVE",
"333 418 CURVE",
"285 418 OFFCURVE",
"239 458 OFFCURVE",
"193 510 CURVE",
"165 544 LINE",
"68 665 LINE",
"5 620 LINE",
"125 467 LINE",
"160 432 LINE",
"214 374 OFFCURVE",
"272 336 OFFCURVE",
"343 336 CURVE",
"434 336 OFFCURVE",
"493 408 OFFCURVE",
"493 498 CURVE",
"493 568 OFFCURVE",
"437 650 OFFCURVE",
"333 650 CURVE"
);
}
);
width = 528;
}
);
unicode = 1C56;
},
{
glyphname = "seven-olchiki";
lastChange = "2015-11-18 10:20:00 +0000";
layers = (
{
layerId = "A591124E-510C-4EE7-8335-8E9FAE8FCE08";
name = Regular;
paths = (
{
closed = 1;
nodes = (
"37 59 OFFCURVE",
"112 -15 OFFCURVE",
"233 -15 CURVE",
"322 -15 OFFCURVE",
"402 26 OFFCURVE",
"460 92 CURVE",
"406 144 LINE",
"368 104 OFFCURVE",
"309 60 OFFCURVE",
"234 60 CURVE",
"162 60 OFFCURVE",
"115 96 OFFCURVE",
"115 162 CURVE",
"115 226 OFFCURVE",
"184 263 OFFCURVE",
"247 303 CURVE SMOOTH",
"332 357 OFFCURVE",
"419 406 OFFCURVE",
"419 505 CURVE",
"419 599 OFFCURVE",
"349 650 OFFCURVE",
"279 650 CURVE",
"202 650 OFFCURVE",
"156 614 OFFCURVE",
"103 554 CURVE",
"159 500 LINE",
"186 534 OFFCURVE",
"222 576 OFFCURVE",
"274 576 CURVE",
"306 576 OFFCURVE",
"341 558 OFFCURVE",
"341 505 CURVE",
"341 440 OFFCURVE",
"267 402 OFFCURVE",
"192 355 CURVE SMOOTH",
"116 308 OFFCURVE",
"37 254 OFFCURVE",
"37 163 CURVE"
);
},
{
closed = 1;
nodes = (
"73 635 LINE",
"20 590 LINE",
"181 421 LINE",
"235 467 LINE"
);
}
);
width = 490;
}
);
unicode = 1C57;
},
{
glyphname = "eight-olchiki";
lastChange = "2015-11-18 10:20:00 +0000";
layers = (
{
layerId = "A591124E-510C-4EE7-8335-8E9FAE8FCE08";
name = Regular;
paths = (
{
closed = 1;
nodes = (
"379 360 OFFCURVE",
"327 437 OFFCURVE",
"286 502 CURVE",
"279 512 LINE",
"257 545 OFFCURVE",
"240 576 OFFCURVE",
"199 576 CURVE SMOOTH",
"166 576 OFFCURVE",
"138 551 OFFCURVE",
"138 455 CURVE",
"138 216 LINE",
"138 65 OFFCURVE",
"209 59 OFFCURVE",
"326 59 CURVE SMOOTH",
"424 59 OFFCURVE",
"474 83 OFFCURVE",
"508 156 CURVE",
"576 124 LINE",
"536 25 OFFCURVE",
"449 -15 OFFCURVE",
"326 -15 CURVE SMOOTH",
"174 -15 OFFCURVE",
"65 9 OFFCURVE",
"65 216 CURVE",
"65 461 LINE",
"65 606 OFFCURVE",
"127 650 OFFCURVE",
"194 650 CURVE SMOOTH",
"256 650 OFFCURVE",
"297 607 OFFCURVE",
"333 555 CURVE SMOOTH",
"334 553 OFFCURVE",
"336 545 OFFCURVE",
"337 543 CURVE SMOOTH",
"376 488 OFFCURVE",
"411 431 OFFCURVE",
"464 431 CURVE",
"506 431 OFFCURVE",
"519 469 OFFCURVE",
"519 509 CURVE",
"519 557 OFFCURVE",
"495 577 OFFCURVE",
"460 577 CURVE",
"424 577 OFFCURVE",
"379 524 OFFCURVE",
"342 490 CURVE",
"323 477 LINE",
"84 250 LINE",
"76 338 LINE",
"289 537 LINE",
"294 542 OFFCURVE",
"308 556 OFFCURVE",
"313 561 CURVE SMOOTH",
"371 614 OFFCURVE",
"412 650 OFFCURVE",
"467 650 CURVE",
"536 650 OFFCURVE",
"591 599 OFFCURVE",
"591 510 CURVE",
"591 395 OFFCURVE",
"529 360 OFFCURVE",
"467 360 CURVE"
);
}
);
width = 626;
}
);
unicode = 1C58;
},
{
glyphname = "nine-olchiki";
lastChange = "2015-11-18 10:20:00 +0000";
layers = (
{
layerId = "A591124E-510C-4EE7-8335-8E9FAE8FCE08";
name = Regular;
paths = (
{
closed = 1;
nodes = (
"170 -15 OFFCURVE",
"45 117 OFFCURVE",
"45 320 CURVE SMOOTH",
"45 507 OFFCURVE",
"147 602 OFFCURVE",
"280 639 CURVE",
"306 571 LINE",
"195 542 OFFCURVE",
"119 471 OFFCURVE",
"119 320 CURVE SMOOTH",
"119 165 OFFCURVE",
"201 59 OFFCURVE",
"321 59 CURVE",
"413 59 OFFCURVE",
"462 109 OFFCURVE",
"462 210 CURVE",
"462 266 OFFCURVE",
"431 288 OFFCURVE",
"401 288 CURVE",
"372 288 OFFCURVE",
"343 271 OFFCURVE",
"343 238 CURVE SMOOTH",
"343 183 OFFCURVE",
"416 155 OFFCURVE",
"467 155 CURVE",
"435 93 LINE",
"350 100 OFFCURVE",
"271 156 OFFCURVE",
"271 240 CURVE SMOOTH",
"271 309 OFFCURVE",
"328 362 OFFCURVE",
"401 362 CURVE",
"474 362 OFFCURVE",
"539 309 OFFCURVE",
"539 211 CURVE",
"539 98 OFFCURVE",
"476 -15 OFFCURVE",
"309 -15 CURVE"
);
}
);
width = 569;
}
);
unicode = 1C59;
},
{
glyphname = "four-olchiki";
lastChange = "2015-11-18 10:20:00 +0000";
layers = (
{
background = {
paths = (
{
closed = 1;
nodes = (
"78 188 OFFCURVE",
"141 54 OFFCURVE",
"280 59 CURVE",
"379 59 OFFCURVE",
"443 122 OFFCURVE",
"463 221 CURVE",
"266 170 LINE",
"44 338 LINE",
"81 426 LINE",
"272 253 LINE",
"529 313 LINE",
"545 297 LINE",
"538 101 OFFCURVE",
"435 -15 OFFCURVE",
"278 -15 CURVE SMOOTH",
"100 -15 OFFCURVE",
"5 124 OFFCURVE",
"5 329 CURVE",
"5 516 OFFCURVE",
"107 611 OFFCURVE",
"240 648 CURVE",
"266 580 LINE",
"155 551 OFFCURVE",
"78 480 OFFCURVE",
"78 329 CURVE"
);
}
);
};
layerId = "A591124E-510C-4EE7-8335-8E9FAE8FCE08";
name = Regular;
paths = (
{
closed = 1;
nodes = (
"118 168 OFFCURVE",
"148 59 OFFCURVE",
"250 59 CURVE",
"306 59 OFFCURVE",
"363 95 OFFCURVE",
"362 168 CURVE SMOOTH",
"362 177 OFFCURVE",
"362 179 OFFCURVE",
"361 187 CURVE",
"341 169 OFFCURVE",
"316 145 OFFCURVE",
"267 145 CURVE",
"179 145 OFFCURVE",
"122 266 OFFCURVE",
"109 440 CURVE",
"163 500 LINE",
"180 378 OFFCURVE",
"208 222 OFFCURVE",
"274 222 CURVE",
"309 222 OFFCURVE",
"335 266 OFFCURVE",
"358 304 CURVE",
"381 308 LINE",
"417 259 OFFCURVE",
"433 222 OFFCURVE",
"433 152 CURVE SMOOTH",
"433 53 OFFCURVE",
"347 -15 OFFCURVE",
"251 -15 CURVE SMOOTH",
"111 -15 OFFCURVE",
"45 104 OFFCURVE",
"45 262 CURVE",
"45 496 OFFCURVE",
"237 611 OFFCURVE",
"370 648 CURVE",
"396 580 LINE",
"285 551 OFFCURVE",
"118 460 OFFCURVE",
"118 251 CURVE"
);
}
);
width = 463;
}
);
unicode = 1C54;
},
{
glyphname = newGlyph;
lastChange = "2015-11-18 10:20:00 +0000";
layers = (
{
layerId = "A591124E-510C-4EE7-8335-8E9FAE8FCE08";
name = Regular;
paths = (
{
closed = 1;
nodes = (
"67 0 LINE",
"142 0 LINE",
"142 636 LINE",
"67 636 LINE"
);
}
